Upgrade_CJK_Try-Regular82.ufo
<glyph name="exclam" format="2">
  <advance height="1000" width="230"/>
  <unicode hex="0021"/>
  <outline>
    <contour>
      <point x="74" y="186" type="line"/>
      <point x="156" y="186" type="line"/>
      <point x="156" y="740" type="line"/>
      <point x="74" y="740" type="line"/>
    </contour>
    <contour>
      <point x="72" y="0" type="line"/>
      <point x="158" y="0" type="line"/>
      <point x="158" y="86" type="line"/>
      <point x="72" y="86" type="line"/>
    </contour>
  </outline>
</glyph>
<glyph name="dollar" format="2">
  <advance height="1000" width="549"/>
  <unicode hex="0024"/>
  <outline>
    <contour>
      <point x="243.0" y="383.0" type="line"/>
      <point x="315.0" y="383.0" type="line"/>
      <point x="315.0" y="844.0" type="line"/>
      <point x="243.0" y="844.0" type="line"/>
    </contour>
    <contour>
      <point x="243.0" y="-94.0" type="line"/>
      <point x="315.0" y="-94.0" type="line"/>
      <point x="315.0" y="368.0" type="line"/>
      <point x="243.0" y="368.0" type="line"/>
    </contour>
    <contour>
      <point x="265" y="-14" type="curve" smooth="yes"/>
      <point x="404" y="-14"/>
      <point x="493" y="70"/>
      <point x="493" y="197" type="curve" smooth="yes"/>
      <point x="493" y="304"/>
      <point x="434" y="365"/>
      <point x="302" y="415" type="curve" smooth="yes"/>
      <point x="281" y="423" type="line" smooth="yes"/>
      <point x="189" y="458"/>
      <point x="142" y="493"/>
      <point x="142" y="560" type="curve" smooth="yes"/>
      <point x="142" y="633"/>
      <point x="199" y="678"/>
      <point x="287" y="678" type="curve" smooth="yes"/>
      <point x="358" y="678"/>
      <point x="417" y="654"/>
      <point x="472" y="609" type="curve"/>
      <point x="472" y="701" type="line"/>
      <point x="412" y="737"/>
      <point x="350" y="754"/>
      <point x="282" y="754" type="curve" smooth="yes"/>
      <point x="147" y="754"/>
      <point x="63" y="675"/>
      <point x="63" y="557" type="curve" smooth="yes"/>
      <point x="63" y="452"/>
      <point x="119" y="395"/>
      <point x="244" y="347" type="curve" smooth="yes"/>
      <point x="265" y="339" type="line" smooth="yes"/>
      <point x="365" y="301"/>
      <point x="413" y="261"/>
      <point x="413" y="188" type="curve" smooth="yes"/>
      <point x="413" y="112"/>
      <point x="351" y="62"/>
      <point x="262" y="62" type="curve" smooth="yes"/>
      <point x="186" y="62"/>
      <point x="118" y="88"/>
      <point x="56" y="136" type="curve"/>
      <point x="56" y="44" type="line"/>
      <point x="119" y="5"/>
      <point x="188" y="-14"/>
    </contour>
  </outline>
</glyph>
<glyph name="ampersand" format="2">
  <advance height="1000" width="666"/>
  <unicode hex="0026"/>
  <outline>
    <contour>
      <point x="254" y="-14" type="curve" smooth="yes"/>
      <point x="333" y="-14"/>
      <point x="403" y="17"/>
      <point x="458" y="78" type="curve"/>
      <point x="526" y="0" type="line"/>
      <point x="634" y="0" type="line"/>
      <point x="506" y="148" type="line"/>
      <point x="550" y="218"/>
      <point x="578" y="313"/>
      <point x="578" y="428" type="curve"/>
      <point x="502" y="428" type="line"/>
      <point x="502" y="332"/>
      <point x="480" y="263"/>
      <point x="452" y="209" type="curve"/>
      <point x="273" y="423" type="line" smooth="yes"/>
      <point x="224" y="481"/>
      <point x="206" y="520"/>
      <point x="206" y="563" type="curve" smooth="yes"/>
      <point x="206" y="642"/>
      <point x="259" y="683"/>
      <point x="333" y="683" type="curve" smooth="yes"/>
      <point x="392" y="683"/>
      <point x="447" y="658"/>
      <point x="498" y="607" type="curve"/>
      <point x="498" y="698" type="line"/>
      <point x="446" y="738"/>
      <point x="386" y="758"/>
      <point x="326" y="758" type="curve" smooth="yes"/>
      <point x="209" y="758"/>
      <point x="124" y="680"/>
      <point x="124" y="559" type="curve" smooth="yes"/>
      <point x="124" y="513"/>
      <point x="142" y="461"/>
      <point x="170" y="423" type="curve"/>
      <point x="88" y="378"/>
      <point x="28" y="301"/>
      <point x="28" y="199" type="curve" smooth="yes"/>
      <point x="28" y="77"/>
      <point x="116" y="-14"/>
    </contour>
    <contour>
      <point x="111.0" y="200" type="curve" smooth="yes"/>
      <point x="111" y="267"/>
      <point x="150" y="327"/>
      <point x="218" y="363" type="curve"/>
      <point x="408" y="136" type="line"/>
      <point x="369" y="87"/>
      <point x="320" y="61"/>
      <point x="264" y="61" type="curve" smooth="yes"/>
      <point x="175" y="61"/>
      <point x="111" y="122"/>
    </contour>
  </outline>
</glyph>
<glyph name="comma" format="2">
  <advance height="1000" width="204"/>
  <unicode hex="002C"/>
  <outline>
    <contour>
      <point x="75" y="-150" type="line"/>
      <point x="118" y="-103"/>
      <point x="144" y="-33"/>
      <point x="144" y="37" type="curve" smooth="yes"/>
      <point x="144" y="119" type="line"/>
      <point x="60" y="119" type="line"/>
      <point x="60" y="33" type="line" smooth="yes"/>
      <point x="60" y="-29"/>
      <point x="46" y="-71"/>
      <point x="16" y="-119" type="curve"/>
    </contour>
  </outline>
</glyph>
<glyph name="hyphen" format="2">
  <advance height="1000" width="400"/>
  <unicode hex="002D"/>
  <unicode hex="00AD"/>
  <unicode hex="2010"/>
  <outline>
    <contour>
      <point x="48" y="250" type="line"/>
      <point x="352" y="250" type="line"/>
      <point x="352" y="322" type="line"/>
      <point x="48" y="322" type="line"/>
    </contour>
  </outline>
</glyph>
<glyph name="slash" format="2">
  <advance height="1000" width="443"/>
  <unicode hex="002F"/>
  <outline>
    <contour>
      <point x="16" y="0" type="line"/>
      <point x="96" y="0" type="line"/>
      <point x="427" y="740" type="line"/>
      <point x="347" y="740" type="line"/>
    </contour>
  </outline>
</glyph>
<glyph name="zero" format="2">
  <advance height="1000" width="642"/>
  <unicode hex="0030"/>
  <outline>
    <contour>
      <point x="320.0" y="-14" type="curve" smooth="yes"/>
      <point x="499.0" y="-14"/>
      <point x="590.0" y="134"/>
      <point x="590.0" y="369" type="curve" smooth="yes"/>
      <point x="590.0" y="604"/>
      <point x="500.0" y="754"/>
      <point x="321.0" y="754" type="curve" smooth="yes"/>
      <point x="143.0" y="754"/>
      <point x="52.0" y="604"/>
      <point x="52.0" y="368" type="curve" smooth="yes"/>
      <point x="52.0" y="134"/>
      <point x="142.0" y="-14"/>
    </contour>
    <contour>
      <point x="321.0" y="62" type="curve" smooth="yes"/>
      <point x="207.0" y="62"/>
      <point x="135.0" y="167"/>
      <point x="135.0" y="369" type="curve" smooth="yes"/>
      <point x="135.0" y="573"/>
      <point x="207.0" y="678"/>
      <point x="321.0" y="678" type="curve" smooth="yes"/>
      <point x="436.0" y="678"/>
      <point x="507.0" y="573"/>
      <point x="507.0" y="368" type="curve" smooth="yes"/>
      <point x="507.0" y="167"/>
      <point x="436.0" y="62"/>
    </contour>
  </outline>
</glyph>
<glyph name="two" format="2">
  <advance height="1000" width="554"/>
  <unicode hex="0032"/>
  <outline>
    <contour>
      <point x="53" y="0" type="line"/>
      <point x="490" y="0" type="line"/>
      <point x="490" y="84" type="line"/>
      <point x="124" y="84" type="line"/>
      <point x="233" y="167" type="line" smooth="yes"/>
      <point x="377" y="276"/>
      <point x="488" y="372"/>
      <point x="488" y="530" type="curve" smooth="yes"/>
      <point x="488" y="667"/>
      <point x="400" y="753"/>
      <point x="251" y="753" type="curve" smooth="yes"/>
      <point x="179" y="753"/>
      <point x="117" y="734"/>
      <point x="58" y="694" type="curve"/>
      <point x="58" y="607" type="line"/>
      <point x="114" y="655"/>
      <point x="175" y="677"/>
      <point x="250" y="677" type="curve" smooth="yes"/>
      <point x="341" y="677"/>
      <point x="405" y="617"/>
      <point x="405" y="521" type="curve" smooth="yes"/>
      <point x="405" y="399"/>
      <point x="303" y="317"/>
      <point x="161" y="204" type="curve" smooth="yes"/>
      <point x="53" y="118" type="line"/>
    </contour>
  </outline>
</glyph>
<glyph name="six" format="2">
  <advance height="1000" width="611"/>
  <unicode hex="0036"/>
  <outline>
    <contour>
      <point x="305.0" y="-14.0" type="curve" smooth="yes"/>
      <point x="437" y="-14"/>
      <point x="546" y="79"/>
      <point x="546.0" y="241" type="curve" smooth="yes"/>
      <point x="546.0" y="378.0"/>
      <point x="446.30603448275866" y="480.0"/>
      <point x="317" y="480" type="curve" smooth="yes"/>
      <point x="238.6875" y="480.0"/>
      <point x="177.66477272727272" y="445.0"/>
      <point x="138.0" y="383" type="curve"/>
      <point x="151.0" y="578"/>
      <point x="236.0" y="678"/>
      <point x="363.0" y="678" type="curve" smooth="yes"/>
      <point x="415" y="678"/>
      <point x="470.0" y="663"/>
      <point x="512.0" y="641" type="curve"/>
      <point x="512.0" y="724" type="line"/>
      <point x="466.0" y="742"/>
      <point x="410.0" y="754"/>
      <point x="358.0" y="754" type="curve" smooth="yes"/>
      <point x="169.77777777777777" y="754.0"/>
      <point x="50.0" y="598.0"/>
      <point x="50.0" y="304" type="curve" smooth="yes"/>
      <point x="50.0" y="86.0"/>
      <point x="160.8695652173913" y="-14.0"/>
    </contour>
    <contour>
      <point x="305.0" y="62.0" type="curve" smooth="yes"/>
      <point x="198.0" y="62"/>
      <point x="138.0" y="143"/>
      <point x="137.0" y="266" type="curve"/>
      <point x="151.25301204819277" y="345.0"/>
      <point x="223.53614457831327" y="404.0"/>
      <point x="306.0" y="404" type="curve" smooth="yes"/>
      <point x="405.1180124223602" y="404.0"/>
      <point x="464.0" y="333.0"/>
      <point x="464.0" y="237" type="curve" smooth="yes"/>
      <point x="464" y="134"/>
      <point x="395.0" y="62"/>
    </contour>
  </outline>
</glyph>
<glyph name="colon" format="2">
  <advance height="1000" width="208"/>
  <unicode hex="003A"/>
  <outline>
    <contour>
      <point x="60" y="341" type="line"/>
      <point x="148" y="341" type="line"/>
      <point x="148" y="429" type="line"/>
      <point x="60" y="429" type="line"/>
    </contour>
    <contour>
      <point x="60" y="0" type="line"/>
      <point x="148" y="0" type="line"/>
      <point x="148" y="88" type="line"/>
      <point x="60" y="88" type="line"/>
    </contour>
  </outline>
</glyph>
<glyph name="semicolon" format="2">
  <advance height="1000" width="205"/>
  <unicode hex="003B"/>
  <outline>
    <contour>
      <point x="75" y="-150" type="line"/>
      <point x="118" y="-103"/>
      <point x="145" y="-33"/>
      <point x="145" y="37" type="curve" smooth="yes"/>
      <point x="145" y="119" type="line"/>
      <point x="61" y="119" type="line"/>
      <point x="61" y="34" type="line" smooth="yes"/>
      <point x="61" y="-29"/>
      <point x="46" y="-71"/>
      <point x="16" y="-119" type="curve"/>
    </contour>
    <contour>
      <point x="57" y="341" type="line"/>
      <point x="145" y="341" type="line"/>
      <point x="145" y="429" type="line"/>
      <point x="57" y="429" type="line"/>
    </contour>
  </outline>
</glyph>
<glyph name="question" format="2">
  <advance height="1000" width="465"/>
  <unicode hex="003F"/>
  <outline>
    <contour>
      <point x="174.0" y="184.0" type="curve"/>
      <point x="250.0" y="184.0" type="line"/>
      <point x="250.0" y="251.0"/>
      <point x="278.0" y="315.0"/>
      <point x="333.0" y="374.0" type="curve" smooth="yes"/>
      <point x="391.0" y="435.0"/>
      <point x="425.0" y="490.0"/>
      <point x="425.0" y="568.0" type="curve" smooth="yes"/>
      <point x="425.0" y="690.0"/>
      <point x="341.0" y="754.0"/>
      <point x="216.0" y="754.0" type="curve" smooth="yes"/>
      <point x="152.0" y="754.0"/>
      <point x="92.0" y="737.304347826087"/>
      <point x="40.0" y="706.0" type="curve"/>
      <point x="40.0" y="624.0" type="line"/>
      <point x="89.0" y="661.0"/>
      <point x="144.0" y="680.0"/>
      <point x="204.0" y="680.0" type="curve" smooth="yes"/>
      <point x="289.0" y="680.0"/>
      <point x="343.0" y="639.0"/>
      <point x="343.0" y="562.0" type="curve" smooth="yes"/>
      <point x="343.0" y="504.0"/>
      <point x="317.0" y="465.0"/>
      <point x="272.0" y="417.0" type="curve" smooth="yes"/>
      <point x="207.0" y="350.0"/>
      <point x="174.0" y="271.0"/>
    </contour>
    <contour>
      <point x="170.0" y="0.0" type="line"/>
      <point x="258.0" y="0.0" type="line"/>
      <point x="258.0" y="88.0" type="line"/>
      <point x="170.0" y="88.0" type="line"/>
    </contour>
  </outline>
</glyph>
<glyph name="at" format="2">
  <advance height="1000" width="897"/>
  <unicode hex="0040"/>
  <outline>
    <contour>
      <point x="436" y="-72" type="curve" smooth="yes"/>
      <point x="498" y="-72"/>
      <point x="571" y="-56"/>
      <point x="635" y="-26" type="curve"/>
      <point x="635" y="46" type="line"/>
      <point x="573" y="17"/>
      <point x="500" y="-4"/>
      <point x="436" y="-4" type="curve" smooth="yes"/>
      <point x="246" y="-4"/>
      <point x="119" y="144"/>
      <point x="119" y="318" type="curve" smooth="yes"/>
      <point x="119" y="494"/>
      <point x="248" y="644"/>
      <point x="442" y="644" type="curve" smooth="yes"/>
      <point x="636" y="644"/>
      <point x="765" y="514"/>
      <point x="765" y="362" type="curve" smooth="yes"/>
      <point x="765" y="271"/>
      <point x="723" y="193"/>
      <point x="660" y="193" type="curve" smooth="yes"/>
      <point x="603" y="193"/>
      <point x="576" y="245"/>
      <point x="586" y="321" type="curve" smooth="yes"/>
      <point x="611" y="509" type="line"/>
      <point x="573" y="520"/>
      <point x="523" y="526"/>
      <point x="478" y="526" type="curve" smooth="yes"/>
      <point x="345" y="526"/>
      <point x="232" y="431"/>
      <point x="232" y="289" type="curve" smooth="yes"/>
      <point x="232" y="191"/>
      <point x="300" y="126"/>
      <point x="379" y="126" type="curve" smooth="yes"/>
      <point x="432" y="126"/>
      <point x="492" y="146"/>
      <point x="527" y="225" type="curve"/>
      <point x="547" y="166"/>
      <point x="595" y="126"/>
      <point x="657" y="126" type="curve" smooth="yes"/>
      <point x="754" y="126"/>
      <point x="837" y="221"/>
      <point x="837" y="363" type="curve" smooth="yes"/>
      <point x="837" y="572"/>
      <point x="655" y="712"/>
      <point x="442" y="712" type="curve" smooth="yes"/>
      <point x="229" y="712"/>
      <point x="47" y="554"/>
      <point x="47" y="317" type="curve" smooth="yes"/>
      <point x="47" y="84"/>
      <point x="226" y="-72"/>
    </contour>
    <contour>
      <point x="392" y="194" type="curve" smooth="yes"/>
      <point x="337" y="194.0"/>
      <point x="306.0" y="235.0"/>
      <point x="306" y="296" type="curve" smooth="yes"/>
      <point x="306" y="383"/>
      <point x="372" y="457"/>
      <point x="470" y="457" type="curve" smooth="yes"/>
      <point x="490" y="457"/>
      <point x="513" y="454"/>
      <point x="531" y="449" type="curve"/>
      <point x="523" y="389" type="line" smooth="yes"/>
      <point x="501" y="221"/>
      <point x="437" y="194"/>
    </contour>
  </outline>
</glyph>
<glyph name="B" format="2">
  <advance height="1000" width="587"/>
  <unicode hex="0042"/>
  <outline>
    <contour>
      <point x="76" y="0" type="line"/>
      <point x="281" y="0" type="line" smooth="yes"/>
      <point x="445" y="0"/>
      <point x="523" y="73"/>
      <point x="523" y="200" type="curve" smooth="yes"/>
      <point x="523" y="289"/>
      <point x="478" y="358"/>
      <point x="370" y="380" type="curve"/>
      <point x="458" y="405"/>
      <point x="497" y="474"/>
      <point x="497" y="556" type="curve" smooth="yes"/>
      <point x="497" y="670"/>
      <point x="414" y="740"/>
      <point x="263" y="740" type="curve" smooth="yes"/>
      <point x="76" y="740" type="line"/>
    </contour>
    <contour>
      <point x="158" y="413" type="line"/>
      <point x="158" y="664" type="line"/>
      <point x="263" y="664" type="line" smooth="yes"/>
      <point x="354" y="664"/>
      <point x="414" y="624"/>
      <point x="414" y="539" type="curve" smooth="yes"/>
      <point x="414" y="450"/>
      <point x="353" y="413"/>
      <point x="260" y="413" type="curve" smooth="yes"/>
    </contour>
    <contour>
      <point x="158" y="76" type="line"/>
      <point x="158" y="337" type="line"/>
      <point x="272" y="337" type="line" smooth="yes"/>
      <point x="378" y="337"/>
      <point x="439" y="298"/>
      <point x="439" y="208" type="curve" smooth="yes"/>
      <point x="439" y="119"/>
      <point x="381" y="76"/>
      <point x="283" y="76" type="curve" smooth="yes"/>
    </contour>
  </outline>
</glyph>
<glyph name="G" format="2">
  <advance height="1000" width="773"/>
  <unicode hex="0047"/>
  <outline>
    <contour>
      <point x="429.0" y="-14.0" type="curve" smooth="yes"/>
      <point x="523.0" y="-14.0"/>
      <point x="617.0" y="8.0"/>
      <point x="701.0" y="46.0" type="curve"/>
      <point x="701.0" y="375.0" type="line"/>
      <point x="458.0" y="375.0" type="line"/>
      <point x="458.0" y="299.0" type="line"/>
      <point x="619.0" y="299.0" type="line"/>
      <point x="619.0" y="96.0" type="line"/>
      <point x="561.0" y="73.0"/>
      <point x="493.0" y="62.0"/>
      <point x="425.0" y="62.0" type="curve" smooth="yes"/>
      <point x="249.0" y="62.0"/>
      <point x="132.0" y="182.0"/>
      <point x="132.0" y="370.0" type="curve" smooth="yes"/>
      <point x="132.0" y="557.0"/>
      <point x="251.0" y="678.0"/>
      <point x="434.0" y="678.0" type="curve" smooth="yes"/>
      <point x="522.0" y="678.0"/>
      <point x="598.0" y="660.0"/>
      <point x="669.0" y="623.0" type="curve"/>
      <point x="669.0" y="705.0" type="line"/>
      <point x="597.0" y="736.0"/>
      <point x="514.0" y="754.0"/>
      <point x="432.0" y="754.0" type="curve" smooth="yes"/>
      <point x="199.0" y="754.0"/>
      <point x="48.0" y="603.0"/>
      <point x="48.0" y="370.0" type="curve" smooth="yes"/>
      <point x="48.0" y="135.0"/>
      <point x="198.0" y="-14.0"/>
    </contour>
  </outline>
</glyph>
<glyph name="I" format="2">
  <advance height="1000" width="234"/>
  <unicode hex="0049"/>
  <outline>
    <contour>
      <point x="76" y="0" type="line"/>
      <point x="158" y="0" type="line"/>
      <point x="158" y="740" type="line"/>
      <point x="76" y="740" type="line"/>
    </contour>
  </outline>
</glyph>
<glyph name="L" format="2">
  <advance height="1000" width="516"/>
  <unicode hex="004C"/>
  <outline>
    <contour>
      <point x="76.0" y="0.0" type="line"/>
      <point x="492.0" y="0.0" type="line"/>
      <point x="492.0" y="76.0" type="line"/>
      <point x="158.0" y="76.0" type="line"/>
      <point x="158.0" y="740.0" type="line"/>
      <point x="76.0" y="740.0" type="line"/>
    </contour>
  </outline>
</glyph>
<glyph name="Q" format="2">
  <advance height="1000" width="858"/>
  <unicode hex="0051"/>
  <outline>
    <contour>
      <point x="748.0" y="-139.0" type="curve"/>
      <point x="770.0" y="-61.0" type="line"/>
      <point x="690.0" y="-50.0"/>
      <point x="627.0" y="-21.0"/>
      <point x="578.0" y="25.0" type="curve"/>
      <point x="475.0" y="3.0" type="line"/>
      <point x="553.0" y="-72.0"/>
      <point x="639.0" y="-117.0"/>
    </contour>
    <contour>
      <point x="429.0" y="-15.0" type="curve" smooth="yes"/>
      <point x="658.0" y="-15.0"/>
      <point x="810.0" y="139.0"/>
      <point x="810.0" y="371.0" type="curve" smooth="yes"/>
      <point x="810.0" y="601.0"/>
      <point x="658.0" y="755.0"/>
      <point x="429.0" y="755.0" type="curve" smooth="yes"/>
      <point x="200.0" y="755.0"/>
      <point x="48.0" y="601.0"/>
      <point x="48.0" y="371.0" type="curve" smooth="yes"/>
      <point x="48.0" y="139.0"/>
      <point x="200.0" y="-15.0"/>
    </contour>
    <contour>
      <point x="429.0" y="60.0" type="curve" smooth="yes"/>
      <point x="251.0" y="60.0"/>
      <point x="132.0" y="185.0"/>
      <point x="132.0" y="371.0" type="curve" smooth="yes"/>
      <point x="132.0" y="556.0"/>
      <point x="251.0" y="680.0"/>
      <point x="429.0" y="680.0" type="curve" smooth="yes"/>
      <point x="607.0" y="680.0"/>
      <point x="726.0" y="556.0"/>
      <point x="726.0" y="371.0" type="curve" smooth="yes"/>
      <point x="726.0" y="185.0"/>
      <point x="607.0" y="60.0"/>
    </contour>
  </outline>
</glyph>
<glyph name="R" format="2">
  <advance height="1000" width="600"/>
  <unicode hex="0052"/>
  <outline>
    <contour>
      <point x="76.0" y="0.0" type="line"/>
      <point x="158.0" y="0.0" type="line"/>
      <point x="158.0" y="329.0" type="line"/>
      <point x="253.0" y="329.0" type="line" smooth="yes"/>
      <point x="314.0" y="329.0"/>
      <point x="356" y="300"/>
      <point x="380.0" y="235.0" type="curve" smooth="yes"/>
      <point x="468.0" y="0.0" type="line"/>
      <point x="556.0" y="0.0" type="line"/>
      <point x="460.0" y="256.0" type="line" smooth="yes"/>
      <point x="437.0" y="311.0"/>
      <point x="404.0" y="347.0"/>
      <point x="356.0" y="361.0" type="curve"/>
      <point x="446.0" y="387.0"/>
      <point x="494.0" y="457.0"/>
      <point x="494.0" y="546.0" type="curve" smooth="yes"/>
      <point x="494.0" y="663.0"/>
      <point x="408.0" y="740.0"/>
      <point x="269.0" y="740.0" type="curve" smooth="yes"/>
      <point x="76.0" y="740.0" type="line"/>
    </contour>
    <contour>
      <point x="158.0" y="405.0" type="line"/>
      <point x="158.0" y="664.0" type="line"/>
      <point x="269.0" y="664.0" type="line" smooth="yes"/>
      <point x="355" y="664"/>
      <point x="410.0" y="615.0"/>
      <point x="410.0" y="536.0" type="curve" smooth="yes"/>
      <point x="410.0" y="454.0"/>
      <point x="358.0" y="405.0"/>
      <point x="272.0" y="405.0" type="curve" smooth="yes"/>
    </contour>
  </outline>
</glyph>
<glyph name="T" format="2">
  <advance height="1000" width="624"/>
  <unicode hex="0054"/>
  <outline>
    <contour>
      <point x="271" y="0" type="line"/>
      <point x="353" y="0" type="line"/>
      <point x="353" y="664" type="line"/>
      <point x="600" y="664" type="line"/>
      <point x="600" y="740" type="line"/>
      <point x="24" y="740" type="line"/>
      <point x="24" y="664" type="line"/>
      <point x="271" y="664" type="line"/>
    </contour>
  </outline>
</glyph>
<glyph name="V" format="2">
  <advance height="1000" width="712"/>
  <unicode hex="0056"/>
  <outline>
    <contour>
      <point x="317" y="0" type="line"/>
      <point x="395" y="0" type="line"/>
      <point x="692" y="740" type="line"/>
      <point x="608" y="740" type="line"/>
      <point x="360" y="108" type="line"/>
      <point x="112" y="740" type="line"/>
      <point x="20" y="740" type="line"/>
    </contour>
  </outline>
</glyph>
<glyph name="W" format="2">
  <advance height="1000" width="1072"/>
  <unicode hex="0057"/>
  <outline>
    <contour>
      <point x="252" y="0" type="line"/>
      <point x="342" y="0" type="line"/>
      <point x="536" y="629" type="line"/>
      <point x="730" y="0" type="line"/>
      <point x="820" y="0" type="line"/>
      <point x="1052" y="740" type="line"/>
      <point x="973" y="740" type="line"/>
      <point x="779" y="111" type="line"/>
      <point x="585" y="740" type="line"/>
      <point x="494" y="740" type="line"/>
      <point x="300" y="111" type="line"/>
      <point x="106" y="740" type="line"/>
      <point x="20" y="740" type="line"/>
    </contour>
  </outline>
</glyph>
<glyph name="Z" format="2">
  <advance height="1000" width="647"/>
  <unicode hex="005A"/>
  <outline>
    <contour>
      <point x="52" y="0" type="line"/>
      <point x="595" y="0" type="line"/>
      <point x="595" y="76" type="line"/>
      <point x="172" y="76" type="line"/>
      <point x="595" y="694" type="line"/>
      <point x="595" y="740" type="line"/>
      <point x="59" y="740" type="line"/>
      <point x="59" y="664" type="line"/>
      <point x="475" y="664" type="line"/>
      <point x="52" y="46" type="line"/>
    </contour>
  </outline>
</glyph>
<glyph name="bracketright" format="2">
  <advance height="1000" width="378"/>
  <unicode hex="005D"/>
  <outline>
    <contour>
      <point x="56" y="-149" type="line"/>
      <point x="286" y="-149" type="line"/>
      <point x="286" y="780" type="line"/>
      <point x="56" y="780" type="line"/>
      <point x="56" y="708" type="line"/>
      <point x="206" y="708" type="line"/>
      <point x="206" y="-77" type="line"/>
      <point x="56" y="-77" type="line"/>
    </contour>
  </outline>
</glyph>
<glyph name="a" format="2">
  <advance height="1000" width="491"/>
  <unicode hex="0061"/>
  <outline>
    <contour>
      <point x="200.0" y="-10.0" type="curve" smooth="yes"/>
      <point x="265.0" y="-10.0"/>
      <point x="320.0" y="15.0"/>
      <point x="353.0" y="67.0" type="curve"/>
      <point x="363.0" y="0.0" type="line"/>
      <point x="431.0" y="0.0" type="line"/>
      <point x="431.0" y="367.0" type="line" smooth="yes"/>
      <point x="431.0" y="480.0"/>
      <point x="364.0" y="540.0"/>
      <point x="240.0" y="540.0" type="curve" smooth="yes"/>
      <point x="181.0" y="540.0"/>
      <point x="120.0" y="523.0"/>
      <point x="63.0" y="496.0" type="curve"/>
      <point x="63.0" y="412.0" type="line"/>
      <point x="115.0" y="446.0"/>
      <point x="171.0" y="464.0"/>
      <point x="230.0" y="464.0" type="curve" smooth="yes"/>
      <point x="307" y="464"/>
      <point x="351.0" y="434.0"/>
      <point x="351.0" y="365.0" type="curve" smooth="yes"/>
      <point x="351.0" y="338.0" type="line"/>
      <point x="237.0" y="323.0" type="line" smooth="yes"/>
      <point x="109.0" y="306.0"/>
      <point x="40.0" y="239.0"/>
      <point x="40.0" y="145.0" type="curve" smooth="yes"/>
      <point x="40.0" y="53.0"/>
      <point x="102.0" y="-10.0"/>
    </contour>
    <contour>
      <point x="221.0" y="66.0" type="curve" smooth="yes"/>
      <point x="158.0" y="66.0"/>
      <point x="122.0" y="94.0"/>
      <point x="122.0" y="149.0" type="curve" smooth="yes"/>
      <point x="122.0" y="207.0"/>
      <point x="166" y="238"/>
      <point x="247.0" y="249.0" type="curve" smooth="yes"/>
      <point x="351.0" y="263.0" type="line"/>
      <point x="351.0" y="151.0" type="line"/>
      <point x="330.0" y="102.0"/>
      <point x="282.0" y="66.0"/>
    </contour>
  </outline>
</glyph>
<glyph name="b" format="2">
  <advance height="1000" width="562"/>
  <unicode hex="0062"/>
  <outline>
    <contour>
      <point x="255.0" y="-12.0" type="curve" smooth="yes"/>
      <point x="415" y="-12"/>
      <point x="518.0" y="100.0"/>
      <point x="518.0" y="274.0" type="curve" smooth="yes"/>
      <point x="518.0" y="436.0"/>
      <point x="429.0" y="540.0"/>
      <point x="292.0" y="540.0" type="curve" smooth="yes"/>
      <point x="239.0" y="540.0"/>
      <point x="181.0" y="517.0"/>
      <point x="144.0" y="479.0" type="curve"/>
      <point x="144.0" y="740.0" type="line"/>
      <point x="64.0" y="740.0" type="line"/>
      <point x="64.0" y="25.0" type="line"/>
      <point x="126.0" y="1.0"/>
      <point x="200.0" y="-12.0"/>
    </contour>
    <contour>
      <point x="259.0" y="64.0" type="curve" smooth="yes"/>
      <point x="220.0" y="64.0"/>
      <point x="180.0" y="71.0"/>
      <point x="144.0" y="84.0" type="curve"/>
      <point x="144.0" y="408.0" type="line"/>
      <point x="180.0" y="445.0"/>
      <point x="226.0" y="464.0"/>
      <point x="276.0" y="464.0" type="curve" smooth="yes"/>
      <point x="375.0" y="464.0"/>
      <point x="436.0" y="389.0"/>
      <point x="436.0" y="269.0" type="curve" smooth="yes"/>
      <point x="436.0" y="143.0"/>
      <point x="365" y="64"/>
    </contour>
  </outline>
</glyph>
<glyph name="i" format="2">
  <advance height="1000" width="208"/>
  <unicode hex="0069"/>
  <outline>
    <contour>
      <point x="64" y="0" type="line"/>
      <point x="144" y="0" type="line"/>
      <point x="144" y="529" type="line"/>
      <point x="64" y="529" type="line"/>
    </contour>
    <contour>
      <point x="64" y="658" type="line"/>
      <point x="144" y="658" type="line"/>
      <point x="144" y="740" type="line"/>
      <point x="64" y="740" type="line"/>
    </contour>
  </outline>
</glyph>
<glyph name="j" format="2">
  <advance height="1000" width="209"/>
  <unicode hex="006A"/>
  <outline>
    <contour>
      <point x="65.0" y="658.0" type="line"/>
      <point x="145.0" y="658.0" type="line"/>
      <point x="145.0" y="740.0" type="line"/>
      <point x="65.0" y="740.0" type="line"/>
    </contour>
    <contour>
      <point x="-50.0" y="-189.0" type="line"/>
      <point x="67.0" y="-189.0"/>
      <point x="145.0" y="-105.0"/>
      <point x="145.0" y="12.0" type="curve" smooth="yes"/>
      <point x="145.0" y="529.0" type="line"/>
      <point x="65.0" y="529.0" type="line"/>
      <point x="65.0" y="12.0" type="line" smooth="yes"/>
      <point x="65.0" y="-65.0"/>
      <point x="18.0" y="-113.0"/>
      <point x="-50.0" y="-113.0" type="curve" smooth="yes"/>
      <point x="-60.0" y="-113.0" type="line"/>
      <point x="-60.0" y="-189.0" type="line"/>
    </contour>
  </outline>
</glyph>
<glyph name="m" format="2">
  <advance height="1000" width="852"/>
  <unicode hex="006D"/>
  <outline>
    <contour>
      <point x="64.0" y="0.0" type="line"/>
      <point x="144.0" y="0.0" type="line"/>
      <point x="144.0" y="382.0" type="line"/>
      <point x="174.0" y="432.0"/>
      <point x="224.0" y="463.0"/>
      <point x="279.0" y="463.0" type="curve" smooth="yes"/>
      <point x="355.0" y="463.0"/>
      <point x="388.0" y="419.0"/>
      <point x="388.0" y="344.0" type="curve" smooth="yes"/>
      <point x="388.0" y="0.0" type="line"/>
      <point x="468.0" y="0.0" type="line"/>
      <point x="468.0" y="382.0" type="line"/>
      <point x="505.0" y="436.0"/>
      <point x="540.0" y="463.0"/>
      <point x="599.0" y="463.0" type="curve" smooth="yes"/>
      <point x="674.0" y="463.0"/>
      <point x="712.0" y="416.0"/>
      <point x="712.0" y="343.0" type="curve" smooth="yes"/>
      <point x="712.0" y="0.0" type="line"/>
      <point x="792.0" y="0.0" type="line"/>
      <point x="792.0" y="351.0" type="line" smooth="yes"/>
      <point x="792.0" y="465.0"/>
      <point x="739.0" y="539.0"/>
      <point x="620.0" y="539.0" type="curve" smooth="yes"/>
      <point x="562.0" y="539.0"/>
      <point x="496.0" y="509.0"/>
      <point x="457.0" y="439.0" type="curve"/>
      <point x="431.0" y="510.0"/>
      <point x="376.0" y="539.0"/>
      <point x="302.0" y="539.0" type="curve" smooth="yes"/>
      <point x="237.0" y="539.0"/>
      <point x="181.0" y="509.0"/>
      <point x="144.0" y="457.0" type="curve"/>
      <point x="144.0" y="529.0" type="line"/>
      <point x="64.0" y="529.0" type="line"/>
    </contour>
  </outline>
</glyph>
<glyph name="p" format="2">
  <advance height="1000" width="566"/>
  <unicode hex="0070"/>
  <outline>
    <contour>
      <point x="64" y="-189" type="line"/>
      <point x="144" y="-189" type="line"/>
      <point x="144" y="29" type="line"/>
      <point x="181" y="6"/>
      <point x="234" y="-10"/>
      <point x="276" y="-10" type="curve" smooth="yes"/>
      <point x="422" y="-10"/>
      <point x="522" y="105"/>
      <point x="522" y="276" type="curve" smooth="yes"/>
      <point x="522" y="434"/>
      <point x="437" y="539"/>
      <point x="304" y="539" type="curve" smooth="yes"/>
      <point x="241" y="539"/>
      <point x="186" y="519"/>
      <point x="144" y="478" type="curve"/>
      <point x="144" y="529" type="line"/>
      <point x="64" y="529" type="line"/>
    </contour>
    <contour>
      <point x="266" y="66" type="curve" smooth="yes"/>
      <point x="225" y="66"/>
      <point x="176" y="83"/>
      <point x="144" y="108" type="curve"/>
      <point x="144" y="413" type="line"/>
      <point x="179" y="445"/>
      <point x="227" y="463"/>
      <point x="273" y="463" type="curve" smooth="yes"/>
      <point x="376" y="463"/>
      <point x="441" y="390"/>
      <point x="441" y="270" type="curve" smooth="yes"/>
      <point x="441" y="142"/>
      <point x="368" y="66"/>
    </contour>
  </outline>
</glyph>
<glyph name="t" format="2">
  <advance height="1000" width="345"/>
  <unicode hex="0074"/>
  <outline>
    <contour>
      <point x="209.0" y="-8.0" type="curve" smooth="yes"/>
      <point x="251" y="-8.0"/>
      <point x="279.0" y="1.0"/>
      <point x="313.0" y="18.0" type="curve"/>
      <point x="313.0" y="93.0" type="line"/>
      <point x="288.0" y="76.0"/>
      <point x="262.0" y="68.0"/>
      <point x="239.0" y="68.0" type="curve" smooth="yes"/>
      <point x="199.0" y="68.0"/>
      <point x="176.0" y="96.0"/>
      <point x="176.0" y="134" type="curve" smooth="yes"/>
      <point x="176.0" y="453.0" type="line"/>
      <point x="305.0" y="453.0" type="line"/>
      <point x="305.0" y="529.0" type="line"/>
      <point x="176.0" y="529.0" type="line"/>
      <point x="176.0" y="694.0" type="line"/>
      <point x="96.0" y="694.0" type="line"/>
      <point x="96.0" y="529.0" type="line"/>
      <point x="16.0" y="529.0" type="line"/>
      <point x="16.0" y="453.0" type="line"/>
      <point x="96.0" y="453.0" type="line"/>
      <point x="96" y="128" type="line" smooth="yes"/>
      <point x="96.0" y="39.0"/>
      <point x="140" y="-8"/>
    </contour>
  </outline>
</glyph>
<glyph name="u" format="2">
  <advance height="1000" width="541"/>
  <unicode hex="0075"/>
  <outline>
    <contour>
      <point x="246" y="-10" type="curve" smooth="yes"/>
      <point x="308" y="-10"/>
      <point x="361" y="18"/>
      <point x="398" y="72" type="curve"/>
      <point x="405" y="1" type="line"/>
      <point x="477" y="1" type="line"/>
      <point x="477" y="529" type="line"/>
      <point x="397" y="529" type="line"/>
      <point x="397" y="150" type="line"/>
      <point x="371" y="101"/>
      <point x="323" y="66"/>
      <point x="261" y="66" type="curve" smooth="yes"/>
      <point x="188" y="66"/>
      <point x="140" y="110"/>
      <point x="140" y="193" type="curve" smooth="yes"/>
      <point x="140" y="529" type="line"/>
      <point x="60" y="529" type="line"/>
      <point x="60" y="185" type="line" smooth="yes"/>
      <point x="60" y="68"/>
      <point x="133" y="-10"/>
    </contour>
  </outline>
</glyph>
<glyph name="z" format="2">
  <advance height="1000" width="482"/>
  <unicode hex="007A"/>
  <outline>
    <contour>
      <point x="44.0" y="0.0" type="line"/>
      <point x="438.0" y="0.0" type="line"/>
      <point x="438.0" y="76.0" type="line"/>
      <point x="152.0" y="76.0" type="line"/>
      <point x="433.0" y="469.0" type="line"/>
      <point x="433.0" y="529.0" type="line"/>
      <point x="48.0" y="529.0" type="line"/>
      <point x="48.0" y="453.0" type="line"/>
      <point x="325.0" y="453.0" type="line"/>
      <point x="44.0" y="60.0" type="line"/>
    </contour>
  </outline>
</glyph>
<glyph name="exclamdown" format="2">
  <advance height="1000" width="230"/>
  <unicode hex="00A1"/>
  <outline>
    <contour>
      <point x="74" y="-189" type="line"/>
      <point x="156" y="-189" type="line"/>
      <point x="156" y="365" type="line"/>
      <point x="74" y="365" type="line"/>
    </contour>
    <contour>
      <point x="72" y="465" type="line"/>
      <point x="158" y="465" type="line"/>
      <point x="158" y="551" type="line"/>
      <point x="72" y="551" type="line"/>
    </contour>
  </outline>
</glyph>
<glyph name="oacute" format="2">
  <advance height="1000" width="614"/>
  <unicode hex="00F3"/>
  <outline>
    <contour>
      <point x="307.0" y="-12.0" type="curve" smooth="yes"/>
      <point x="464.0" y="-12.0"/>
      <point x="570.0" y="101.0"/>
      <point x="570.0" y="265.0" type="curve" smooth="yes"/>
      <point x="570.0" y="429.0"/>
      <point x="464.0" y="541.0"/>
      <point x="307.0" y="541.0" type="curve" smooth="yes"/>
      <point x="150.0" y="541.0"/>
      <point x="44.0" y="430.0"/>
      <point x="44.0" y="265.0" type="curve" smooth="yes"/>
      <point x="44.0" y="101.0"/>
      <point x="150.0" y="-12.0"/>
    </contour>
    <contour>
      <point x="307.0" y="63.0" type="curve" smooth="yes"/>
      <point x="199.0" y="63.0"/>
      <point x="126.0" y="143.0"/>
      <point x="126.0" y="265.0" type="curve" smooth="yes"/>
      <point x="126.0" y="386.0"/>
      <point x="199.0" y="466.0"/>
      <point x="307.0" y="466.0" type="curve" smooth="yes"/>
      <point x="416.0" y="466.0"/>
      <point x="488.0" y="386.0"/>
      <point x="488.0" y="265.0" type="curve" smooth="yes"/>
      <point x="488.0" y="143.0"/>
      <point x="416.0" y="63.0"/>
    </contour>
    <contour>
      <point x="343" y="596" type="line"/>
      <point x="461" y="748" type="line"/>
      <point x="371" y="748" type="line"/>
      <point x="261" y="596" type="line"/>
    </contour>
  </outline>
</glyph>
<glyph name="odieresis" format="2">
  <advance height="1000" width="614"/>
  <unicode hex="00F6"/>
  <outline>
    <contour>
      <point x="307.0" y="-12.0" type="curve" smooth="yes"/>
      <point x="464.0" y="-12.0"/>
      <point x="570.0" y="101.0"/>
      <point x="570.0" y="265.0" type="curve" smooth="yes"/>
      <point x="570.0" y="429.0"/>
      <point x="464.0" y="541.0"/>
      <point x="307.0" y="541.0" type="curve" smooth="yes"/>
      <point x="150.0" y="541.0"/>
      <point x="44.0" y="430.0"/>
      <point x="44.0" y="265.0" type="curve" smooth="yes"/>
      <point x="44.0" y="101.0"/>
      <point x="150.0" y="-12.0"/>
    </contour>
    <contour>
      <point x="307.0" y="63.0" type="curve" smooth="yes"/>
      <point x="199.0" y="63.0"/>
      <point x="126.0" y="143.0"/>
      <point x="126.0" y="265.0" type="curve" smooth="yes"/>
      <point x="126.0" y="386.0"/>
      <point x="199.0" y="466.0"/>
      <point x="307.0" y="466.0" type="curve" smooth="yes"/>
      <point x="416.0" y="466.0"/>
      <point x="488.0" y="386.0"/>
      <point x="488.0" y="265.0" type="curve" smooth="yes"/>
      <point x="488.0" y="143.0"/>
      <point x="416.0" y="63.0"/>
    </contour>
    <contour>
      <point x="184" y="596" type="line"/>
      <point x="266" y="596" type="line"/>
      <point x="266" y="678" type="line"/>
      <point x="184" y="678" type="line"/>
    </contour>
    <contour>
      <point x="352" y="596" type="line"/>
      <point x="434" y="596" type="line"/>
      <point x="434" y="678" type="line"/>
      <point x="352" y="678" type="line"/>
    </contour>
  </outline>
</glyph>
<glyph name="Epsilontonos" format="2">
  <advance height="1000" width="653"/>
  <unicode hex="0388"/>
  <outline>
    <contour>
      <point x="163.0" y="0.0" type="line"/>
      <point x="575.0" y="0.0" type="line"/>
      <point x="575.0" y="76.0" type="line"/>
      <point x="245.0" y="76.0" type="line"/>
      <point x="245.0" y="338.0" type="line"/>
      <point x="549.0" y="338.0" type="line"/>
      <point x="549.0" y="414.0" type="line"/>
      <point x="245.0" y="414.0" type="line"/>
      <point x="245.0" y="664.0" type="line"/>
      <point x="563.0" y="664.0" type="line"/>
      <point x="563.0" y="740.0" type="line"/>
      <point x="163.0" y="740.0" type="line"/>
    </contour>
    <contour>
      <point x="0" y="588" type="line"/>
      <point x="78" y="588" type="line"/>
      <point x="123" y="740" type="line"/>
      <point x="39" y="740" type="line"/>
    </contour>
  </outline>
</glyph>
<glyph name="Iotatonos" format="2">
  <advance height="1000" width="337"/>
  <unicode hex="038A"/>
  <outline>
    <contour>
      <point x="163" y="0" type="line"/>
      <point x="245" y="0" type="line"/>
      <point x="245" y="740" type="line"/>
      <point x="163" y="740" type="line"/>
    </contour>
    <contour>
      <point x="0" y="588" type="line"/>
      <point x="78" y="588" type="line"/>
      <point x="123" y="740" type="line"/>
      <point x="39" y="740" type="line"/>
    </contour>
  </outline>
</glyph>
<glyph name="Omicrontonos" format="2">
  <advance height="1000" width="872"/>
  <unicode hex="038C"/>
  <outline>
    <contour>
      <point x="443.0" y="-15.0" type="curve" smooth="yes"/>
      <point x="672.0" y="-15.0"/>
      <point x="824.0" y="139.0"/>
      <point x="824.0" y="371.0" type="curve" smooth="yes"/>
      <point x="824.0" y="601.0"/>
      <point x="672.0" y="755.0"/>
      <point x="443.0" y="755.0" type="curve" smooth="yes"/>
      <point x="214.0" y="755.0"/>
      <point x="62.0" y="601.0"/>
      <point x="62.0" y="371.0" type="curve" smooth="yes"/>
      <point x="62.0" y="139.0"/>
      <point x="214.0" y="-15.0"/>
    </contour>
    <contour>
      <point x="443.0" y="60.0" type="curve" smooth="yes"/>
      <point x="265.0" y="60.0"/>
      <point x="146.0" y="185.0"/>
      <point x="146.0" y="371.0" type="curve" smooth="yes"/>
      <point x="146.0" y="556.0"/>
      <point x="265.0" y="680.0"/>
      <point x="443.0" y="680.0" type="curve" smooth="yes"/>
      <point x="621.0" y="680.0"/>
      <point x="740.0" y="556.0"/>
      <point x="740.0" y="371.0" type="curve" smooth="yes"/>
      <point x="740.0" y="185.0"/>
      <point x="621.0" y="60.0"/>
    </contour>
    <contour>
      <point x="0" y="588" type="line"/>
      <point x="78" y="588" type="line"/>
      <point x="123" y="740" type="line"/>
      <point x="39" y="740" type="line"/>
    </contour>
  </outline>
</glyph>
<glyph name="Upsilontonos" format="2">
  <advance height="1000" width="772"/>
  <unicode hex="038E"/>
  <outline>
    <contour>
      <point x="409" y="0" type="line"/>
      <point x="491" y="0" type="line"/>
      <point x="491" y="322" type="line"/>
      <point x="760" y="740" type="line"/>
      <point x="669" y="740" type="line"/>
      <point x="452" y="396" type="line"/>
      <point x="236" y="740" type="line"/>
      <point x="139" y="740" type="line"/>
      <point x="409" y="321" type="line"/>
    </contour>
    <contour>
      <point x="0" y="588" type="line"/>
      <point x="78" y="588" type="line"/>
      <point x="123" y="740" type="line"/>
      <point x="39" y="740" type="line"/>
    </contour>
  </outline>
</glyph>
<glyph name="Omegatonos" format="2">
  <advance height="1000" width="816"/>
  <unicode hex="038F"/>
  <outline>
    <contour>
      <point x="98" y="0" type="line"/>
      <point x="384" y="0" type="line"/>
      <point x="384" y="187" type="line"/>
      <point x="251" y="212"/>
      <point x="163" y="309"/>
      <point x="163" y="431" type="curve" smooth="yes"/>
      <point x="163" y="578"/>
      <point x="265" y="676"/>
      <point x="417" y="676" type="curve" smooth="yes"/>
      <point x="569" y="676"/>
      <point x="671" y="578"/>
      <point x="671" y="430" type="curve" smooth="yes"/>
      <point x="671" y="307"/>
      <point x="581" y="211"/>
      <point x="447" y="187" type="curve"/>
      <point x="447" y="0" type="line"/>
      <point x="734" y="0" type="line"/>
      <point x="734" y="82" type="line"/>
      <point x="517" y="82" type="line"/>
      <point x="517" y="135" type="line"/>
      <point x="661" y="170"/>
      <point x="755" y="288"/>
      <point x="755" y="434" type="curve" smooth="yes"/>
      <point x="755" y="625"/>
      <point x="620" y="752"/>
      <point x="417" y="752" type="curve" smooth="yes"/>
      <point x="214" y="752"/>
      <point x="79" y="624"/>
      <point x="79" y="432" type="curve" smooth="yes"/>
      <point x="79" y="288"/>
      <point x="173" y="171"/>
      <point x="316" y="136" type="curve"/>
      <point x="316" y="82" type="line"/>
      <point x="98" y="82" type="line"/>
    </contour>
    <contour>
      <point x="0" y="588" type="line"/>
      <point x="78" y="588" type="line"/>
      <point x="123" y="740" type="line"/>
      <point x="39" y="740" type="line"/>
    </contour>
  </outline>
</glyph>
<glyph name="iotadieresistonos" format="2">
  <advance height="1000" width="257"/>
  <unicode hex="0390"/>
  <outline>
    <contour>
      <point x="157.0" y="-8.0" type="curve" smooth="yes"/>
      <point x="178.0" y="-8.0"/>
      <point x="203.0" y="-3.0"/>
      <point x="222.0" y="5.0" type="curve"/>
      <point x="222.0" y="77.0" type="line"/>
      <point x="213.0" y="71.0"/>
      <point x="203.0" y="68.0"/>
      <point x="190.0" y="68.0" type="curve" smooth="yes"/>
      <point x="161.0" y="68.0"/>
      <point x="151.0" y="86.0"/>
      <point x="151.0" y="113.0" type="curve" smooth="yes"/>
      <point x="151.0" y="529.0" type="line"/>
      <point x="71.0" y="529.0" type="line"/>
      <point x="71.0" y="95.0" type="line" smooth="yes"/>
      <point x="71.0" y="29.0"/>
      <point x="98.0" y="-8.0"/>
    </contour>
    <contour>
      <point x="-36" y="596" type="line"/>
      <point x="26" y="596" type="line"/>
      <point x="26" y="658" type="line"/>
      <point x="-36" y="658" type="line"/>
    </contour>
    <contour>
      <point x="62" y="596" type="line"/>
      <point x="142" y="596" type="line"/>
      <point x="186" y="748" type="line"/>
      <point x="103" y="748" type="line"/>
    </contour>
    <contour>
      <point x="190" y="596" type="line"/>
      <point x="252" y="596" type="line"/>
      <point x="252" y="658" type="line"/>
      <point x="190" y="658" type="line"/>
    </contour>
  </outline>
</glyph>
<glyph name="Gamma" format="2">
  <advance height="1000" width="496"/>
  <unicode hex="0393"/>
  <outline>
    <contour>
      <point x="76" y="0" type="line"/>
      <point x="158" y="0" type="line"/>
      <point x="158" y="664" type="line"/>
      <point x="476" y="664" type="line"/>
      <point x="476" y="740" type="line"/>
      <point x="76" y="740" type="line"/>
    </contour>
  </outline>
</glyph>
<glyph name="Delta" format="2">
  <advance height="1000" width="689"/>
  <unicode hex="0394"/>
  <unicode hex="2206"/>
  <outline>
    <contour>
      <point x="20" y="0" type="line"/>
      <point x="669" y="0" type="line" smooth="yes"/>
      <point x="386" y="740" type="line" smooth="yes"/>
      <point x="303" y="740" type="line"/>
    </contour>
    <contour>
      <point x="130" y="76" type="line"/>
      <point x="340" y="635" type="line"/>
      <point x="552" y="76" type="line"/>
    </contour>
  </outline>
</glyph>
<glyph name="Zeta" format="2">
  <advance height="1000" width="647"/>
  <unicode hex="0396"/>
  <outline>
    <contour>
      <point x="52" y="0" type="line"/>
      <point x="595" y="0" type="line"/>
      <point x="595" y="76" type="line"/>
      <point x="172" y="76" type="line"/>
      <point x="595" y="694" type="line"/>
      <point x="595" y="740" type="line"/>
      <point x="59" y="740" type="line"/>
      <point x="59" y="664" type="line"/>
      <point x="475" y="664" type="line"/>
      <point x="52" y="46" type="line"/>
    </contour>
  </outline>
</glyph>
<glyph name="Sigma" format="2">
  <advance height="1000" width="615"/>
  <unicode hex="03A3"/>
  <outline>
    <contour>
      <point x="66" y="0" type="line"/>
      <point x="563" y="0" type="line"/>
      <point x="563" y="81" type="line"/>
      <point x="169" y="81" type="line"/>
      <point x="406" y="381" type="line"/>
      <point x="171" y="664" type="line"/>
      <point x="545" y="664" type="line"/>
      <point x="545" y="740" type="line"/>
      <point x="64" y="740" type="line"/>
      <point x="64" y="667" type="line"/>
      <point x="302" y="377" type="line"/>
      <point x="66" y="73" type="line"/>
    </contour>
  </outline>
</glyph>
<glyph name="Tau" format="2">
  <advance height="1000" width="624"/>
  <unicode hex="03A4"/>
  <outline>
    <contour>
      <point x="271" y="0" type="line"/>
      <point x="353" y="0" type="line"/>
      <point x="353" y="664" type="line"/>
      <point x="600" y="664" type="line"/>
      <point x="600" y="740" type="line"/>
      <point x="24" y="740" type="line"/>
      <point x="24" y="664" type="line"/>
      <point x="271" y="664" type="line"/>
    </contour>
  </outline>
</glyph>
<glyph name="Upsilon" format="2">
  <advance height="1000" width="645"/>
  <unicode hex="03A5"/>
  <outline>
    <contour>
      <point x="282" y="0" type="line"/>
      <point x="364" y="0" type="line"/>
      <point x="364" y="322" type="line"/>
      <point x="633" y="740" type="line"/>
      <point x="542" y="740" type="line"/>
      <point x="325" y="396" type="line"/>
      <point x="109" y="740" type="line"/>
      <point x="12" y="740" type="line"/>
      <point x="282" y="321" type="line"/>
    </contour>
  </outline>
</glyph>
<glyph name="Phi" format="2">
  <advance height="1000" width="923"/>
  <unicode hex="03A6"/>
  <outline>
    <contour>
      <point x="420" y="-32" type="line"/>
      <point x="502" y="-32" type="line"/>
      <point x="502" y="773" type="line"/>
      <point x="420" y="773" type="line"/>
    </contour>
    <contour>
      <point x="55" y="375" type="curve" smooth="yes"/>
      <point x="55" y="188"/>
      <point x="209" y="64"/>
      <point x="443" y="64" type="curve" smooth="yes"/>
      <point x="480" y="64" type="line" smooth="yes"/>
      <point x="714" y="64"/>
      <point x="868" y="188"/>
      <point x="868" y="375" type="curve" smooth="yes"/>
      <point x="868" y="562"/>
      <point x="714" y="686"/>
      <point x="481" y="686" type="curve" smooth="yes"/>
      <point x="442" y="686" type="line" smooth="yes"/>
      <point x="209" y="686"/>
      <point x="55" y="562"/>
    </contour>
    <contour>
      <point x="785" y="375" type="curve" smooth="yes"/>
      <point x="785" y="238"/>
      <point x="667" y="139"/>
      <point x="481" y="139" type="curve" smooth="yes"/>
      <point x="442" y="139" type="line" smooth="yes"/>
      <point x="256" y="139"/>
      <point x="138" y="238"/>
      <point x="138" y="375" type="curve" smooth="yes"/>
      <point x="138" y="512"/>
      <point x="257" y="611"/>
      <point x="443" y="611" type="curve" smooth="yes"/>
      <point x="480" y="611" type="line" smooth="yes"/>
      <point x="667" y="611"/>
      <point x="785" y="512"/>
    </contour>
  </outline>
</glyph>
<glyph name="Psi" format="2">
  <advance height="1000" width="717"/>
  <unicode hex="03A8"/>
  <outline>
    <contour>
      <point x="357" y="138" type="curve" smooth="yes"/>
      <point x="537" y="138"/>
      <point x="655.0" y="251.0"/>
      <point x="655" y="415" type="curve" smooth="yes"/>
      <point x="655" y="740" type="line"/>
      <point x="573" y="740" type="line"/>
      <point x="573" y="414" type="line" smooth="yes"/>
      <point x="573.0" y="302.0"/>
      <point x="484" y="214"/>
      <point x="358" y="214" type="curve" smooth="yes"/>
      <point x="230" y="214"/>
      <point x="144.0" y="303.0"/>
      <point x="144" y="419" type="curve" smooth="yes"/>
      <point x="144" y="740" type="line"/>
      <point x="62" y="740" type="line"/>
      <point x="62" y="420" type="line" smooth="yes"/>
      <point x="62" y="253.0"/>
      <point x="175" y="138"/>
    </contour>
    <contour>
      <point x="319" y="0" type="line"/>
      <point x="397" y="0" type="line"/>
      <point x="397" y="721" type="line"/>
      <point x="319" y="721" type="line"/>
    </contour>
  </outline>
</glyph>
<glyph name="Iotadieresis" format="2">
  <advance height="1000" width="290"/>
  <unicode hex="03AA"/>
  <outline>
    <contour>
      <point x="83" y="0" type="line"/>
      <point x="165" y="0" type="line"/>
      <point x="165" y="740" type="line"/>
      <point x="83" y="740" type="line"/>
    </contour>
    <contour>
      <point x="-1" y="787" type="line"/>
      <point x="81" y="787" type="line"/>
      <point x="81" y="869" type="line"/>
      <point x="-1" y="869" type="line"/>
    </contour>
    <contour>
      <point x="167" y="787" type="line"/>
      <point x="249" y="787" type="line"/>
      <point x="249" y="869" type="line"/>
      <point x="167" y="869" type="line"/>
    </contour>
  </outline>
</glyph>
<glyph name="epsilontonos" format="2">
  <advance height="1000" width="448"/>
  <unicode hex="03AD"/>
  <outline>
    <contour>
      <point x="224.0" y="-12.0" type="curve" smooth="yes"/>
      <point x="290.0" y="-12.0"/>
      <point x="358.0" y="5.0"/>
      <point x="406.0" y="35.0" type="curve"/>
      <point x="406.0" y="115.0" type="line"/>
      <point x="360.0" y="84.0"/>
      <point x="296.0" y="64.0"/>
      <point x="236.0" y="64.0" type="curve" smooth="yes"/>
      <point x="156.0" y="64.0"/>
      <point x="107.0" y="90.0"/>
      <point x="107.0" y="146.0" type="curve" smooth="yes"/>
      <point x="107.0" y="208.0"/>
      <point x="169" y="233"/>
      <point x="264.0" y="233.0" type="curve" smooth="yes"/>
      <point x="329.0" y="233.0" type="line"/>
      <point x="329.0" y="309.0" type="line"/>
      <point x="263.0" y="309.0" type="line" smooth="yes"/>
      <point x="170" y="309"/>
      <point x="117.0" y="332.0"/>
      <point x="117.0" y="385.0" type="curve" smooth="yes"/>
      <point x="117.0" y="441.0"/>
      <point x="165.0" y="465.0"/>
      <point x="249.0" y="465.0" type="curve" smooth="yes"/>
      <point x="297.0" y="465.0"/>
      <point x="350.0" y="451.0"/>
      <point x="390.0" y="430.0" type="curve"/>
      <point x="390.0" y="507.0" type="line"/>
      <point x="342.0" y="529.0"/>
      <point x="285.0" y="541.0"/>
      <point x="236.0" y="541.0" type="curve" smooth="yes"/>
      <point x="112.0" y="541.0"/>
      <point x="35.0" y="488.0"/>
      <point x="35.0" y="395.0" type="curve" smooth="yes"/>
      <point x="35.0" y="331.0"/>
      <point x="84.0" y="286.0"/>
      <point x="157.0" y="270.0" type="curve"/>
      <point x="76.0" y="253.0"/>
      <point x="25.0" y="202.0"/>
      <point x="25.0" y="130.0" type="curve" smooth="yes"/>
      <point x="25.0" y="40.0"/>
      <point x="103.0" y="-12.0"/>
    </contour>
    <contour>
      <point x="185" y="596" type="line"/>
      <point x="263" y="596" type="line"/>
      <point x="308" y="748" type="line"/>
      <point x="224" y="748" type="line"/>
    </contour>
  </outline>
</glyph>
<glyph name="etatonos" format="2">
  <advance height="1000" width="554"/>
  <unicode hex="03AE"/>
  <outline>
    <contour>
      <point x="65" y="0" type="line"/>
      <point x="145" y="0" type="line"/>
      <point x="145" y="382" type="line"/>
      <point x="175" y="432"/>
      <point x="227" y="463"/>
      <point x="284" y="463" type="curve" smooth="yes"/>
      <point x="358" y="463"/>
      <point x="404" y="421"/>
      <point x="404.0" y="334.0" type="curve" smooth="yes"/>
      <point x="404" y="-23" type="line" smooth="yes"/>
      <point x="404.0" y="-69.0"/>
      <point x="409" y="-117"/>
      <point x="418" y="-150" type="curve"/>
      <point x="498" y="-150" type="line"/>
      <point x="488" y="-114"/>
      <point x="484.0" y="-66.0"/>
      <point x="484" y="-23" type="curve" smooth="yes"/>
      <point x="484.0" y="348.0" type="line" smooth="yes"/>
      <point x="484" y="466"/>
      <point x="420" y="539"/>
      <point x="305" y="539" type="curve" smooth="yes"/>
      <point x="242" y="539"/>
      <point x="182" y="509"/>
      <point x="145" y="457" type="curve"/>
      <point x="145" y="529" type="line"/>
      <point x="65" y="529" type="line"/>
    </contour>
    <contour>
      <point x="251" y="596" type="line"/>
      <point x="329" y="596" type="line"/>
      <point x="374" y="748" type="line"/>
      <point x="290" y="748" type="line"/>
    </contour>
  </outline>
</glyph>
<glyph name="iotatonos" format="2">
  <advance height="1000" width="234"/>
  <unicode hex="03AF"/>
  <outline>
    <contour>
      <point x="174.0" y="-8.0" type="curve" smooth="yes"/>
      <point x="195.0" y="-8.0"/>
      <point x="220.0" y="-3.0"/>
      <point x="239.0" y="5.0" type="curve"/>
      <point x="239.0" y="77.0" type="line"/>
      <point x="230.0" y="71.0"/>
      <point x="220.0" y="68.0"/>
      <point x="207.0" y="68.0" type="curve" smooth="yes"/>
      <point x="178.0" y="68.0"/>
      <point x="168.0" y="86.0"/>
      <point x="168.0" y="113.0" type="curve" smooth="yes"/>
      <point x="168.0" y="529.0" type="line"/>
      <point x="88.0" y="529.0" type="line"/>
      <point x="88.0" y="95.0" type="line" smooth="yes"/>
      <point x="88.0" y="29.0"/>
      <point x="115.0" y="-8.0"/>
    </contour>
    <contour>
      <point x="80" y="596" type="line"/>
      <point x="158" y="596" type="line"/>
      <point x="203" y="748" type="line"/>
      <point x="119" y="748" type="line"/>
    </contour>
  </outline>
</glyph>
<glyph name="upsilondieresistonos" format="2">
  <advance height="1000" width="498"/>
  <unicode hex="03B0"/>
  <outline>
    <contour>
      <point x="263.0" y="-11.0" type="curve" smooth="yes"/>
      <point x="397.1935483870967" y="-11.0"/>
      <point x="487.0" y="96.0"/>
      <point x="487.0" y="295.0" type="curve" smooth="yes"/>
      <point x="487.0" y="387.0"/>
      <point x="476.0" y="475.0"/>
      <point x="459.0" y="530.0" type="curve"/>
      <point x="379.0" y="530.0" type="line"/>
      <point x="397.0" y="470.0"/>
      <point x="407.0" y="379.0"/>
      <point x="407.0" y="295.0" type="curve" smooth="yes"/>
      <point x="407.0" y="157.0"/>
      <point x="357.5985401459854" y="61.0"/>
      <point x="263.0" y="61.0" type="curve" smooth="yes"/>
      <point x="181.63076923076926" y="61.0"/>
      <point x="140.0" y="115.00000000000001"/>
      <point x="140.0" y="227.0" type="curve" smooth="yes"/>
      <point x="140.0" y="530.0" type="line"/>
      <point x="60.0" y="530.0" type="line"/>
      <point x="60.0" y="224.0" type="line" smooth="yes"/>
      <point x="60.0" y="71.0"/>
      <point x="141.2" y="-11.0"/>
    </contour>
    <contour>
      <point x="134" y="596" type="line"/>
      <point x="196" y="596" type="line"/>
      <point x="196" y="658" type="line"/>
      <point x="134" y="658" type="line"/>
    </contour>
    <contour>
      <point x="232" y="596" type="line"/>
      <point x="312" y="596" type="line"/>
      <point x="356" y="748" type="line"/>
      <point x="273" y="748" type="line"/>
    </contour>
    <contour>
      <point x="360" y="596" type="line"/>
      <point x="422" y="596" type="line"/>
      <point x="422" y="658" type="line"/>
      <point x="360" y="658" type="line"/>
    </contour>
  </outline>
</glyph>
<glyph name="alpha" format="2">
  <advance height="1000" width="605"/>
  <unicode hex="03B1"/>
  <outline>
    <contour>
      <point x="269.0" y="-10.0" type="curve" smooth="yes"/>
      <point x="342.3793103448276" y="-10.0"/>
      <point x="395.48275862068965" y="18.0"/>
      <point x="437.0" y="92.0" type="curve"/>
      <point x="437.0" y="74.0" type="line" smooth="yes"/>
      <point x="437.0" y="25.0"/>
      <point x="470.0" y="-8.0"/>
      <point x="520.0" y="-8.0" type="curve" smooth="yes"/>
      <point x="541.0" y="-8.0"/>
      <point x="565.0" y="-2.0"/>
      <point x="585.0" y="6.0" type="curve"/>
      <point x="585.0" y="76.0" type="line"/>
      <point x="575.0" y="70.0"/>
      <point x="564.0" y="67.0"/>
      <point x="552.0" y="67.0" type="curve" smooth="yes"/>
      <point x="524.0" y="67.0"/>
      <point x="514.0" y="84.0"/>
      <point x="514.0" y="116.0" type="curve" smooth="yes"/>
      <point x="514.0" y="529.0" type="line"/>
      <point x="434.0" y="529.0" type="line"/>
      <point x="434.0" y="461.0" type="line"/>
      <point x="406.61579117243605" y="507.0"/>
      <point x="347" y="539.0"/>
      <point x="279" y="539.0" type="curve" smooth="yes"/>
      <point x="140" y="539.0"/>
      <point x="44.0" y="419.0"/>
      <point x="44.0" y="266.0" type="curve" smooth="yes"/>
      <point x="44.0" y="103.99999999999997"/>
      <point x="134.41095890410958" y="-10.0"/>
    </contour>
    <contour>
      <point x="284.0" y="68.0" type="curve" smooth="yes"/>
      <point x="193.0" y="68.0"/>
      <point x="126.0" y="148.0"/>
      <point x="126.0" y="268.0" type="curve" smooth="yes"/>
      <point x="126.0" y="383.0"/>
      <point x="192" y="467.0"/>
      <point x="288.0" y="467.0" type="curve" smooth="yes"/>
      <point x="376" y="467.0"/>
      <point x="434.0" y="394.0"/>
      <point x="434.0" y="303.0" type="curve" smooth="yes"/>
      <point x="434.0" y="232.0" type="line" smooth="yes"/>
      <point x="434.0" y="141.0"/>
      <point x="370.0" y="68.0"/>
    </contour>
  </outline>
</glyph>
<glyph name="delta" format="2">
  <advance height="1000" width="575"/>
  <unicode hex="03B4"/>
  <outline>
    <contour>
      <point x="286.0" y="-12.0" type="curve" smooth="yes"/>
      <point x="433.0" y="-12.0"/>
      <point x="531.0" y="89.0"/>
      <point x="531.0" y="241.0" type="curve" smooth="yes"/>
      <point x="531.0" y="398.0"/>
      <point x="425.0" y="465.0"/>
      <point x="332.0" y="496.0" type="curve" smooth="yes"/>
      <point x="314.0" y="502.0" type="line" smooth="yes"/>
      <point x="211.0" y="537.0"/>
      <point x="171.0" y="568.0"/>
      <point x="171.0" y="612.0" type="curve" smooth="yes"/>
      <point x="171.0" y="653.0"/>
      <point x="218.0" y="680.0"/>
      <point x="287.0" y="680.0" type="curve" smooth="yes"/>
      <point x="340.0" y="680.0"/>
      <point x="410.0" y="664.0"/>
      <point x="460.0" y="639.0" type="curve"/>
      <point x="460.0" y="718.0" type="line"/>
      <point x="411.0" y="738.0"/>
      <point x="342.0" y="752.0"/>
      <point x="287.0" y="752.0" type="curve" smooth="yes"/>
      <point x="169.0" y="752.0"/>
      <point x="90.0" y="694.0"/>
      <point x="90.0" y="606.0" type="curve" smooth="yes"/>
      <point x="90.0" y="524.0"/>
      <point x="140.0" y="476.0"/>
      <point x="269.0" y="432.0" type="curve" smooth="yes"/>
      <point x="287.0" y="426.0" type="line" smooth="yes"/>
      <point x="397.0" y="389.0"/>
      <point x="451.0" y="332.0"/>
      <point x="450.0" y="235.0" type="curve" smooth="yes"/>
      <point x="450.0" y="130.0"/>
      <point x="384.0" y="60.0"/>
      <point x="286.0" y="60.0" type="curve" smooth="yes"/>
      <point x="189.0" y="60.0"/>
      <point x="125.0" y="130.0"/>
      <point x="125.0" y="236.0" type="curve" smooth="yes"/>
      <point x="125.0" y="320.0"/>
      <point x="186.0" y="394.0"/>
      <point x="303.0" y="428.0" type="curve"/>
      <point x="268.0" y="480.0" type="line"/>
      <point x="134.0" y="440.0"/>
      <point x="44.0" y="353.0"/>
      <point x="44.0" y="235.0" type="curve" smooth="yes"/>
      <point x="44.0" y="87.0"/>
      <point x="141.0" y="-12.0"/>
    </contour>
  </outline>
</glyph>
<glyph name="zeta" format="2">
  <advance height="1000" width="472"/>
  <unicode hex="03B6"/>
  <outline>
    <contour>
      <point x="350.0" y="-150.0" type="curve"/>
      <point x="422.0" y="-150.0" type="line"/>
      <point x="428.0" y="-132.0"/>
      <point x="432.0" y="-106.0"/>
      <point x="432.0" y="-76.0" type="curve" smooth="yes"/>
      <point x="432.0" y="-9.0"/>
      <point x="397.0" y="39.0"/>
      <point x="309.0" y="53.0" type="curve" smooth="yes"/>
      <point x="283.0" y="57.0" type="line" smooth="yes"/>
      <point x="176.0" y="73.0"/>
      <point x="139.0" y="124.0"/>
      <point x="139.0" y="208.0" type="curve" smooth="yes"/>
      <point x="139.0" y="335.0"/>
      <point x="214.0" y="446.0"/>
      <point x="430.0" y="669.0" type="curve"/>
      <point x="430.0" y="740.0" type="line"/>
      <point x="48.0" y="740.0" type="line"/>
      <point x="48.0" y="660.0" type="line"/>
      <point x="323.0" y="660.0" type="line"/>
      <point x="111.0" y="448.0"/>
      <point x="57.0" y="332.0"/>
      <point x="57.0" y="203.0" type="curve" smooth="yes"/>
      <point x="57.0" y="80.0"/>
      <point x="123.0" y="3.0"/>
      <point x="258.0" y="-18.0" type="curve" smooth="yes"/>
      <point x="284.0" y="-22.0" type="line" smooth="yes"/>
      <point x="336.0" y="-30.0"/>
      <point x="361.0" y="-51.0"/>
      <point x="361.0" y="-90.0" type="curve" smooth="yes"/>
      <point x="361.0" y="-112.0"/>
      <point x="357.0" y="-134.0"/>
    </contour>
  </outline>
</glyph>
<glyph name="iota" format="2">
  <advance height="1000" width="243"/>
  <unicode hex="03B9"/>
  <outline>
    <contour>
      <point x="158.0" y="-8.0" type="curve" smooth="yes"/>
      <point x="179.0" y="-8.0"/>
      <point x="204.0" y="-3.0"/>
      <point x="223.0" y="5.0" type="curve"/>
      <point x="223.0" y="77.0" type="line"/>
      <point x="214.0" y="71.0"/>
      <point x="204.0" y="68.0"/>
      <point x="191.0" y="68.0" type="curve" smooth="yes"/>
      <point x="162.0" y="68.0"/>
      <point x="152.0" y="86.0"/>
      <point x="152.0" y="113.0" type="curve" smooth="yes"/>
      <point x="152.0" y="529.0" type="line"/>
      <point x="72.0" y="529.0" type="line"/>
      <point x="72.0" y="95.0" type="line" smooth="yes"/>
      <point x="72.0" y="29.0"/>
      <point x="99.0" y="-8.0"/>
    </contour>
  </outline>
</glyph>
<glyph name="kappa" format="2">
  <advance height="1000" width="520"/>
  <unicode hex="03BA"/>
  <outline>
    <contour>
      <point x="72.0" y="0.0" type="line"/>
      <point x="152.0" y="0.0" type="line"/>
      <point x="152.0" y="253.0" type="line"/>
      <point x="398.0" y="0.0" type="line"/>
      <point x="508.0" y="0.0" type="line"/>
      <point x="241.0" y="277.0" type="line"/>
      <point x="487.0" y="529.0" type="line"/>
      <point x="383.0" y="529.0" type="line"/>
      <point x="152.0" y="292.0" type="line"/>
      <point x="152.0" y="529.0" type="line"/>
      <point x="72.0" y="529.0" type="line"/>
    </contour>
  </outline>
</glyph>
<glyph name="nu" format="2">
  <advance height="1000" width="507"/>
  <unicode hex="03BD"/>
  <outline>
    <contour>
      <point x="219.0" y="0.0" type="line"/>
      <point x="316.0" y="0.0" type="line"/>
      <point x="441.0" y="332.0" type="line" smooth="yes"/>
      <point x="466.0" y="399.0"/>
      <point x="485.0" y="462.0"/>
      <point x="487.0" y="529.0" type="curve"/>
      <point x="407.0" y="529.0" type="line"/>
      <point x="406.0" y="473.0"/>
      <point x="391.0" y="414.0"/>
      <point x="368.0" y="350.0" type="curve" smooth="yes"/>
      <point x="269.0" y="85.0" type="line"/>
      <point x="106.0" y="529.0" type="line"/>
      <point x="20.0" y="529.0" type="line"/>
    </contour>
  </outline>
</glyph>
<glyph name="xi" format="2">
  <advance height="1000" width="463"/>
  <unicode hex="03BE"/>
  <outline>
    <contour>
      <point x="346" y="-150" type="curve"/>
      <point x="418" y="-150" type="line"/>
      <point x="424" y="-132"/>
      <point x="428" y="-106"/>
      <point x="428" y="-76" type="curve" smooth="yes"/>
      <point x="428" y="-9"/>
      <point x="393" y="39"/>
      <point x="305" y="53" type="curve" smooth="yes"/>
      <point x="279" y="57" type="line" smooth="yes"/>
      <point x="161.0" y="74.21167883211679"/>
      <point x="137.0" y="121.06569343065694"/>
      <point x="137" y="188" type="curve" smooth="yes"/>
      <point x="137.0" y="271.8095238095238"/>
      <point x="207.0" y="320.0"/>
      <point x="315" y="320" type="curve" smooth="yes"/>
      <point x="370" y="320" type="line"/>
      <point x="370" y="398" type="line"/>
      <point x="315" y="398" type="line" smooth="yes"/>
      <point x="220" y="398"/>
      <point x="170" y="436"/>
      <point x="170.0" y="502" type="curve" smooth="yes"/>
      <point x="170" y="574"/>
      <point x="241" y="631"/>
      <point x="426" y="660" type="curve"/>
      <point x="426" y="740" type="line"/>
      <point x="44" y="740" type="line"/>
      <point x="44" y="660" type="line"/>
      <point x="236" y="660" type="line"/>
      <point x="131" y="626"/>
      <point x="90" y="566"/>
      <point x="90.0" y="493" type="curve" smooth="yes"/>
      <point x="90" y="420"/>
      <point x="136" y="373"/>
      <point x="206" y="357" type="curve"/>
      <point x="113" y="330"/>
      <point x="57" y="263"/>
      <point x="57" y="176" type="curve" smooth="yes"/>
      <point x="57" y="72"/>
      <point x="119" y="3"/>
      <point x="254" y="-18" type="curve" smooth="yes"/>
      <point x="280" y="-22" type="line" smooth="yes"/>
      <point x="332.0" y="-30.0"/>
      <point x="357" y="-51"/>
      <point x="357" y="-90" type="curve" smooth="yes"/>
      <point x="357" y="-112"/>
      <point x="353" y="-134"/>
    </contour>
  </outline>
</glyph>
<glyph name="omicron" format="2">
  <advance height="1000" width="614"/>
  <unicode hex="03BF"/>
  <outline>
    <contour>
      <point x="307.0" y="-12.0" type="curve" smooth="yes"/>
      <point x="464.0" y="-12.0"/>
      <point x="570.0" y="101.0"/>
      <point x="570.0" y="265.0" type="curve" smooth="yes"/>
      <point x="570.0" y="429.0"/>
      <point x="464.0" y="541.0"/>
      <point x="307.0" y="541.0" type="curve" smooth="yes"/>
      <point x="150.0" y="541.0"/>
      <point x="44.0" y="430.0"/>
      <point x="44.0" y="265.0" type="curve" smooth="yes"/>
      <point x="44.0" y="101.0"/>
      <point x="150.0" y="-12.0"/>
    </contour>
    <contour>
      <point x="307.0" y="63.0" type="curve" smooth="yes"/>
      <point x="199.0" y="63.0"/>
      <point x="126.0" y="143.0"/>
      <point x="126.0" y="265.0" type="curve" smooth="yes"/>
      <point x="126.0" y="386.0"/>
      <point x="199.0" y="466.0"/>
      <point x="307.0" y="466.0" type="curve" smooth="yes"/>
      <point x="416.0" y="466.0"/>
      <point x="488.0" y="386.0"/>
      <point x="488.0" y="265.0" type="curve" smooth="yes"/>
      <point x="488.0" y="143.0"/>
      <point x="416.0" y="63.0"/>
    </contour>
  </outline>
</glyph>
<glyph name="pi" format="2">
  <advance height="1000" width="606"/>
  <unicode hex="03C0"/>
  <outline>
    <contour>
      <point x="118.0" y="0.0" type="line"/>
      <point x="198.0" y="0.0" type="line"/>
      <point x="198.0" y="453.0" type="line"/>
      <point x="408.0" y="453.0" type="line"/>
      <point x="408.0" y="0.0" type="line"/>
      <point x="488.0" y="0.0" type="line"/>
      <point x="488.0" y="453.0" type="line"/>
      <point x="566.0" y="453.0" type="line"/>
      <point x="566.0" y="529.0" type="line"/>
      <point x="40.0" y="529.0" type="line"/>
      <point x="40.0" y="453.0" type="line"/>
      <point x="118.0" y="453.0" type="line"/>
    </contour>
  </outline>
</glyph>
<glyph name="sigma1" format="2">
  <advance height="1000" width="491"/>
  <unicode hex="03C2"/>
  <outline>
    <contour>
      <point x="365.0" y="-107.0" type="curve"/>
      <point x="437.0" y="-107.0" type="line"/>
      <point x="443.0" y="-89.0"/>
      <point x="447.0" y="-63.0"/>
      <point x="447.0" y="-33.0" type="curve" smooth="yes"/>
      <point x="447.0" y="34.0"/>
      <point x="412.0" y="82.0"/>
      <point x="324.0" y="96.0" type="curve" smooth="yes"/>
      <point x="298.0" y="100.0" type="line" smooth="yes"/>
      <point x="182.0" y="118.0"/>
      <point x="126.0" y="192.0"/>
      <point x="126.0" y="280.0" type="curve" smooth="yes"/>
      <point x="126.0" y="385.0"/>
      <point x="197.0" y="465.0"/>
      <point x="303.0" y="465.0" type="curve" smooth="yes"/>
      <point x="352.0" y="465.0"/>
      <point x="393.0" y="455.0"/>
      <point x="438.0" y="432.0" type="curve"/>
      <point x="438.0" y="513.0" type="line"/>
      <point x="392.0" y="532.0"/>
      <point x="349.0" y="541.0"/>
      <point x="302.0" y="541.0" type="curve" smooth="yes"/>
      <point x="163.0" y="541.0"/>
      <point x="44.0" y="440.0"/>
      <point x="44.0" y="280.0" type="curve" smooth="yes"/>
      <point x="44.0" y="144.0"/>
      <point x="135.0" y="46.0"/>
      <point x="273.0" y="25.0" type="curve" smooth="yes"/>
      <point x="299.0" y="21.0" type="line" smooth="yes"/>
      <point x="351.0" y="13.0"/>
      <point x="376.0" y="-8.0"/>
      <point x="376.0" y="-47.0" type="curve" smooth="yes"/>
      <point x="376.0" y="-69.0"/>
      <point x="372.0" y="-91.0"/>
    </contour>
  </outline>
</glyph>
<glyph name="phi" format="2">
  <advance height="1000" width="694"/>
  <unicode hex="03C6"/>
  <outline>
    <contour>
      <point x="310.0" y="-150.0" type="line"/>
      <point x="386.0" y="-150.0" type="line"/>
      <point x="386.0" y="700.0" type="line"/>
      <point x="310.0" y="700.0" type="line"/>
    </contour>
    <contour>
      <point x="347.0" y="-12.0" type="curve" smooth="yes"/>
      <point x="538.0" y="-12.0"/>
      <point x="650.0" y="100.0"/>
      <point x="650.0" y="264.0" type="curve" smooth="yes"/>
      <point x="650.0" y="428.0"/>
      <point x="538.0" y="541.0"/>
      <point x="347.0" y="541.0" type="curve" smooth="yes"/>
      <point x="157.0" y="541.0"/>
      <point x="44.0" y="427.0"/>
      <point x="44.0" y="263.0" type="curve" smooth="yes"/>
      <point x="44.0" y="100.0"/>
      <point x="157.0" y="-12.0"/>
    </contour>
    <contour>
      <point x="347.0" y="63.0" type="curve" smooth="yes"/>
      <point x="209.0" y="63.0"/>
      <point x="126.0" y="140.0"/>
      <point x="126.0" y="264.0" type="curve" smooth="yes"/>
      <point x="126.0" y="388.0"/>
      <point x="209.0" y="466.0"/>
      <point x="347.0" y="466.0" type="curve" smooth="yes"/>
      <point x="486.0" y="466.0"/>
      <point x="568.0" y="388.0"/>
      <point x="568.0" y="264.0" type="curve" smooth="yes"/>
      <point x="569.0" y="140.0"/>
      <point x="486.0" y="63.0"/>
    </contour>
  </outline>
</glyph>
<glyph name="psi" format="2">
  <advance height="1000" width="632"/>
  <unicode hex="03C8"/>
  <outline>
    <contour>
      <point x="276.0" y="-150.0" type="line"/>
      <point x="352.0" y="-150.0" type="line"/>
      <point x="352.0" y="700.0" type="line"/>
      <point x="276.0" y="700.0" type="line"/>
    </contour>
    <contour>
      <point x="315.0" y="1.0" type="curve" smooth="yes"/>
      <point x="480.0" y="1.0"/>
      <point x="568.0" y="99.0"/>
      <point x="568.0" y="308.0" type="curve" smooth="yes"/>
      <point x="568.0" y="388.0"/>
      <point x="559.0" y="459.0"/>
      <point x="543.0" y="529.0" type="curve"/>
      <point x="464.0" y="529.0" type="line"/>
      <point x="480.0" y="460.0"/>
      <point x="488.0" y="388.0"/>
      <point x="488.0" y="305.0" type="curve" smooth="yes"/>
      <point x="488.0" y="135.0"/>
      <point x="421.0" y="71.0"/>
      <point x="318.0" y="71.0" type="curve" smooth="yes"/>
      <point x="209.0" y="71.0"/>
      <point x="144.0" y="138.0"/>
      <point x="144.0" y="262.0" type="curve" smooth="yes"/>
      <point x="144.0" y="529.0" type="line"/>
      <point x="64.0" y="529.0" type="line"/>
      <point x="64.0" y="258.0" type="line" smooth="yes"/>
      <point x="64.0" y="99.0"/>
      <point x="147.0" y="1.0"/>
    </contour>
  </outline>
</glyph>
<glyph name="iotadieresis" format="2">
  <advance height="1000" width="220"/>
  <unicode hex="03CA"/>
  <outline>
    <contour>
      <point x="149.0" y="-8.0" type="curve" smooth="yes"/>
      <point x="170.0" y="-8.0"/>
      <point x="195.0" y="-3.0"/>
      <point x="214.0" y="5.0" type="curve"/>
      <point x="214.0" y="77.0" type="line"/>
      <point x="205.0" y="71.0"/>
      <point x="195.0" y="68.0"/>
      <point x="182.0" y="68.0" type="curve" smooth="yes"/>
      <point x="153.0" y="68.0"/>
      <point x="143.0" y="86.0"/>
      <point x="143.0" y="113.0" type="curve" smooth="yes"/>
      <point x="143.0" y="529.0" type="line"/>
      <point x="63.0" y="529.0" type="line"/>
      <point x="63.0" y="95.0" type="line" smooth="yes"/>
      <point x="63.0" y="29.0"/>
      <point x="90.0" y="-8.0"/>
    </contour>
    <contour>
      <point x="-29" y="596" type="line"/>
      <point x="53" y="596" type="line"/>
      <point x="53" y="678" type="line"/>
      <point x="-29" y="678" type="line"/>
    </contour>
    <contour>
      <point x="139" y="596" type="line"/>
      <point x="221" y="596" type="line"/>
      <point x="221" y="678" type="line"/>
      <point x="139" y="678" type="line"/>
    </contour>
  </outline>
</glyph>
<glyph name="upsilontonos" format="2">
  <advance height="1000" width="568"/>
  <unicode hex="03CD"/>
  <outline>
    <contour>
      <point x="268.0" y="-12.0" type="curve" smooth="yes"/>
      <point x="402.1935483870967" y="-12.0"/>
      <point x="492.0" y="95.0"/>
      <point x="492.0" y="294.0" type="curve" smooth="yes"/>
      <point x="492.0" y="386.0"/>
      <point x="481.0" y="474.0"/>
      <point x="464.0" y="529.0" type="curve"/>
      <point x="384.0" y="529.0" type="line"/>
      <point x="402.0" y="469.0"/>
      <point x="412.0" y="378.0"/>
      <point x="412.0" y="294.0" type="curve" smooth="yes"/>
      <point x="412.0" y="156.0"/>
      <point x="362.5985401459854" y="60.0"/>
      <point x="268.0" y="60.0" type="curve" smooth="yes"/>
      <point x="186.63076923076926" y="60.0"/>
      <point x="145.0" y="114.00000000000001"/>
      <point x="145.0" y="226.0" type="curve" smooth="yes"/>
      <point x="145.0" y="529.0" type="line"/>
      <point x="65.0" y="529.0" type="line"/>
      <point x="65.0" y="223.0" type="line" smooth="yes"/>
      <point x="65.0" y="70.0"/>
      <point x="146.2" y="-12.0"/>
    </contour>
    <contour>
      <point x="235" y="596" type="line"/>
      <point x="313" y="596" type="line"/>
      <point x="358" y="748" type="line"/>
      <point x="274" y="748" type="line"/>
    </contour>
  </outline>
</glyph>
<glyph name="omegatonos" format="2">
  <advance height="1000" width="766"/>
  <unicode hex="03CE"/>
  <outline>
    <contour>
      <point x="223.0" y="-3.0" type="curve" smooth="yes"/>
      <point x="309.0" y="-3.0"/>
      <point x="363.0" y="50.0"/>
      <point x="385.0" y="130.0" type="curve"/>
      <point x="411.0" y="48.0"/>
      <point x="469.0" y="-3.0"/>
      <point x="549.0" y="-3.0" type="curve" smooth="yes"/>
      <point x="671.0" y="-3.0"/>
      <point x="738.0" y="80.0"/>
      <point x="738.0" y="251.0" type="curve" smooth="yes"/>
      <point x="738.0" y="353.0"/>
      <point x="721.0" y="450.0"/>
      <point x="688.0" y="529.0" type="curve"/>
      <point x="603.0" y="529.0" type="line"/>
      <point x="636.0" y="456.0"/>
      <point x="656.0" y="360.0"/>
      <point x="656.0" y="261.0" type="curve" smooth="yes"/>
      <point x="656.0" y="133.0"/>
      <point x="617.0" y="73.0"/>
      <point x="537.0" y="73.0" type="curve" smooth="yes"/>
      <point x="467.0" y="73.0"/>
      <point x="423.0" y="139.0"/>
      <point x="423.0" y="258.0" type="curve" smooth="yes"/>
      <point x="423.0" y="529.0" type="line"/>
      <point x="343.0" y="529.0" type="line"/>
      <point x="343.0" y="256.0" type="line" smooth="yes"/>
      <point x="343.0" y="133.0"/>
      <point x="296.0" y="73.0"/>
      <point x="227.0" y="73.0" type="curve" smooth="yes"/>
      <point x="149.0" y="73.0"/>
      <point x="110.0" y="134.0"/>
      <point x="110.0" y="263.0" type="curve" smooth="yes"/>
      <point x="110.0" y="359.0"/>
      <point x="130.0" y="452.0"/>
      <point x="163.0" y="529.0" type="curve"/>
      <point x="79.0" y="529.0" type="line"/>
      <point x="47.0" y="444.0"/>
      <point x="28.0" y="348.0"/>
      <point x="28.0" y="251.0" type="curve" smooth="yes"/>
      <point x="28.0" y="83.0"/>
      <point x="98.0" y="-3.0"/>
    </contour>
    <contour>
      <point x="378" y="596" type="line"/>
      <point x="456" y="596" type="line"/>
      <point x="501" y="748" type="line"/>
      <point x="417" y="748" type="line"/>
    </contour>
  </outline>
</glyph>
<glyph name="Iocyrillic" format="2">
  <advance height="1000" width="560"/>
  <unicode hex="0401"/>
  <outline>
    <contour>
      <point x="76.0" y="0.0" type="line"/>
      <point x="488.0" y="0.0" type="line"/>
      <point x="488.0" y="76.0" type="line"/>
      <point x="158.0" y="76.0" type="line"/>
      <point x="158.0" y="338.0" type="line"/>
      <point x="462.0" y="338.0" type="line"/>
      <point x="462.0" y="414.0" type="line"/>
      <point x="158.0" y="414.0" type="line"/>
      <point x="158.0" y="664.0" type="line"/>
      <point x="476.0" y="664.0" type="line"/>
      <point x="476.0" y="740.0" type="line"/>
      <point x="76.0" y="740.0" type="line"/>
    </contour>
    <contour>
      <point x="155" y="787" type="line"/>
      <point x="237" y="787" type="line"/>
      <point x="237" y="869" type="line"/>
      <point x="155" y="869" type="line"/>
    </contour>
    <contour>
      <point x="323" y="787" type="line"/>
      <point x="405" y="787" type="line"/>
      <point x="405" y="869" type="line"/>
      <point x="323" y="869" type="line"/>
    </contour>
  </outline>
</glyph>
<glyph name="Ecyrillic" format="2">
  <advance height="1000" width="748"/>
  <unicode hex="0404"/>
  <outline>
    <contour>
      <point x="688" y="136" type="line"/>
      <point x="613" y="86"/>
      <point x="539" y="62"/>
      <point x="448" y="62" type="curve" smooth="yes"/>
      <point x="261" y="62"/>
      <point x="132" y="181"/>
      <point x="132" y="370" type="curve" smooth="yes"/>
      <point x="132" y="557"/>
      <point x="257" y="678"/>
      <point x="448" y="678" type="curve" smooth="yes"/>
      <point x="536" y="678"/>
      <point x="608" y="658"/>
      <point x="680" y="613" type="curve"/>
      <point x="680" y="699" type="line"/>
      <point x="607" y="736"/>
      <point x="535" y="754"/>
      <point x="448" y="754" type="curve" smooth="yes"/>
      <point x="203" y="754"/>
      <point x="48" y="604"/>
      <point x="48" y="370" type="curve" smooth="yes"/>
      <point x="48" y="135"/>
      <point x="206" y="-14"/>
      <point x="448" y="-14" type="curve" smooth="yes"/>
      <point x="537" y="-14"/>
      <point x="613" y="5"/>
      <point x="688" y="50" type="curve"/>
    </contour>
    <contour>
      <point x="548" y="414" type="line"/>
      <point x="90" y="414" type="line"/>
      <point x="90" y="338" type="line"/>
      <point x="548" y="338" type="line"/>
    </contour>
  </outline>
</glyph>
<glyph name="Njecyrillic" format="2">
  <advance height="1000" width="1092"/>
  <unicode hex="040A"/>
  <outline>
    <contour>
      <point x="561" y="0" type="line"/>
      <point x="778" y="0" type="line" smooth="yes"/>
      <point x="937" y="0"/>
      <point x="1044" y="80"/>
      <point x="1044" y="234" type="curve" smooth="yes"/>
      <point x="1044" y="388"/>
      <point x="938" y="466"/>
      <point x="779" y="466" type="curve" smooth="yes"/>
      <point x="643" y="466" type="line"/>
      <point x="643" y="740" type="line"/>
      <point x="561" y="740" type="line"/>
      <point x="561" y="414" type="line"/>
      <point x="158" y="414" type="line"/>
      <point x="158" y="740" type="line"/>
      <point x="76" y="740" type="line"/>
      <point x="76" y="0" type="line"/>
      <point x="158" y="0" type="line"/>
      <point x="158" y="338" type="line"/>
      <point x="561" y="338" type="line"/>
    </contour>
    <contour>
      <point x="643" y="390" type="line"/>
      <point x="782" y="390" type="line" smooth="yes"/>
      <point x="899" y="390"/>
      <point x="960" y="326"/>
      <point x="960" y="233" type="curve" smooth="yes"/>
      <point x="960" y="140"/>
      <point x="899" y="76"/>
      <point x="782" y="76" type="curve" smooth="yes"/>
      <point x="643" y="76" type="line"/>
    </contour>
  </outline>
</glyph>
<glyph name="Tshecyrillic" format="2">
  <advance height="1000" width="851"/>
  <unicode hex="040B"/>
  <outline>
    <contour>
      <point x="606" y="740" type="line"/>
      <point x="20" y="740" type="line"/>
      <point x="20" y="664" type="line"/>
      <point x="267" y="664" type="line"/>
      <point x="267" y="0" type="line"/>
      <point x="349" y="0" type="line"/>
      <point x="349" y="334" type="line"/>
      <point x="386" y="364"/>
      <point x="452" y="389"/>
      <point x="537" y="389" type="curve" smooth="yes"/>
      <point x="660" y="389"/>
      <point x="709" y="345"/>
      <point x="709" y="227" type="curve" smooth="yes"/>
      <point x="709" y="0" type="line"/>
      <point x="791" y="0" type="line"/>
      <point x="791" y="235" type="line" smooth="yes"/>
      <point x="791" y="397"/>
      <point x="715" y="465"/>
      <point x="555" y="465" type="curve" smooth="yes"/>
      <point x="468" y="465"/>
      <point x="394" y="442"/>
      <point x="349" y="410" type="curve"/>
      <point x="349" y="664" type="line"/>
      <point x="606" y="664" type="line"/>
    </contour>
  </outline>
</glyph>
<glyph name="Kjecyrillic" format="2">
  <advance height="1000" width="634"/>
  <unicode hex="040C"/>
  <outline>
    <contour>
      <point x="76" y="0" type="line"/>
      <point x="158" y="0" type="line"/>
      <point x="158" y="346" type="line"/>
      <point x="238" y="346" type="line"/>
      <point x="505" y="0" type="line"/>
      <point x="610" y="0" type="line"/>
      <point x="307" y="388" type="line"/>
      <point x="592" y="740" type="line"/>
      <point x="495" y="740" type="line"/>
      <point x="238" y="420" type="line"/>
      <point x="158" y="420" type="line"/>
      <point x="158" y="740" type="line"/>
      <point x="76" y="740" type="line"/>
    </contour>
    <contour>
      <point x="333" y="787" type="line"/>
      <point x="451" y="939" type="line"/>
      <point x="361" y="939" type="line"/>
      <point x="251" y="787" type="line"/>
    </contour>
  </outline>
</glyph>
<glyph name="Dzhecyrillic" format="2">
  <advance height="1000" width="724"/>
  <unicode hex="040F"/>
  <outline>
    <contour>
      <point x="76" y="0" type="line"/>
      <point x="322" y="0" type="line"/>
      <point x="322" y="-139" type="line"/>
      <point x="402" y="-139" type="line"/>
      <point x="402" y="0" type="line"/>
      <point x="648" y="0" type="line"/>
      <point x="648" y="740" type="line"/>
      <point x="566" y="740" type="line"/>
      <point x="566" y="76" type="line"/>
      <point x="158" y="76" type="line"/>
      <point x="158" y="740" type="line"/>
      <point x="76" y="740" type="line"/>
    </contour>
  </outline>
</glyph>
<glyph name="Becyrillic" format="2">
  <advance height="1000" width="602"/>
  <unicode hex="0411"/>
  <outline>
    <contour>
      <point x="76" y="0" type="line"/>
      <point x="298" y="0" type="line" smooth="yes"/>
      <point x="449" y="0"/>
      <point x="550" y="76"/>
      <point x="550" y="221" type="curve" smooth="yes"/>
      <point x="550" y="367"/>
      <point x="450" y="441"/>
      <point x="299" y="441" type="curve" smooth="yes"/>
      <point x="158" y="441" type="line"/>
      <point x="158" y="664" type="line"/>
      <point x="493" y="664" type="line"/>
      <point x="493" y="740" type="line"/>
      <point x="76" y="740" type="line"/>
    </contour>
    <contour>
      <point x="158" y="365" type="line"/>
      <point x="302" y="365" type="line" smooth="yes"/>
      <point x="410" y="365"/>
      <point x="466" y="306"/>
      <point x="466" y="221" type="curve" smooth="yes"/>
      <point x="466" y="135"/>
      <point x="410" y="76"/>
      <point x="302" y="76" type="curve" smooth="yes"/>
      <point x="158" y="76" type="line"/>
    </contour>
  </outline>
</glyph>
<glyph name="Gecyrillic" format="2">
  <advance height="1000" width="506"/>
  <unicode hex="0413"/>
  <outline>
    <contour>
      <point x="76" y="0" type="line"/>
      <point x="158" y="0" type="line"/>
      <point x="158" y="664" type="line"/>
      <point x="486" y="664" type="line"/>
      <point x="486" y="740" type="line"/>
      <point x="76" y="740" type="line"/>
    </contour>
  </outline>
</glyph>
<glyph name="Zhecyrillic" format="2">
  <advance height="1000" width="974"/>
  <unicode hex="0416"/>
  <outline>
    <contour>
      <point x="446" y="0" type="line"/>
      <point x="528" y="0" type="line"/>
      <point x="528" y="347" type="line"/>
      <point x="601" y="347" type="line"/>
      <point x="846" y="0" type="line"/>
      <point x="950" y="0" type="line"/>
      <point x="668" y="388" type="line"/>
      <point x="932" y="740" type="line"/>
      <point x="836" y="740" type="line"/>
      <point x="601" y="419" type="line"/>
      <point x="528" y="419" type="line"/>
      <point x="528" y="740" type="line"/>
      <point x="446" y="740" type="line"/>
      <point x="446" y="419" type="line"/>
      <point x="373" y="419" type="line"/>
      <point x="139" y="740" type="line"/>
      <point x="42" y="740" type="line"/>
      <point x="306" y="387" type="line"/>
      <point x="24" y="0" type="line"/>
      <point x="127" y="0" type="line"/>
      <point x="373" y="347" type="line"/>
      <point x="446" y="347" type="line"/>
    </contour>
  </outline>
</glyph>
<glyph name="Zecyrillic" format="2">
  <advance height="1000" width="599"/>
  <unicode hex="0417"/>
  <outline>
    <contour>
      <point x="60" y="130" type="curve"/>
      <point x="60" y="44" type="line"/>
      <point x="104" y="16"/>
      <point x="184" y="-14"/>
      <point x="270" y="-14" type="curve" smooth="yes"/>
      <point x="437" y="-14"/>
      <point x="529" y="73"/>
      <point x="529" y="197" type="curve" smooth="yes"/>
      <point x="529" y="287"/>
      <point x="478" y="357"/>
      <point x="380" y="381" type="curve"/>
      <point x="460" y="405"/>
      <point x="514" y="468"/>
      <point x="514" y="554" type="curve" smooth="yes"/>
      <point x="514" y="674"/>
      <point x="426" y="754"/>
      <point x="270" y="754" type="curve" smooth="yes"/>
      <point x="194" y="754"/>
      <point x="116" y="729"/>
      <point x="68" y="703" type="curve"/>
      <point x="68" y="617" type="line"/>
      <point x="124" y="653"/>
      <point x="192" y="678"/>
      <point x="270" y="678" type="curve" smooth="yes"/>
      <point x="374" y="678"/>
      <point x="430" y="629"/>
      <point x="430" y="547" type="curve" smooth="yes"/>
      <point x="430" y="467"/>
      <point x="376" y="414"/>
      <point x="274" y="414" type="curve" smooth="yes"/>
      <point x="184" y="414" type="line"/>
      <point x="184" y="338" type="line"/>
      <point x="282" y="338" type="line" smooth="yes"/>
      <point x="386" y="338"/>
      <point x="445" y="287"/>
      <point x="445" y="205" type="curve" smooth="yes"/>
      <point x="445" y="115"/>
      <point x="383" y="62"/>
      <point x="261" y="62" type="curve" smooth="yes"/>
      <point x="187" y="62"/>
      <point x="106" y="96"/>
    </contour>
  </outline>
</glyph>
<glyph name="Kacyrillic" format="2">
  <advance height="1000" width="634"/>
  <unicode hex="041A"/>
  <outline>
    <contour>
      <point x="76" y="0" type="line"/>
      <point x="158" y="0" type="line"/>
      <point x="158" y="346" type="line"/>
      <point x="238" y="346" type="line"/>
      <point x="505" y="0" type="line"/>
      <point x="610" y="0" type="line"/>
      <point x="307" y="388" type="line"/>
      <point x="592" y="740" type="line"/>
      <point x="495" y="740" type="line"/>
      <point x="238" y="420" type="line"/>
      <point x="158" y="420" type="line"/>
      <point x="158" y="740" type="line"/>
      <point x="76" y="740" type="line"/>
    </contour>
  </outline>
</glyph>
<glyph name="Escyrillic" format="2">
  <advance height="1000" width="740"/>
  <unicode hex="0421"/>
  <outline>
    <contour>
      <point x="443.0" y="-14.0" type="curve" smooth="yes"/>
      <point x="531.0" y="-14.0"/>
      <point x="606.0" y="5.0"/>
      <point x="680.0" y="50.0" type="curve"/>
      <point x="680.0" y="136.0" type="line"/>
      <point x="606.0" y="86.0"/>
      <point x="533.0" y="62.0"/>
      <point x="443.0" y="62.0" type="curve" smooth="yes"/>
      <point x="259.0" y="62.0"/>
      <point x="132.0" y="181.0"/>
      <point x="132.0" y="370.0" type="curve" smooth="yes"/>
      <point x="132.0" y="557.0"/>
      <point x="255.0" y="678.0"/>
      <point x="443.0" y="678.0" type="curve" smooth="yes"/>
      <point x="530.0" y="678.0"/>
      <point x="601.0" y="658.0"/>
      <point x="672.0" y="613.0" type="curve"/>
      <point x="672.0" y="699.0" type="line"/>
      <point x="600.0" y="736.0"/>
      <point x="529.0" y="754.0"/>
      <point x="443.0" y="754.0" type="curve" smooth="yes"/>
      <point x="201.0" y="754.0"/>
      <point x="48.0" y="604.0"/>
      <point x="48.0" y="370.0" type="curve" smooth="yes"/>
      <point x="48.0" y="135.0"/>
      <point x="204.0" y="-14.0"/>
    </contour>
  </outline>
</glyph>
<glyph name="Tecyrillic" format="2">
  <advance height="1000" width="616"/>
  <unicode hex="0422"/>
  <outline>
    <contour>
      <point x="271" y="0" type="line"/>
      <point x="353" y="0" type="line"/>
      <point x="353" y="664" type="line"/>
      <point x="600" y="664" type="line"/>
      <point x="600" y="740" type="line"/>
      <point x="24" y="740" type="line"/>
      <point x="24" y="664" type="line"/>
      <point x="271" y="664" type="line"/>
    </contour>
  </outline>
</glyph>
<glyph name="Efcyrillic" format="2">
  <advance height="1000" width="964"/>
  <unicode hex="0424"/>
  <outline>
    <contour>
      <point x="128" y="374" type="curve" smooth="yes"/>
      <point x="128" y="516"/>
      <point x="229" y="613"/>
      <point x="433" y="613" type="curve" smooth="yes"/>
      <point x="441" y="613" type="line"/>
      <point x="441" y="135" type="line"/>
      <point x="433" y="135" type="line" smooth="yes"/>
      <point x="229" y="135"/>
      <point x="128" y="232"/>
    </contour>
    <contour>
      <point x="523" y="64" type="line"/>
      <point x="531" y="64" type="line" smooth="yes"/>
      <point x="783" y="64"/>
      <point x="920" y="196"/>
      <point x="920" y="376" type="curve" smooth="yes"/>
      <point x="920" y="552"/>
      <point x="783" y="684"/>
      <point x="531" y="684" type="curve" smooth="yes"/>
      <point x="523" y="684" type="line"/>
      <point x="523" y="761" type="line"/>
      <point x="441" y="761" type="line"/>
      <point x="441" y="684" type="line"/>
      <point x="433" y="684" type="line" smooth="yes"/>
      <point x="181" y="684"/>
      <point x="44" y="552"/>
      <point x="44" y="372" type="curve" smooth="yes"/>
      <point x="44" y="196"/>
      <point x="181" y="64"/>
      <point x="433" y="64" type="curve" smooth="yes"/>
      <point x="441" y="64" type="line"/>
      <point x="441" y="-21" type="line"/>
      <point x="523" y="-21" type="line"/>
    </contour>
    <contour>
      <point x="836" y="374" type="curve" smooth="yes"/>
      <point x="836" y="232"/>
      <point x="735" y="135"/>
      <point x="531" y="135" type="curve" smooth="yes"/>
      <point x="523" y="135" type="line"/>
      <point x="523" y="613" type="line"/>
      <point x="531" y="613" type="line" smooth="yes"/>
      <point x="735" y="613"/>
      <point x="836" y="516"/>
    </contour>
  </outline>
</glyph>
<glyph name="Khacyrillic" format="2">
  <advance height="1000" width="642"/>
  <unicode hex="0425"/>
  <outline>
    <contour>
      <point x="117.0" y="0.0" type="line"/>
      <point x="319.0" y="300.0" type="line"/>
      <point x="519.0" y="0.0" type="line"/>
      <point x="618.0" y="0.0" type="line"/>
      <point x="365.0" y="372.0" type="line"/>
      <point x="613.0" y="740.0" type="line"/>
      <point x="521.0" y="740.0" type="line"/>
      <point x="324.0" y="438.0" type="line"/>
      <point x="128.0" y="740.0" type="line"/>
      <point x="29.0" y="740.0" type="line"/>
      <point x="277.0" y="368.0" type="line"/>
      <point x="24.0" y="0.0" type="line"/>
    </contour>
  </outline>
</glyph>
<glyph name="Shacyrillic" format="2">
  <advance height="1000" width="1000"/>
  <unicode hex="0428"/>
  <outline>
    <contour>
      <point x="76" y="0" type="line"/>
      <point x="924" y="0" type="line"/>
      <point x="924" y="740" type="line"/>
      <point x="842" y="740" type="line"/>
      <point x="842" y="76" type="line"/>
      <point x="541" y="76" type="line"/>
      <point x="541" y="740" type="line"/>
      <point x="459" y="740" type="line"/>
      <point x="459" y="76" type="line"/>
      <point x="158" y="76" type="line"/>
      <point x="158" y="740" type="line"/>
      <point x="76" y="740" type="line"/>
    </contour>
  </outline>
</glyph>
<glyph name="IUcyrillic" format="2">
  <advance height="1000" width="1055"/>
  <unicode hex="042E"/>
  <outline>
    <contour>
      <point x="76" y="0" type="line"/>
      <point x="158" y="0" type="line"/>
      <point x="158" y="339" type="line"/>
      <point x="335" y="339" type="line"/>
      <point x="335" y="413" type="line"/>
      <point x="158" y="413" type="line"/>
      <point x="158" y="740" type="line"/>
      <point x="76" y="740" type="line"/>
    </contour>
    <contour>
      <point x="294" y="369" type="curve" smooth="yes"/>
      <point x="294" y="131"/>
      <point x="434" y="-15"/>
      <point x="650" y="-15" type="curve" smooth="yes"/>
      <point x="866" y="-15"/>
      <point x="1007" y="131"/>
      <point x="1007" y="371" type="curve" smooth="yes"/>
      <point x="1007" y="609"/>
      <point x="867" y="755"/>
      <point x="651" y="755" type="curve" smooth="yes"/>
      <point x="435" y="755"/>
      <point x="294" y="609"/>
    </contour>
    <contour>
      <point x="378" y="369" type="curve" smooth="yes"/>
      <point x="378" y="563"/>
      <point x="485" y="680"/>
      <point x="651" y="680" type="curve" smooth="yes"/>
      <point x="817" y="680"/>
      <point x="923" y="563"/>
      <point x="923" y="371" type="curve" smooth="yes"/>
      <point x="923" y="177"/>
      <point x="816" y="60"/>
      <point x="650" y="60" type="curve" smooth="yes"/>
      <point x="484" y="60"/>
      <point x="378" y="177"/>
    </contour>
  </outline>
</glyph>
<glyph name="vecyrillic" format="2">
  <advance height="1000" width="509"/>
  <unicode hex="0432"/>
  <outline>
    <contour>
      <point x="64" y="0" type="line"/>
      <point x="278" y="0" type="line" smooth="yes"/>
      <point x="398" y="0"/>
      <point x="466" y="59"/>
      <point x="466" y="143" type="curve" smooth="yes"/>
      <point x="466" y="213"/>
      <point x="426" y="258"/>
      <point x="354" y="272" type="curve"/>
      <point x="412" y="289"/>
      <point x="447" y="332"/>
      <point x="447" y="394" type="curve" smooth="yes"/>
      <point x="447" y="474"/>
      <point x="384" y="529"/>
      <point x="272" y="529" type="curve" smooth="yes"/>
      <point x="64" y="529" type="line"/>
    </contour>
    <contour>
      <point x="144" y="301" type="line"/>
      <point x="144" y="457" type="line"/>
      <point x="266" y="457" type="line" smooth="yes"/>
      <point x="330" y="457"/>
      <point x="365" y="429"/>
      <point x="365" y="379" type="curve" smooth="yes"/>
      <point x="365" y="329"/>
      <point x="330" y="301"/>
      <point x="266" y="301" type="curve" smooth="yes"/>
    </contour>
    <contour>
      <point x="144" y="72" type="line"/>
      <point x="144" y="235" type="line"/>
      <point x="283" y="235" type="line" smooth="yes"/>
      <point x="346" y="235"/>
      <point x="384" y="204"/>
      <point x="384" y="153" type="curve" smooth="yes"/>
      <point x="384" y="103"/>
      <point x="344" y="72"/>
      <point x="283" y="72" type="curve" smooth="yes"/>
    </contour>
  </outline>
</glyph>
<glyph name="zecyrillic" format="2">
  <advance height="1000" width="474"/>
  <unicode hex="0437"/>
  <outline>
    <contour>
      <point x="45" y="123" type="curve"/>
      <point x="45" y="36" type="line"/>
      <point x="93" y="6"/>
      <point x="150" y="-10"/>
      <point x="218" y="-10" type="curve" smooth="yes"/>
      <point x="352" y="-10"/>
      <point x="428" y="49"/>
      <point x="428" y="139" type="curve" smooth="yes"/>
      <point x="428" y="209"/>
      <point x="388" y="256"/>
      <point x="308" y="270" type="curve"/>
      <point x="375" y="291"/>
      <point x="414" y="335"/>
      <point x="414" y="397" type="curve" smooth="yes"/>
      <point x="414" y="479"/>
      <point x="350" y="539"/>
      <point x="222" y="539" type="curve" smooth="yes"/>
      <point x="154" y="539"/>
      <point x="96" y="524"/>
      <point x="44" y="498" type="curve"/>
      <point x="44" y="412" type="line"/>
      <point x="98" y="446"/>
      <point x="152" y="463"/>
      <point x="220" y="463" type="curve" smooth="yes"/>
      <point x="298" y="463"/>
      <point x="332" y="434"/>
      <point x="332" y="384" type="curve" smooth="yes"/>
      <point x="332" y="334"/>
      <point x="296" y="305"/>
      <point x="218" y="305" type="curve" smooth="yes"/>
      <point x="136" y="305" type="line"/>
      <point x="136" y="233" type="line"/>
      <point x="223" y="233" type="line" smooth="yes"/>
      <point x="307" y="233"/>
      <point x="346" y="205"/>
      <point x="346" y="149" type="curve" smooth="yes"/>
      <point x="346" y="97"/>
      <point x="306" y="66"/>
      <point x="215" y="66" type="curve" smooth="yes"/>
      <point x="145" y="66"/>
      <point x="91" y="87"/>
    </contour>
  </outline>
</glyph>
<glyph name="encyrillic" format="2">
  <advance height="1000" width="555"/>
  <unicode hex="043D"/>
  <outline>
    <contour>
      <point x="64" y="0" type="line"/>
      <point x="144" y="0" type="line"/>
      <point x="144" y="232" type="line"/>
      <point x="411" y="232" type="line"/>
      <point x="411" y="0" type="line"/>
      <point x="491" y="0" type="line"/>
      <point x="491" y="529" type="line"/>
      <point x="411" y="529" type="line"/>
      <point x="411" y="306" type="line"/>
      <point x="144" y="306" type="line"/>
      <point x="144" y="529" type="line"/>
      <point x="64" y="529" type="line"/>
    </contour>
  </outline>
</glyph>
<glyph name="pecyrillic" format="2">
  <advance height="1000" width="547"/>
  <unicode hex="043F"/>
  <outline>
    <contour>
      <point x="64" y="0" type="line"/>
      <point x="144" y="0" type="line"/>
      <point x="144" y="455" type="line"/>
      <point x="403" y="455" type="line"/>
      <point x="403" y="0" type="line"/>
      <point x="483" y="0" type="line"/>
      <point x="483" y="529" type="line"/>
      <point x="64" y="529" type="line"/>
    </contour>
  </outline>
</glyph>
<glyph name="tecyrillic" format="2">
  <advance height="1000" width="470"/>
  <unicode hex="0442"/>
  <outline>
    <contour>
      <point x="275" y="0" type="line"/>
      <point x="275" y="455" type="line"/>
      <point x="450" y="455" type="line"/>
      <point x="450" y="529" type="line"/>
      <point x="20" y="529" type="line"/>
      <point x="20" y="455" type="line"/>
      <point x="195" y="455" type="line"/>
      <point x="195" y="0" type="line"/>
    </contour>
  </outline>
</glyph>
<glyph name="efcyrillic" format="2">
  <advance height="1000" width="758"/>
  <unicode hex="0444"/>
  <outline>
    <contour>
      <point x="419" y="720" type="line"/>
      <point x="339" y="720" type="line"/>
      <point x="339" y="535" type="line"/>
      <point x="143" y="527"/>
      <point x="44" y="418"/>
      <point x="44" y="262" type="curve" smooth="yes"/>
      <point x="44" y="106"/>
      <point x="143" y="0"/>
      <point x="339" y="-8" type="curve"/>
      <point x="339" y="-189" type="line"/>
      <point x="419" y="-189" type="line"/>
      <point x="419" y="-8" type="line"/>
      <point x="615" y="0"/>
      <point x="714" y="109"/>
      <point x="714" y="265" type="curve" smooth="yes"/>
      <point x="714" y="421"/>
      <point x="615" y="527"/>
      <point x="419" y="535" type="curve"/>
    </contour>
    <contour>
      <point x="339" y="64" type="line"/>
      <point x="199" y="70"/>
      <point x="126" y="143"/>
      <point x="126" y="263" type="curve" smooth="yes"/>
      <point x="126" y="383"/>
      <point x="199" y="457"/>
      <point x="339" y="463" type="curve"/>
    </contour>
    <contour>
      <point x="419" y="463" type="line"/>
      <point x="559" y="457"/>
      <point x="632" y="384"/>
      <point x="632" y="264" type="curve" smooth="yes"/>
      <point x="632" y="144"/>
      <point x="559" y="70"/>
      <point x="419" y="64" type="curve"/>
    </contour>
  </outline>
</glyph>
<glyph name="khacyrillic" format="2">
  <advance height="1000" width="501"/>
  <unicode hex="0445"/>
  <outline>
    <contour>
      <point x="16" y="0" type="line"/>
      <point x="109" y="0" type="line"/>
      <point x="249" y="210" type="line"/>
      <point x="389" y="0" type="line"/>
      <point x="485" y="0" type="line"/>
      <point x="297" y="275" type="line"/>
      <point x="470" y="529" type="line"/>
      <point x="379" y="529" type="line"/>
      <point x="253" y="337" type="line"/>
      <point x="127" y="529" type="line"/>
      <point x="32" y="529" type="line"/>
      <point x="204" y="270" type="line"/>
    </contour>
  </outline>
</glyph>
<glyph name="tsecyrillic" format="2">
  <advance height="1000" width="601"/>
  <unicode hex="0446"/>
  <outline>
    <contour>
      <point x="483" y="529" type="line"/>
      <point x="403" y="529" type="line"/>
      <point x="403" y="74" type="line"/>
      <point x="144" y="74" type="line"/>
      <point x="144" y="529" type="line"/>
      <point x="64" y="529" type="line"/>
      <point x="64" y="0" type="line"/>
      <point x="495" y="0" type="line"/>
      <point x="495" y="-124" type="line"/>
      <point x="573" y="-124" type="line"/>
      <point x="573" y="74" type="line"/>
      <point x="483" y="74" type="line"/>
    </contour>
  </outline>
</glyph>
<glyph name="checyrillic" format="2">
  <advance height="1000" width="527"/>
  <unicode hex="0447"/>
  <outline>
    <contour>
      <point x="383" y="0" type="line"/>
      <point x="463" y="0" type="line"/>
      <point x="463" y="529" type="line"/>
      <point x="383" y="529" type="line"/>
      <point x="383" y="282" type="line"/>
      <point x="357" y="256"/>
      <point x="309" y="236"/>
      <point x="247" y="236" type="curve" smooth="yes"/>
      <point x="159" y="236"/>
      <point x="126" y="267"/>
      <point x="126" y="345" type="curve" smooth="yes"/>
      <point x="126" y="529" type="line"/>
      <point x="46" y="529" type="line"/>
      <point x="46" y="330" type="line" smooth="yes"/>
      <point x="46" y="210"/>
      <point x="103" y="163"/>
      <point x="225" y="163" type="curve" smooth="yes"/>
      <point x="295" y="163"/>
      <point x="351" y="184"/>
      <point x="383" y="212" type="curve"/>
    </contour>
  </outline>
</glyph>
<glyph name="shchacyrillic" format="2">
  <advance height="1000" width="848"/>
  <unicode hex="0449"/>
  <outline>
    <contour>
      <point x="64" y="0" type="line"/>
      <point x="742" y="0" type="line"/>
      <point x="742" y="-124" type="line"/>
      <point x="820" y="-124" type="line"/>
      <point x="820" y="74" type="line"/>
      <point x="730" y="74" type="line"/>
      <point x="730" y="529" type="line"/>
      <point x="650" y="529" type="line"/>
      <point x="650" y="74" type="line"/>
      <point x="437" y="74" type="line"/>
      <point x="437" y="529" type="line"/>
      <point x="357" y="529" type="line"/>
      <point x="357" y="74" type="line"/>
      <point x="144" y="74" type="line"/>
      <point x="144" y="529" type="line"/>
      <point x="64" y="529" type="line"/>
    </contour>
  </outline>
</glyph>
<glyph name="hardsigncyrillic" format="2">
  <advance height="1000" width="619"/>
  <unicode hex="044A"/>
  <outline>
    <contour>
      <point x="177" y="0" type="line"/>
      <point x="386" y="0" type="line" smooth="yes"/>
      <point x="512" y="0"/>
      <point x="589" y="69"/>
      <point x="589" y="176" type="curve" smooth="yes"/>
      <point x="589" y="281"/>
      <point x="514" y="348"/>
      <point x="389" y="348" type="curve" smooth="yes"/>
      <point x="257" y="348" type="line"/>
      <point x="257" y="529" type="line"/>
      <point x="20" y="529" type="line"/>
      <point x="20" y="455" type="line"/>
      <point x="177" y="455" type="line"/>
    </contour>
    <contour>
      <point x="257" y="276" type="line"/>
      <point x="391" y="276" type="line" smooth="yes"/>
      <point x="463" y="276"/>
      <point x="507" y="235"/>
      <point x="507" y="174" type="curve" smooth="yes"/>
      <point x="507" y="113"/>
      <point x="463" y="72"/>
      <point x="391" y="72" type="curve" smooth="yes"/>
      <point x="257" y="72" type="line"/>
    </contour>
  </outline>
</glyph>
<glyph name="djecyrillic" format="2">
  <advance height="1000" width="546"/>
  <unicode hex="0452"/>
  <outline>
    <contour>
      <point x="67" y="0" type="line"/>
      <point x="147" y="0" type="line"/>
      <point x="147" y="382" type="line"/>
      <point x="177" y="430"/>
      <point x="229" y="463"/>
      <point x="285" y="463" type="curve" smooth="yes"/>
      <point x="360" y="463"/>
      <point x="406" y="416"/>
      <point x="406" y="336" type="curve" smooth="yes"/>
      <point x="406" y="12" type="line" smooth="yes"/>
      <point x="406" y="-65"/>
      <point x="359" y="-113"/>
      <point x="291" y="-113" type="curve" smooth="yes"/>
      <point x="281" y="-113" type="line"/>
      <point x="281" y="-189" type="line"/>
      <point x="291" y="-189" type="line" smooth="yes"/>
      <point x="408" y="-189"/>
      <point x="486" y="-105"/>
      <point x="486" y="12" type="curve" smooth="yes"/>
      <point x="486" y="352" type="line" smooth="yes"/>
      <point x="486" y="465"/>
      <point x="423" y="539"/>
      <point x="307" y="539" type="curve" smooth="yes"/>
      <point x="244" y="539"/>
      <point x="184" y="509"/>
      <point x="147" y="457" type="curve"/>
      <point x="147" y="740" type="line"/>
      <point x="67" y="740" type="line"/>
    </contour>
    <contour>
      <point x="232" y="588" type="line"/>
      <point x="232" y="660" type="line"/>
      <point x="13" y="660" type="line"/>
      <point x="13" y="588" type="line"/>
    </contour>
  </outline>
</glyph>
<glyph name="gjecyrillic" format="2">
  <advance height="1000" width="414"/>
  <unicode hex="0453"/>
  <outline>
    <contour>
      <point x="64" y="0" type="line"/>
      <point x="144" y="0" type="line"/>
      <point x="144" y="455" type="line"/>
      <point x="394" y="455" type="line"/>
      <point x="394" y="529" type="line"/>
      <point x="64" y="529" type="line"/>
    </contour>
    <contour>
      <point x="263" y="596" type="line"/>
      <point x="381" y="748" type="line"/>
      <point x="291" y="748" type="line"/>
      <point x="181" y="596" type="line"/>
    </contour>
  </outline>
</glyph>
<glyph name="dzecyrillic" format="2">
  <advance height="1000" width="428"/>
  <unicode hex="0455"/>
  <outline>
    <contour>
      <point x="204" y="-12" type="curve" smooth="yes"/>
      <point x="319" y="-12"/>
      <point x="384" y="51"/>
      <point x="384" y="146" type="curve" smooth="yes"/>
      <point x="384" y="224"/>
      <point x="339" y="270"/>
      <point x="233" y="307" type="curve" smooth="yes"/>
      <point x="216" y="313" type="line" smooth="yes"/>
      <point x="153" y="335"/>
      <point x="124" y="360"/>
      <point x="124" y="397" type="curve" smooth="yes"/>
      <point x="124" y="443"/>
      <point x="161" y="464"/>
      <point x="220" y="464" type="curve" smooth="yes"/>
      <point x="272" y="464"/>
      <point x="323" y="450"/>
      <point x="367" y="422" type="curve"/>
      <point x="367" y="508" type="line"/>
      <point x="320" y="528"/>
      <point x="266" y="540"/>
      <point x="214" y="540" type="curve" smooth="yes"/>
      <point x="105" y="540"/>
      <point x="45" y="483"/>
      <point x="45" y="392" type="curve" smooth="yes"/>
      <point x="45" y="316"/>
      <point x="86" y="272"/>
      <point x="185" y="237" type="curve" smooth="yes"/>
      <point x="202" y="231" type="line" smooth="yes"/>
      <point x="272" y="206"/>
      <point x="305" y="181"/>
      <point x="305" y="139" type="curve" smooth="yes"/>
      <point x="305" y="88"/>
      <point x="265" y="64"/>
      <point x="202" y="64" type="curve" smooth="yes"/>
      <point x="145" y="64"/>
      <point x="90" y="82"/>
      <point x="44" y="114" type="curve"/>
      <point x="44" y="28" type="line"/>
      <point x="92" y="3"/>
      <point x="148" y="-12"/>
    </contour>
  </outline>
</glyph>
<glyph name="ljecyrillic" format="2">
  <advance height="1000" width="848"/>
  <unicode hex="0459"/>
  <outline>
    <contour>
      <point x="53" y="-12" type="curve" smooth="yes"/>
      <point x="89" y="-12"/>
      <point x="121" y="-1"/>
      <point x="147" y="25" type="curve" smooth="yes"/>
      <point x="187" y="65"/>
      <point x="208" y="131"/>
      <point x="208" y="371" type="curve" smooth="yes"/>
      <point x="208" y="455" type="line"/>
      <point x="417" y="455" type="line"/>
      <point x="417" y="0" type="line"/>
      <point x="614" y="0" type="line" smooth="yes"/>
      <point x="740" y="0"/>
      <point x="817" y="69"/>
      <point x="817" y="176" type="curve" smooth="yes"/>
      <point x="817" y="281"/>
      <point x="742" y="348"/>
      <point x="617" y="348" type="curve" smooth="yes"/>
      <point x="497" y="348" type="line"/>
      <point x="497" y="529" type="line"/>
      <point x="130" y="529" type="line"/>
      <point x="130" y="392" type="line" smooth="yes"/>
      <point x="130" y="164"/>
      <point x="116" y="112"/>
      <point x="88" y="84" type="curve" smooth="yes"/>
      <point x="74" y="70"/>
      <point x="61" y="65"/>
      <point x="39" y="65" type="curve" smooth="yes"/>
      <point x="27" y="65"/>
      <point x="19" y="66"/>
      <point x="10" y="69" type="curve"/>
      <point x="10" y="-7" type="line"/>
      <point x="18" y="-9"/>
      <point x="33" y="-12"/>
    </contour>
    <contour>
      <point x="497" y="72" type="line"/>
      <point x="497" y="276" type="line"/>
      <point x="619" y="276" type="line" smooth="yes"/>
      <point x="691" y="276"/>
      <point x="735" y="235"/>
      <point x="735" y="174" type="curve" smooth="yes"/>
      <point x="735" y="113"/>
      <point x="691" y="72"/>
      <point x="619" y="72" type="curve" smooth="yes"/>
    </contour>
  </outline>
</glyph>
<glyph name="njecyrillic" format="2">
  <advance height="1000" width="829"/>
  <unicode hex="045A"/>
  <outline>
    <contour>
      <point x="399" y="0" type="line"/>
      <point x="596" y="0" type="line" smooth="yes"/>
      <point x="722" y="0"/>
      <point x="799" y="69"/>
      <point x="799" y="176" type="curve" smooth="yes"/>
      <point x="799" y="281"/>
      <point x="724" y="348"/>
      <point x="599" y="348" type="curve" smooth="yes"/>
      <point x="479" y="348" type="line"/>
      <point x="479" y="529" type="line"/>
      <point x="399" y="529" type="line"/>
      <point x="399" y="306" type="line"/>
      <point x="144" y="306" type="line"/>
      <point x="144" y="529" type="line"/>
      <point x="64" y="529" type="line"/>
      <point x="64" y="0" type="line"/>
      <point x="144" y="0" type="line"/>
      <point x="144" y="232" type="line"/>
      <point x="399" y="232" type="line"/>
    </contour>
    <contour>
      <point x="479" y="72" type="line"/>
      <point x="479" y="276" type="line"/>
      <point x="601" y="276" type="line" smooth="yes"/>
      <point x="673" y="276"/>
      <point x="717" y="235"/>
      <point x="717" y="174" type="curve" smooth="yes"/>
      <point x="717" y="113"/>
      <point x="673" y="72"/>
      <point x="601" y="72" type="curve" smooth="yes"/>
    </contour>
  </outline>
</glyph>
<glyph name="igravecyrillic" format="2">
  <advance height="1000" width="571"/>
  <unicode hex="045D"/>
  <outline>
    <contour>
      <point x="64" y="0" type="line"/>
      <point x="144" y="0" type="line"/>
      <point x="430" y="410" type="line"/>
      <point x="430" y="0" type="line"/>
      <point x="507" y="0" type="line"/>
      <point x="507" y="529" type="line"/>
      <point x="427" y="529" type="line"/>
      <point x="141" y="119" type="line"/>
      <point x="141" y="529" type="line"/>
      <point x="64" y="529" type="line"/>
    </contour>
    <contour>
      <point x="240" y="596" type="line"/>
      <point x="322" y="596" type="line"/>
      <point x="212" y="748" type="line"/>
      <point x="122" y="748" type="line"/>
    </contour>
  </outline>
</glyph>
<glyph name="dzhecyrillic" format="2">
  <advance height="1000" width="546"/>
  <unicode hex="045F"/>
  <outline>
    <contour>
      <point x="64" y="0" type="line"/>
      <point x="234" y="0" type="line"/>
      <point x="234" y="-124" type="line"/>
      <point x="312" y="-124" type="line"/>
      <point x="312" y="0" type="line"/>
      <point x="482" y="0" type="line"/>
      <point x="482" y="529" type="line"/>
      <point x="402" y="529" type="line"/>
      <point x="402" y="74" type="line"/>
      <point x="144" y="74" type="line"/>
      <point x="144" y="529" type="line"/>
      <point x="64" y="529" type="line"/>
    </contour>
  </outline>
</glyph>
<glyph name="zhedescendercyrillic" format="2">
  <advance height="1000" width="782"/>
  <unicode hex="0497"/>
  <outline>
    <contour>
      <point x="14" y="0" type="line"/>
      <point x="116" y="0" type="line"/>
      <point x="283" y="238" type="line"/>
      <point x="335" y="238" type="line"/>
      <point x="335" y="0" type="line"/>
      <point x="414" y="0" type="line"/>
      <point x="414" y="238" type="line"/>
      <point x="466" y="238" type="line"/>
      <point x="632" y="0" type="line"/>
      <point x="735" y="0" type="line"/>
      <point x="533" y="278" type="line"/>
      <point x="721" y="529" type="line"/>
      <point x="626" y="529" type="line"/>
      <point x="466" y="308" type="line"/>
      <point x="414" y="308" type="line"/>
      <point x="414" y="529" type="line"/>
      <point x="335" y="529" type="line"/>
      <point x="335" y="308" type="line"/>
      <point x="283" y="308" type="line"/>
      <point x="124" y="529" type="line"/>
      <point x="28" y="529" type="line"/>
      <point x="216" y="277" type="line"/>
    </contour>
    <contour>
      <point x="652" y="74" type="line"/>
      <point x="652" y="0" type="line"/>
      <point x="698" y="0" type="line"/>
      <point x="698" y="-124" type="line"/>
      <point x="776" y="-124" type="line"/>
      <point x="776" y="74" type="line"/>
    </contour>
  </outline>
</glyph>
<glyph name="Kadescendercyrillic" format="2">
  <advance height="1000" width="669"/>
  <unicode hex="049A"/>
  <outline>
    <contour>
      <point x="76" y="0" type="line"/>
      <point x="158" y="0" type="line"/>
      <point x="158" y="346" type="line"/>
      <point x="238" y="346" type="line"/>
      <point x="505" y="0" type="line"/>
      <point x="610" y="0" type="line"/>
      <point x="307" y="388" type="line"/>
      <point x="592" y="740" type="line"/>
      <point x="495" y="740" type="line"/>
      <point x="238" y="420" type="line"/>
      <point x="158" y="420" type="line"/>
      <point x="158" y="740" type="line"/>
      <point x="76" y="740" type="line"/>
    </contour>
    <contour>
      <point x="512" y="76" type="line"/>
      <point x="512" y="0" type="line"/>
      <point x="581" y="0" type="line"/>
      <point x="581" y="-139" type="line"/>
      <point x="661" y="-139" type="line"/>
      <point x="661" y="76" type="line"/>
    </contour>
  </outline>
</glyph>
<glyph name="Hadescendercyrillic" format="2">
  <advance height="1000" width="684"/>
  <unicode hex="04B2"/>
  <outline>
    <contour>
      <point x="119" y="0" type="line"/>
      <point x="319" y="302" type="line"/>
      <point x="519" y="0" type="line"/>
      <point x="618" y="0" type="line"/>
      <point x="365" y="372" type="line"/>
      <point x="613" y="740" type="line"/>
      <point x="520" y="740" type="line"/>
      <point x="324" y="436" type="line"/>
      <point x="128" y="740" type="line"/>
      <point x="29" y="740" type="line"/>
      <point x="277" y="368" type="line"/>
      <point x="24" y="0" type="line"/>
    </contour>
    <contour>
      <point x="527" y="76" type="line"/>
      <point x="527" y="0" type="line"/>
      <point x="596" y="0" type="line"/>
      <point x="596" y="-139" type="line"/>
      <point x="676" y="-139" type="line"/>
      <point x="676" y="76" type="line"/>
    </contour>
  </outline>
</glyph>
<glyph name="Chedescendercyrillic" format="2">
  <advance height="1000" width="756"/>
  <unicode hex="04B6"/>
  <outline>
    <contour>
      <point x="638" y="0" type="line"/>
      <point x="638" y="-139" type="line"/>
      <point x="718" y="-139" type="line"/>
      <point x="718" y="76" type="line"/>
      <point x="612" y="76" type="line"/>
      <point x="612" y="740" type="line"/>
      <point x="530" y="740" type="line"/>
      <point x="530" y="383" type="line"/>
      <point x="490" y="353"/>
      <point x="419" y="328"/>
      <point x="327" y="328" type="curve" smooth="yes"/>
      <point x="195" y="328"/>
      <point x="142" y="372"/>
      <point x="142" y="490" type="curve" smooth="yes"/>
      <point x="142" y="740" type="line"/>
      <point x="60" y="740" type="line"/>
      <point x="60" y="482" type="line" smooth="yes"/>
      <point x="60" y="320"/>
      <point x="141" y="252"/>
      <point x="311" y="252" type="curve" smooth="yes"/>
      <point x="403" y="252"/>
      <point x="482" y="275"/>
      <point x="530" y="307" type="curve"/>
      <point x="530" y="0" type="line"/>
    </contour>
  </outline>
</glyph>
<glyph name="endash" format="2">
  <advance height="1000" width="500"/>
  <unicode hex="2013"/>
  <outline>
    <contour>
      <point x="48" y="250" type="line"/>
      <point x="452" y="250" type="line"/>
      <point x="452" y="322" type="line"/>
      <point x="48" y="322" type="line"/>
    </contour>
  </outline>
</glyph>
<glyph name="quotedblleft" format="2">
  <advance height="1000" width="348"/>
  <unicode hex="201C"/>
  <outline>
    <contour>
      <point x="60" y="485" type="line"/>
      <point x="138" y="485" type="line"/>
      <point x="138" y="557" type="line" smooth="yes"/>
      <point x="138" y="627"/>
      <point x="151" y="675"/>
      <point x="182" y="725" type="curve"/>
      <point x="127" y="756" type="line"/>
      <point x="90" y="715"/>
      <point x="60" y="646"/>
      <point x="60" y="557" type="curve" smooth="yes"/>
    </contour>
    <contour>
      <point x="210" y="485" type="line"/>
      <point x="288" y="485" type="line"/>
      <point x="288" y="557" type="line" smooth="yes"/>
      <point x="288" y="627"/>
      <point x="301" y="675"/>
      <point x="332" y="725" type="curve"/>
      <point x="277" y="756" type="line"/>
      <point x="240" y="715"/>
      <point x="210" y="646"/>
      <point x="210" y="557" type="curve" smooth="yes"/>
    </contour>
  </outline>
</glyph>
<glyph name="quotedblbase" format="2">
  <advance height="1000" width="346"/>
  <unicode hex="201E"/>
  <outline>
    <contour>
      <point x="74" y="-142" type="line"/>
      <point x="111" y="-101"/>
      <point x="137" y="-44"/>
      <point x="137" y="47" type="curve" smooth="yes"/>
      <point x="137" y="127" type="line"/>
      <point x="60" y="127" type="line"/>
      <point x="60" y="44" type="line" smooth="yes"/>
      <point x="60" y="-26"/>
      <point x="47" y="-72"/>
      <point x="16" y="-122" type="curve"/>
    </contour>
    <contour>
      <point x="223" y="-142" type="line"/>
      <point x="260" y="-101"/>
      <point x="286" y="-44"/>
      <point x="286" y="47" type="curve" smooth="yes"/>
      <point x="286" y="127" type="line"/>
      <point x="209" y="127" type="line"/>
      <point x="209" y="44" type="line" smooth="yes"/>
      <point x="209" y="-26"/>
      <point x="196" y="-72"/>
      <point x="165" y="-122" type="curve"/>
    </contour>
  </outline>
</glyph>
<glyph name="Euro" format="2">
  <advance height="1000" width="762"/>
  <unicode hex="20AC"/>
  <outline>
    <contour>
      <point x="35" y="400" type="line"/>
      <point x="382" y="400" type="line"/>
      <point x="382" y="468" type="line"/>
      <point x="35" y="468" type="line"/>
    </contour>
    <contour>
      <point x="35" y="268" type="line"/>
      <point x="384" y="268" type="line"/>
      <point x="384" y="336" type="line"/>
      <point x="35" y="336" type="line"/>
    </contour>
    <contour>
      <point x="470.0" y="-14.0" type="curve" smooth="yes"/>
      <point x="558.0" y="-14.0"/>
      <point x="633.0" y="5.0"/>
      <point x="707.0" y="50.0" type="curve"/>
      <point x="707.0" y="136.0" type="line"/>
      <point x="633.0" y="86.0"/>
      <point x="560.0" y="62.0"/>
      <point x="470.0" y="62.0" type="curve" smooth="yes"/>
      <point x="286.0" y="62.0"/>
      <point x="159.0" y="181.0"/>
      <point x="159.0" y="370.0" type="curve" smooth="yes"/>
      <point x="159.0" y="557.0"/>
      <point x="282.0" y="678.0"/>
      <point x="470.0" y="678.0" type="curve" smooth="yes"/>
      <point x="557.0" y="678.0"/>
      <point x="628.0" y="658.0"/>
      <point x="699.0" y="613.0" type="curve"/>
      <point x="699.0" y="699.0" type="line"/>
      <point x="627.0" y="736.0"/>
      <point x="556.0" y="754.0"/>
      <point x="470.0" y="754.0" type="curve" smooth="yes"/>
      <point x="228.0" y="754.0"/>
      <point x="75.0" y="604.0"/>
      <point x="75.0" y="370.0" type="curve" smooth="yes"/>
      <point x="75.0" y="135.0"/>
      <point x="231.0" y="-14.0"/>
    </contour>
  </outline>
</glyph>
<glyph name="Omega" format="2">
  <advance height="1000" width="766"/>
  <unicode hex="2126"/>
  <outline>
    <contour>
      <point x="64" y="0" type="line"/>
      <point x="350" y="0" type="line"/>
      <point x="350" y="187" type="line"/>
      <point x="217" y="212"/>
      <point x="129" y="309"/>
      <point x="129" y="431" type="curve" smooth="yes"/>
      <point x="129" y="578"/>
      <point x="231" y="676"/>
      <point x="383" y="676" type="curve" smooth="yes"/>
      <point x="535" y="676"/>
      <point x="637" y="578"/>
      <point x="637" y="430" type="curve" smooth="yes"/>
      <point x="637" y="307"/>
      <point x="547" y="211"/>
      <point x="413" y="187" type="curve"/>
      <point x="413" y="0" type="line"/>
      <point x="700" y="0" type="line"/>
      <point x="700" y="82" type="line"/>
      <point x="483" y="82" type="line"/>
      <point x="483" y="135" type="line"/>
      <point x="627" y="170"/>
      <point x="721" y="288"/>
      <point x="721" y="434" type="curve" smooth="yes"/>
      <point x="721" y="625"/>
      <point x="586" y="752"/>
      <point x="383" y="752" type="curve" smooth="yes"/>
      <point x="180" y="752"/>
      <point x="45" y="624"/>
      <point x="45" y="432" type="curve" smooth="yes"/>
      <point x="45" y="288"/>
      <point x="139" y="171"/>
      <point x="282" y="136" type="curve"/>
      <point x="282" y="82" type="line"/>
      <point x="64" y="82" type="line"/>
    </contour>
  </outline>
</glyph>
<glyph name="uni2462" format="2">
  <advance height="1000" width="1000"/>
  <unicode hex="2462"/>
  <outline>
    <contour>
      <point x="495.0" y="117.0625" type="curve" smooth="yes"/>
      <point x="594.625" y="117.0625"/>
      <point x="656.0" y="169.0"/>
      <point x="656" y="251" type="curve" smooth="yes"/>
      <point x="656.0" y="311.0"/>
      <point x="614.9196428571429" y="358.198347107438"/>
      <point x="549" y="370" type="curve"/>
      <point x="608.4" y="380.0"/>
      <point x="648.0" y="427.0"/>
      <point x="648" y="488" type="curve" smooth="yes"/>
      <point x="648.0" y="561.0"/>
      <point x="589.6681939868205" y="607.0"/>
      <point x="497.25" y="607.0" type="curve" smooth="yes"/>
      <point x="448.71875" y="607.0"/>
      <point x="398.0" y="595.0"/>
      <point x="358" y="574" type="curve"/>
      <point x="358" y="502" type="line"/>
      <point x="397.0" y="528.0"/>
      <point x="441.5327868852459" y="539.0"/>
      <point x="487" y="539" type="curve" smooth="yes"/>
      <point x="536.4269662921348" y="539.0"/>
      <point x="570.0" y="517.0298507462687"/>
      <point x="570" y="475" type="curve" smooth="yes"/>
      <point x="570.0" y="428.125"/>
      <point x="527.625" y="400.0"/>
      <point x="457" y="400" type="curve" smooth="yes"/>
      <point x="430" y="400" type="line"/>
      <point x="430" y="336" type="line"/>
      <point x="459" y="336" type="line" smooth="yes"/>
      <point x="532.0" y="336.0"/>
      <point x="578.0" y="304.83116883116884"/>
      <point x="578" y="256" type="curve" smooth="yes"/>
      <point x="578.0" y="210.93150684931504"/>
      <point x="544.989898989899" y="186.0"/>
      <point x="492" y="186" type="curve" smooth="yes"/>
      <point x="440.57246376811594" y="186.0"/>
      <point x="386.95652173913044" y="201.0"/>
      <point x="341" y="231.0" type="curve"/>
      <point x="341" y="156" type="line"/>
      <point x="387" y="131"/>
      <point x="442.28125" y="117.0625"/>
    </contour>
    <contour>
      <point x="980" y="350" type="curve" smooth="yes"/>
      <point x="980" y="638"/>
      <point x="759" y="830"/>
      <point x="500" y="830" type="curve" smooth="yes"/>
      <point x="241" y="830"/>
      <point x="20" y="638"/>
      <point x="20" y="350" type="curve" smooth="yes"/>
      <point x="20" y="62"/>
      <point x="241" y="-130"/>
      <point x="500" y="-130" type="curve" smooth="yes"/>
      <point x="759" y="-130"/>
      <point x="980" y="62"/>
    </contour>
    <contour>
      <point x="916" y="350" type="curve" smooth="yes"/>
      <point x="916" y="125"/>
      <point x="750" y="-66"/>
      <point x="500" y="-66" type="curve" smooth="yes"/>
      <point x="250" y="-66"/>
      <point x="84" y="125"/>
      <point x="84" y="350" type="curve" smooth="yes"/>
      <point x="84" y="575"/>
      <point x="250" y="766"/>
      <point x="500" y="766" type="curve" smooth="yes"/>
      <point x="750" y="766"/>
      <point x="916" y="575"/>
    </contour>
  </outline>
</glyph>
<glyph name="uni2463" format="2">
  <advance height="1000" width="1000"/>
  <unicode hex="2463"/>
  <outline>
    <contour>
      <point x="510" y="125" type="line"/>
      <point x="582" y="125" type="line"/>
      <point x="582" y="240" type="line"/>
      <point x="650.0" y="240" type="line"/>
      <point x="650.0" y="307" type="line"/>
      <point x="582" y="307" type="line"/>
      <point x="582" y="603" type="line"/>
      <point x="489" y="603" type="line"/>
      <point x="289.0" y="305" type="line"/>
      <point x="289.0" y="240" type="line"/>
      <point x="510" y="240" type="line"/>
    </contour>
    <contour>
      <point x="510" y="307" type="line"/>
      <point x="365" y="307" type="line"/>
      <point x="510" y="525" type="line"/>
    </contour>
    <contour>
      <point x="980" y="350" type="curve" smooth="yes"/>
      <point x="980" y="638"/>
      <point x="759" y="830"/>
      <point x="500" y="830" type="curve" smooth="yes"/>
      <point x="241" y="830"/>
      <point x="20" y="638"/>
      <point x="20" y="350" type="curve" smooth="yes"/>
      <point x="20" y="62"/>
      <point x="241" y="-130"/>
      <point x="500" y="-130" type="curve" smooth="yes"/>
      <point x="759" y="-130"/>
      <point x="980" y="62"/>
    </contour>
    <contour>
      <point x="916" y="350" type="curve" smooth="yes"/>
      <point x="916" y="125"/>
      <point x="750" y="-66"/>
      <point x="500" y="-66" type="curve" smooth="yes"/>
      <point x="250" y="-66"/>
      <point x="84" y="125"/>
      <point x="84" y="350" type="curve" smooth="yes"/>
      <point x="84" y="575"/>
      <point x="250" y="766"/>
      <point x="500" y="766" type="curve" smooth="yes"/>
      <point x="750" y="766"/>
      <point x="916" y="575"/>
    </contour>
  </outline>
</glyph>
<glyph name="uni2464" format="2">
  <advance height="1000" width="1000"/>
  <unicode hex="2464"/>
  <outline>
    <contour>
      <point x="484" y="113" type="curve" smooth="yes"/>
      <point x="593" y="113.0"/>
      <point x="659.0" y="176"/>
      <point x="659" y="269" type="curve" smooth="yes"/>
      <point x="659.0" y="358"/>
      <point x="602.0" y="413.0"/>
      <point x="487.0" y="413" type="curve" smooth="yes"/>
      <point x="469" y="413.0"/>
      <point x="446" y="412.0"/>
      <point x="428" y="409" type="curve"/>
      <point x="436" y="523" type="line"/>
      <point x="637" y="523" type="line"/>
      <point x="637" y="595" type="line"/>
      <point x="377" y="595" type="line"/>
      <point x="359" y="338" type="line"/>
      <point x="397" y="345"/>
      <point x="430" y="349"/>
      <point x="467" y="349" type="curve" smooth="yes"/>
      <point x="540.0" y="349.0"/>
      <point x="581.0" y="317"/>
      <point x="581" y="265" type="curve" smooth="yes"/>
      <point x="581.0" y="212"/>
      <point x="546" y="181.0"/>
      <point x="482" y="181" type="curve" smooth="yes"/>
      <point x="435" y="181.0"/>
      <point x="390" y="197.0"/>
      <point x="350" y="226" type="curve"/>
      <point x="350" y="149" type="line"/>
      <point x="391" y="127"/>
      <point x="435" y="113.0"/>
    </contour>
    <contour>
      <point x="980" y="350" type="curve" smooth="yes"/>
      <point x="980" y="638"/>
      <point x="759" y="830"/>
      <point x="500" y="830" type="curve" smooth="yes"/>
      <point x="241" y="830"/>
      <point x="20" y="638"/>
      <point x="20" y="350" type="curve" smooth="yes"/>
      <point x="20" y="62"/>
      <point x="241" y="-130"/>
      <point x="500" y="-130" type="curve" smooth="yes"/>
      <point x="759" y="-130"/>
      <point x="980" y="62"/>
    </contour>
    <contour>
      <point x="916" y="350" type="curve" smooth="yes"/>
      <point x="916" y="125"/>
      <point x="750" y="-66"/>
      <point x="500" y="-66" type="curve" smooth="yes"/>
      <point x="250" y="-66"/>
      <point x="84" y="125"/>
      <point x="84" y="350" type="curve" smooth="yes"/>
      <point x="84" y="575"/>
      <point x="250" y="766"/>
      <point x="500" y="766" type="curve" smooth="yes"/>
      <point x="750" y="766"/>
      <point x="916" y="575"/>
    </contour>
  </outline>
</glyph>
<glyph name="uni2474" format="2">
  <advance height="1000" width="1000"/>
  <unicode hex="2474"/>
  <outline>
    <contour>
      <point x="360" y="34" type="line"/>
      <point x="668" y="34" type="line"/>
      <point x="668" y="102" type="line"/>
      <point x="552" y="102" type="line"/>
      <point x="552" y="517" type="line"/>
      <point x="346" y="483" type="line"/>
      <point x="346" y="416" type="line"/>
      <point x="476" y="437" type="line"/>
      <point x="476" y="102" type="line"/>
      <point x="360" y="102" type="line"/>
    </contour>
    <contour>
      <point x="185" y="-189" type="curve"/>
      <point x="278" y="-189" type="line"/>
      <point x="170" y="-49"/>
      <point x="114" y="109"/>
      <point x="114" y="276" type="curve" smooth="yes"/>
      <point x="114" y="443"/>
      <point x="170" y="600"/>
      <point x="278" y="740" type="curve"/>
      <point x="185" y="740" type="line"/>
      <point x="88" y="606"/>
      <point x="32" y="448"/>
      <point x="32" y="276" type="curve" smooth="yes"/>
      <point x="32" y="103"/>
      <point x="88" y="-55"/>
    </contour>
    <contour>
      <point x="722" y="-189" type="curve"/>
      <point x="815" y="-189" type="line"/>
      <point x="912" y="-55"/>
      <point x="968" y="103"/>
      <point x="968" y="275" type="curve" smooth="yes"/>
      <point x="968" y="448"/>
      <point x="912" y="606"/>
      <point x="815" y="740" type="curve"/>
      <point x="722" y="740" type="line"/>
      <point x="830" y="599"/>
      <point x="886" y="441"/>
      <point x="886" y="275" type="curve" smooth="yes"/>
      <point x="886" y="108"/>
      <point x="830" y="-49"/>
    </contour>
  </outline>
</glyph>
<glyph name="uni2475" format="2">
  <advance height="1000" width="1000"/>
  <unicode hex="2475"/>
  <outline>
    <contour>
      <point x="346" y="34" type="line"/>
      <point x="662" y="34" type="line"/>
      <point x="662" y="102" type="line"/>
      <point x="438" y="102" type="line"/>
      <point x="615" y="238.0"/>
      <point x="659.0" y="298.0"/>
      <point x="659" y="375" type="curve" smooth="yes"/>
      <point x="659.0" y="463.0"/>
      <point x="594" y="516.0"/>
      <point x="496" y="516.0" type="curve" smooth="yes"/>
      <point x="444" y="516.0"/>
      <point x="394" y="503"/>
      <point x="349" y="482" type="curve"/>
      <point x="349" y="408" type="line"/>
      <point x="392" y="435.0"/>
      <point x="441" y="448.0"/>
      <point x="485" y="448" type="curve" smooth="yes"/>
      <point x="541" y="448.0"/>
      <point x="581.0" y="420.0"/>
      <point x="581" y="365" type="curve" smooth="yes"/>
      <point x="581.0" y="308.0"/>
      <point x="537" y="255"/>
      <point x="346" y="107" type="curve"/>
    </contour>
    <contour>
      <point x="185" y="-189" type="curve"/>
      <point x="278" y="-189" type="line"/>
      <point x="170" y="-49"/>
      <point x="114" y="109"/>
      <point x="114" y="276" type="curve" smooth="yes"/>
      <point x="114" y="443"/>
      <point x="170" y="600"/>
      <point x="278" y="740" type="curve"/>
      <point x="185" y="740" type="line"/>
      <point x="88" y="606"/>
      <point x="32" y="448"/>
      <point x="32" y="276" type="curve" smooth="yes"/>
      <point x="32" y="103"/>
      <point x="88" y="-55"/>
    </contour>
    <contour>
      <point x="722" y="-189" type="curve"/>
      <point x="815" y="-189" type="line"/>
      <point x="912" y="-55"/>
      <point x="968" y="103"/>
      <point x="968" y="275" type="curve" smooth="yes"/>
      <point x="968" y="448"/>
      <point x="912" y="606"/>
      <point x="815" y="740" type="curve"/>
      <point x="722" y="740" type="line"/>
      <point x="830" y="599"/>
      <point x="886" y="441"/>
      <point x="886" y="275" type="curve" smooth="yes"/>
      <point x="886" y="108"/>
      <point x="830" y="-49"/>
    </contour>
  </outline>
</glyph>
<glyph name="uni2477" format="2">
  <advance height="1000" width="1000"/>
  <unicode hex="2477"/>
  <outline>
    <contour>
      <point x="525" y="34" type="line"/>
      <point x="597" y="34" type="line"/>
      <point x="597" y="149" type="line"/>
      <point x="665.0" y="149" type="line"/>
      <point x="665.0" y="216" type="line"/>
      <point x="597" y="216" type="line"/>
      <point x="597" y="512" type="line"/>
      <point x="504" y="512" type="line"/>
      <point x="304.0" y="214" type="line"/>
      <point x="304.0" y="149" type="line"/>
      <point x="525" y="149" type="line"/>
    </contour>
    <contour>
      <point x="525" y="216" type="line"/>
      <point x="380" y="216" type="line"/>
      <point x="525" y="434" type="line"/>
    </contour>
    <contour>
      <point x="185" y="-189" type="curve"/>
      <point x="278" y="-189" type="line"/>
      <point x="170" y="-49"/>
      <point x="114" y="109"/>
      <point x="114" y="276" type="curve" smooth="yes"/>
      <point x="114" y="443"/>
      <point x="170" y="600"/>
      <point x="278" y="740" type="curve"/>
      <point x="185" y="740" type="line"/>
      <point x="88" y="606"/>
      <point x="32" y="448"/>
      <point x="32" y="276" type="curve" smooth="yes"/>
      <point x="32" y="103"/>
      <point x="88" y="-55"/>
    </contour>
    <contour>
      <point x="722" y="-189" type="curve"/>
      <point x="815" y="-189" type="line"/>
      <point x="912" y="-55"/>
      <point x="968" y="103"/>
      <point x="968" y="275" type="curve" smooth="yes"/>
      <point x="968" y="448"/>
      <point x="912" y="606"/>
      <point x="815" y="740" type="curve"/>
      <point x="722" y="740" type="line"/>
      <point x="830" y="599"/>
      <point x="886" y="441"/>
      <point x="886" y="275" type="curve" smooth="yes"/>
      <point x="886" y="108"/>
      <point x="830" y="-49"/>
    </contour>
  </outline>
</glyph>
<glyph name="uni2478" format="2">
  <advance height="1000" width="1000"/>
  <unicode hex="2478"/>
  <outline>
    <contour>
      <point x="484" y="26" type="curve" smooth="yes"/>
      <point x="593" y="26.0"/>
      <point x="659.0" y="89"/>
      <point x="659" y="182" type="curve" smooth="yes"/>
      <point x="659.0" y="271"/>
      <point x="602.0" y="326.0"/>
      <point x="487.0" y="326" type="curve" smooth="yes"/>
      <point x="469" y="326.0"/>
      <point x="446" y="325.0"/>
      <point x="428" y="322" type="curve"/>
      <point x="436" y="436" type="line"/>
      <point x="637" y="436" type="line"/>
      <point x="637" y="508" type="line"/>
      <point x="377" y="508" type="line"/>
      <point x="359" y="251" type="line"/>
      <point x="397" y="258"/>
      <point x="430" y="262"/>
      <point x="467" y="262" type="curve" smooth="yes"/>
      <point x="540.0" y="262.0"/>
      <point x="581.0" y="230"/>
      <point x="581" y="178" type="curve" smooth="yes"/>
      <point x="581.0" y="125"/>
      <point x="546" y="94.0"/>
      <point x="482" y="94" type="curve" smooth="yes"/>
      <point x="435" y="94.0"/>
      <point x="390" y="110.0"/>
      <point x="350" y="139" type="curve"/>
      <point x="350" y="62" type="line"/>
      <point x="391" y="40"/>
      <point x="435" y="26.0"/>
    </contour>
    <contour>
      <point x="185" y="-189" type="curve"/>
      <point x="278" y="-189" type="line"/>
      <point x="170" y="-49"/>
      <point x="114" y="109"/>
      <point x="114" y="276" type="curve" smooth="yes"/>
      <point x="114" y="443"/>
      <point x="170" y="600"/>
      <point x="278" y="740" type="curve"/>
      <point x="185" y="740" type="line"/>
      <point x="88" y="606"/>
      <point x="32" y="448"/>
      <point x="32" y="276" type="curve" smooth="yes"/>
      <point x="32" y="103"/>
      <point x="88" y="-55"/>
    </contour>
    <contour>
      <point x="722" y="-189" type="curve"/>
      <point x="815" y="-189" type="line"/>
      <point x="912" y="-55"/>
      <point x="968" y="103"/>
      <point x="968" y="275" type="curve" smooth="yes"/>
      <point x="968" y="448"/>
      <point x="912" y="606"/>
      <point x="815" y="740" type="curve"/>
      <point x="722" y="740" type="line"/>
      <point x="830" y="599"/>
      <point x="886" y="441"/>
      <point x="886" y="275" type="curve" smooth="yes"/>
      <point x="886" y="108"/>
      <point x="830" y="-49"/>
    </contour>
  </outline>
</glyph>
<glyph name="uni2489" format="2">
  <advance height="1000" width="1000"/>
  <unicode hex="2489"/>
  <outline>
    <contour>
      <point x="230" y="0" type="line"/>
      <point x="667" y="0" type="line"/>
      <point x="667" y="84" type="line"/>
      <point x="301" y="84" type="line"/>
      <point x="410" y="167" type="line" smooth="yes"/>
      <point x="554" y="276"/>
      <point x="665" y="372"/>
      <point x="665" y="530" type="curve" smooth="yes"/>
      <point x="665" y="667"/>
      <point x="577" y="753"/>
      <point x="428" y="753" type="curve" smooth="yes"/>
      <point x="356" y="753"/>
      <point x="294" y="734"/>
      <point x="235" y="694" type="curve"/>
      <point x="235" y="607" type="line"/>
      <point x="291" y="655"/>
      <point x="352" y="677"/>
      <point x="427" y="677" type="curve" smooth="yes"/>
      <point x="518" y="677"/>
      <point x="582" y="617"/>
      <point x="582" y="521" type="curve" smooth="yes"/>
      <point x="582" y="399"/>
      <point x="480" y="317"/>
      <point x="338" y="204" type="curve" smooth="yes"/>
      <point x="230" y="118" type="line"/>
    </contour>
    <contour>
      <point x="805" y="0" type="line"/>
      <point x="893" y="0" type="line"/>
      <point x="893" y="88" type="line"/>
      <point x="805" y="88" type="line"/>
    </contour>
  </outline>
</glyph>
<glyph name="uni248A" format="2">
  <advance height="1000" width="1000"/>
  <unicode hex="248A"/>
  <outline>
    <contour>
      <point x="442" y="-13" type="curve" smooth="yes"/>
      <point x="583" y="-13"/>
      <point x="672" y="67"/>
      <point x="672" y="192" type="curve" smooth="yes"/>
      <point x="672" y="289"/>
      <point x="621" y="353"/>
      <point x="523" y="382" type="curve"/>
      <point x="612" y="403"/>
      <point x="658.0" y="464.0"/>
      <point x="658.0" y="560.0" type="curve" smooth="yes"/>
      <point x="658" y="675"/>
      <point x="578.0" y="753.0"/>
      <point x="433" y="753" type="curve" smooth="yes"/>
      <point x="367" y="753"/>
      <point x="303" y="734"/>
      <point x="250" y="696" type="curve"/>
      <point x="250" y="611" type="line"/>
      <point x="301" y="653"/>
      <point x="365" y="677"/>
      <point x="433" y="677" type="curve" smooth="yes"/>
      <point x="513.0" y="677.0"/>
      <point x="575.0" y="631.9090909090909"/>
      <point x="575" y="553" type="curve" smooth="yes"/>
      <point x="575.0" y="463.93617021276594"/>
      <point x="502.0" y="415.0"/>
      <point x="384" y="415" type="curve" smooth="yes"/>
      <point x="350" y="415" type="line"/>
      <point x="350" y="339" type="line"/>
      <point x="389" y="339" type="line" smooth="yes"/>
      <point x="513" y="339"/>
      <point x="589" y="291"/>
      <point x="589.0" y="192.0" type="curve" smooth="yes"/>
      <point x="589.0" y="108.0"/>
      <point x="531" y="63"/>
      <point x="435" y="63" type="curve" smooth="yes"/>
      <point x="365.0" y="63.0"/>
      <point x="284" y="93"/>
      <point x="221" y="144" type="curve"/>
      <point x="221" y="53" type="line"/>
      <point x="286.0" y="11.264705882352942"/>
      <point x="363.0" y="-13.0"/>
    </contour>
    <contour>
      <point x="805" y="0" type="line"/>
      <point x="893" y="0" type="line"/>
      <point x="893" y="88" type="line"/>
      <point x="805" y="88" type="line"/>
    </contour>
  </outline>
</glyph>
<glyph name="uni248B" format="2">
  <advance height="1000" width="1000"/>
  <unicode hex="248B"/>
  <outline>
    <contour>
      <point x="508" y="0" type="line"/>
      <point x="590" y="0" type="line"/>
      <point x="590" y="201" type="line"/>
      <point x="700" y="201" type="line"/>
      <point x="700" y="273" type="line"/>
      <point x="590" y="273" type="line"/>
      <point x="590" y="740" type="line"/>
      <point x="492" y="740" type="line"/>
      <point x="170" y="258" type="line"/>
      <point x="170" y="201" type="line"/>
      <point x="508" y="201" type="line"/>
    </contour>
    <contour>
      <point x="266" y="273" type="line"/>
      <point x="508" y="635" type="line"/>
      <point x="508" y="273" type="line"/>
    </contour>
    <contour>
      <point x="805" y="0" type="line"/>
      <point x="893" y="0" type="line"/>
      <point x="893" y="88" type="line"/>
      <point x="805" y="88" type="line"/>
    </contour>
  </outline>
</glyph>
<glyph name="uni248D" format="2">
  <advance height="1000" width="1000"/>
  <unicode hex="248D"/>
  <outline>
    <contour>
      <point x="446.0" y="-14.0" type="curve" smooth="yes"/>
      <point x="578" y="-14"/>
      <point x="687" y="79"/>
      <point x="687.0" y="241.0" type="curve" smooth="yes"/>
      <point x="687.0" y="378.0"/>
      <point x="587.3060344827586" y="480.0"/>
      <point x="458" y="480" type="curve" smooth="yes"/>
      <point x="379.6875" y="480.0"/>
      <point x="318.66477272727275" y="445.0"/>
      <point x="279.0" y="383.0" type="curve"/>
      <point x="292.0" y="578.0"/>
      <point x="377.0" y="678.0"/>
      <point x="504.0" y="678.0" type="curve" smooth="yes"/>
      <point x="556" y="678"/>
      <point x="611.0" y="663.0"/>
      <point x="653.0" y="641.0" type="curve"/>
      <point x="653.0" y="724.0" type="line"/>
      <point x="607.0" y="742.0"/>
      <point x="551.0" y="754.0"/>
      <point x="499.0" y="754.0" type="curve" smooth="yes"/>
      <point x="310.77777777777777" y="754.0"/>
      <point x="191.0" y="598.0"/>
      <point x="191.0" y="304.0" type="curve" smooth="yes"/>
      <point x="191.0" y="86.0"/>
      <point x="301.8695652173913" y="-14.0"/>
    </contour>
    <contour>
      <point x="446.0" y="62.0" type="curve" smooth="yes"/>
      <point x="339.0" y="62.0"/>
      <point x="279.0" y="143.0"/>
      <point x="278.0" y="266.0" type="curve"/>
      <point x="292.2530120481928" y="345.0"/>
      <point x="364.53614457831327" y="404.0"/>
      <point x="447.0" y="404.0" type="curve" smooth="yes"/>
      <point x="546.1180124223602" y="404.0"/>
      <point x="605.0" y="333.0"/>
      <point x="605.0" y="237.0" type="curve" smooth="yes"/>
      <point x="605" y="134"/>
      <point x="536.0" y="62.0"/>
    </contour>
    <contour>
      <point x="805" y="0" type="line"/>
      <point x="893" y="0" type="line"/>
      <point x="893" y="88" type="line"/>
      <point x="805" y="88" type="line"/>
    </contour>
  </outline>
</glyph>
<glyph name="uni249C" format="2">
  <advance height="1000" width="1000"/>
  <unicode hex="249C"/>
  <outline>
    <contour>
      <point x="450" y="-10" type="curve" smooth="yes"/>
      <point x="515" y="-10"/>
      <point x="569" y="15"/>
      <point x="602" y="67" type="curve"/>
      <point x="610" y="0" type="line"/>
      <point x="681" y="0" type="line"/>
      <point x="681" y="367" type="line" smooth="yes"/>
      <point x="681" y="480"/>
      <point x="614" y="540"/>
      <point x="490" y="540" type="curve" smooth="yes"/>
      <point x="431" y="540"/>
      <point x="370" y="523"/>
      <point x="313" y="496" type="curve"/>
      <point x="313" y="413" type="line"/>
      <point x="365" y="447"/>
      <point x="419" y="464"/>
      <point x="480" y="464" type="curve" smooth="yes"/>
      <point x="557" y="464"/>
      <point x="601" y="434"/>
      <point x="601" y="365" type="curve" smooth="yes"/>
      <point x="601" y="338" type="line"/>
      <point x="487" y="323" type="line" smooth="yes"/>
      <point x="359" y="306"/>
      <point x="290" y="239"/>
      <point x="290" y="145" type="curve" smooth="yes"/>
      <point x="290" y="53"/>
      <point x="352" y="-10"/>
    </contour>
    <contour>
      <point x="471" y="66" type="curve" smooth="yes"/>
      <point x="408" y="66"/>
      <point x="372" y="95"/>
      <point x="372" y="150" type="curve" smooth="yes"/>
      <point x="372" y="208"/>
      <point x="416" y="239"/>
      <point x="497" y="250" type="curve" smooth="yes"/>
      <point x="601" y="264" type="line"/>
      <point x="601" y="152" type="line"/>
      <point x="580" y="103"/>
      <point x="532" y="66"/>
    </contour>
    <contour>
      <point x="185" y="-189" type="curve"/>
      <point x="278" y="-189" type="line"/>
      <point x="170" y="-49"/>
      <point x="114" y="109"/>
      <point x="114" y="276" type="curve" smooth="yes"/>
      <point x="114" y="443"/>
      <point x="170" y="600"/>
      <point x="278" y="740" type="curve"/>
      <point x="185" y="740" type="line"/>
      <point x="88" y="606"/>
      <point x="32" y="448"/>
      <point x="32" y="276" type="curve" smooth="yes"/>
      <point x="32" y="103"/>
      <point x="88" y="-55"/>
    </contour>
    <contour>
      <point x="722" y="-189" type="curve"/>
      <point x="815" y="-189" type="line"/>
      <point x="912" y="-55"/>
      <point x="968" y="103"/>
      <point x="968" y="275" type="curve" smooth="yes"/>
      <point x="968" y="448"/>
      <point x="912" y="606"/>
      <point x="815" y="740" type="curve"/>
      <point x="722" y="740" type="line"/>
      <point x="830" y="599"/>
      <point x="886" y="441"/>
      <point x="886" y="275" type="curve" smooth="yes"/>
      <point x="886" y="108"/>
      <point x="830" y="-49"/>
    </contour>
  </outline>
</glyph>
<glyph name="uni249D" format="2">
  <advance height="1000" width="1000"/>
  <unicode hex="249D"/>
  <outline>
    <contour>
      <point x="479" y="-12" type="curve" smooth="yes"/>
      <point x="639" y="-12"/>
      <point x="742" y="100"/>
      <point x="742" y="274" type="curve" smooth="yes"/>
      <point x="742" y="436"/>
      <point x="653" y="540"/>
      <point x="516" y="540" type="curve" smooth="yes"/>
      <point x="463" y="540"/>
      <point x="405" y="517"/>
      <point x="368" y="479" type="curve"/>
      <point x="368" y="740" type="line"/>
      <point x="288" y="740" type="line"/>
      <point x="288" y="25" type="line"/>
      <point x="350" y="1"/>
      <point x="424" y="-12"/>
    </contour>
    <contour>
      <point x="483" y="64" type="curve" smooth="yes"/>
      <point x="444" y="64"/>
      <point x="404" y="71"/>
      <point x="368" y="84" type="curve"/>
      <point x="368" y="408" type="line"/>
      <point x="404" y="445"/>
      <point x="450" y="464"/>
      <point x="500" y="464" type="curve" smooth="yes"/>
      <point x="599" y="464"/>
      <point x="660" y="389"/>
      <point x="660" y="269" type="curve" smooth="yes"/>
      <point x="660" y="143"/>
      <point x="589" y="64"/>
    </contour>
    <contour>
      <point x="185" y="-189" type="curve"/>
      <point x="278" y="-189" type="line"/>
      <point x="170" y="-49"/>
      <point x="114" y="109"/>
      <point x="114" y="276" type="curve" smooth="yes"/>
      <point x="114" y="443"/>
      <point x="170" y="600"/>
      <point x="278" y="740" type="curve"/>
      <point x="185" y="740" type="line"/>
      <point x="88" y="606"/>
      <point x="32" y="448"/>
      <point x="32" y="276" type="curve" smooth="yes"/>
      <point x="32" y="103"/>
      <point x="88" y="-55"/>
    </contour>
    <contour>
      <point x="722" y="-189" type="curve"/>
      <point x="815" y="-189" type="line"/>
      <point x="912" y="-55"/>
      <point x="968" y="103"/>
      <point x="968" y="275" type="curve" smooth="yes"/>
      <point x="968" y="448"/>
      <point x="912" y="606"/>
      <point x="815" y="740" type="curve"/>
      <point x="722" y="740" type="line"/>
      <point x="830" y="599"/>
      <point x="886" y="441"/>
      <point x="886" y="275" type="curve" smooth="yes"/>
      <point x="886" y="108"/>
      <point x="830" y="-49"/>
    </contour>
  </outline>
</glyph>
<glyph name="uni249E" format="2">
  <advance height="1000" width="1000"/>
  <unicode hex="249E"/>
  <outline>
    <contour>
      <point x="526" y="-10" type="curve" smooth="yes"/>
      <point x="583" y="-10"/>
      <point x="638" y="7"/>
      <point x="685" y="37" type="curve"/>
      <point x="685" y="123" type="line"/>
      <point x="641" y="87"/>
      <point x="588" y="66"/>
      <point x="530" y="66" type="curve" smooth="yes"/>
      <point x="416" y="66"/>
      <point x="341" y="142"/>
      <point x="341" y="264" type="curve" smooth="yes"/>
      <point x="341" y="391"/>
      <point x="412" y="463"/>
      <point x="526" y="463" type="curve" smooth="yes"/>
      <point x="584" y="463"/>
      <point x="634" y="447"/>
      <point x="686" y="412" type="curve"/>
      <point x="686" y="496" type="line"/>
      <point x="634" y="525"/>
      <point x="579" y="539"/>
      <point x="523" y="539" type="curve" smooth="yes"/>
      <point x="361" y="539"/>
      <point x="259" y="435"/>
      <point x="259" y="263" type="curve" smooth="yes"/>
      <point x="259" y="97"/>
      <point x="364" y="-10"/>
    </contour>
    <contour>
      <point x="185" y="-189" type="curve"/>
      <point x="278" y="-189" type="line"/>
      <point x="170" y="-49"/>
      <point x="114" y="109"/>
      <point x="114" y="276" type="curve" smooth="yes"/>
      <point x="114" y="443"/>
      <point x="170" y="600"/>
      <point x="278" y="740" type="curve"/>
      <point x="185" y="740" type="line"/>
      <point x="88" y="606"/>
      <point x="32" y="448"/>
      <point x="32" y="276" type="curve" smooth="yes"/>
      <point x="32" y="103"/>
      <point x="88" y="-55"/>
    </contour>
    <contour>
      <point x="722" y="-189" type="curve"/>
      <point x="815" y="-189" type="line"/>
      <point x="912" y="-55"/>
      <point x="968" y="103"/>
      <point x="968" y="275" type="curve" smooth="yes"/>
      <point x="968" y="448"/>
      <point x="912" y="606"/>
      <point x="815" y="740" type="curve"/>
      <point x="722" y="740" type="line"/>
      <point x="830" y="599"/>
      <point x="886" y="441"/>
      <point x="886" y="275" type="curve" smooth="yes"/>
      <point x="886" y="108"/>
      <point x="830" y="-49"/>
    </contour>
  </outline>
</glyph>
<glyph name="uni24A1" format="2">
  <advance height="1000" width="1000"/>
  <unicode hex="24A1"/>
  <outline>
    <contour>
      <point x="428" y="0" type="line"/>
      <point x="508" y="0" type="line"/>
      <point x="508" y="453" type="line"/>
      <point x="608" y="453" type="line"/>
      <point x="608" y="529" type="line"/>
      <point x="506" y="529.0" type="line"/>
      <point x="506" y="565.0" type="line" smooth="yes"/>
      <point x="506" y="638.0"/>
      <point x="538" y="677.0"/>
      <point x="590" y="677.0" type="curve" smooth="yes"/>
      <point x="614" y="677.0"/>
      <point x="638" y="672.0"/>
      <point x="662" y="659.0" type="curve"/>
      <point x="662" y="734.0" type="line"/>
      <point x="636" y="746.0"/>
      <point x="607" y="752.0"/>
      <point x="580" y="752.0" type="curve" smooth="yes"/>
      <point x="494.0" y="752.0"/>
      <point x="428" y="681"/>
      <point x="428" y="565" type="curve" smooth="yes"/>
      <point x="428" y="529" type="line"/>
      <point x="346" y="529" type="line"/>
      <point x="346" y="453" type="line"/>
      <point x="428" y="453" type="line"/>
    </contour>
    <contour>
      <point x="185" y="-189" type="curve"/>
      <point x="278" y="-189" type="line"/>
      <point x="170" y="-49"/>
      <point x="114" y="109"/>
      <point x="114" y="276" type="curve" smooth="yes"/>
      <point x="114" y="443"/>
      <point x="170" y="600"/>
      <point x="278" y="740" type="curve"/>
      <point x="185" y="740" type="line"/>
      <point x="88" y="606"/>
      <point x="32" y="448"/>
      <point x="32" y="276" type="curve" smooth="yes"/>
      <point x="32" y="103"/>
      <point x="88" y="-55"/>
    </contour>
    <contour>
      <point x="722" y="-189" type="curve"/>
      <point x="815" y="-189" type="line"/>
      <point x="912" y="-55"/>
      <point x="968" y="103"/>
      <point x="968" y="275" type="curve" smooth="yes"/>
      <point x="968" y="448"/>
      <point x="912" y="606"/>
      <point x="815" y="740" type="curve"/>
      <point x="722" y="740" type="line"/>
      <point x="830" y="599"/>
      <point x="886" y="441"/>
      <point x="886" y="275" type="curve" smooth="yes"/>
      <point x="886" y="108"/>
      <point x="830" y="-49"/>
    </contour>
  </outline>
</glyph>
<glyph name="uni24B7" format="2">
  <advance height="1000" width="1000"/>
  <unicode hex="24B7"/>
  <outline>
    <contour>
      <point x="528" y="100" type="line" smooth="yes"/>
      <point x="634" y="100"/>
      <point x="705" y="146"/>
      <point x="705" y="236" type="curve" smooth="yes"/>
      <point x="705" y="302"/>
      <point x="659" y="344"/>
      <point x="590" y="356" type="curve"/>
      <point x="647" y="370"/>
      <point x="685" y="412"/>
      <point x="685" y="474" type="curve" smooth="yes"/>
      <point x="685" y="557"/>
      <point x="619" y="600"/>
      <point x="520" y="600" type="curve" smooth="yes"/>
      <point x="345" y="600" type="line"/>
      <point x="345" y="100" type="line"/>
    </contour>
    <contour>
      <point x="423" y="390" type="line"/>
      <point x="423" y="528" type="line"/>
      <point x="522" y="528.0" type="line" smooth="yes"/>
      <point x="577.0" y="528.0"/>
      <point x="606" y="504.0"/>
      <point x="606" y="463.0" type="curve" smooth="yes"/>
      <point x="606" y="417.0"/>
      <point x="579.0" y="390.0"/>
      <point x="526" y="390.0" type="curve" smooth="yes"/>
    </contour>
    <contour>
      <point x="423" y="172" type="line"/>
      <point x="423" y="318" type="line"/>
      <point x="529" y="318.0" type="line" smooth="yes"/>
      <point x="592.0" y="318.0"/>
      <point x="624" y="291.0"/>
      <point x="624" y="245.0" type="curve" smooth="yes"/>
      <point x="624.0" y="199.6216216216216"/>
      <point x="594.0" y="172.0"/>
      <point x="536" y="172.0" type="curve" smooth="yes"/>
    </contour>
    <contour>
      <point x="980" y="350" type="curve" smooth="yes"/>
      <point x="980" y="638"/>
      <point x="759" y="830"/>
      <point x="500" y="830" type="curve" smooth="yes"/>
      <point x="241" y="830"/>
      <point x="20" y="638"/>
      <point x="20" y="350" type="curve" smooth="yes"/>
      <point x="20" y="62"/>
      <point x="241" y="-130"/>
      <point x="500" y="-130" type="curve" smooth="yes"/>
      <point x="759" y="-130"/>
      <point x="980" y="62"/>
    </contour>
    <contour>
      <point x="916" y="350" type="curve" smooth="yes"/>
      <point x="916" y="125"/>
      <point x="750" y="-66"/>
      <point x="500" y="-66" type="curve" smooth="yes"/>
      <point x="250" y="-66"/>
      <point x="84" y="125"/>
      <point x="84" y="350" type="curve" smooth="yes"/>
      <point x="84" y="575"/>
      <point x="250" y="766"/>
      <point x="500" y="766" type="curve" smooth="yes"/>
      <point x="750" y="766"/>
      <point x="916" y="575"/>
    </contour>
  </outline>
</glyph>
<glyph name="uni24B8" format="2">
  <advance height="1000" width="1000"/>
  <unicode hex="24B8"/>
  <outline>
    <contour>
      <point x="522" y="91" type="curve" smooth="yes"/>
      <point x="573" y="91"/>
      <point x="630" y="104"/>
      <point x="675" y="127" type="curve"/>
      <point x="675" y="202" type="line"/>
      <point x="633" y="176"/>
      <point x="578" y="163"/>
      <point x="529" y="163" type="curve" smooth="yes"/>
      <point x="408" y="163"/>
      <point x="334" y="226"/>
      <point x="334" y="350" type="curve" smooth="yes"/>
      <point x="334" y="474"/>
      <point x="408" y="537"/>
      <point x="529" y="537" type="curve" smooth="yes"/>
      <point x="577" y="537"/>
      <point x="630" y="525"/>
      <point x="670" y="504" type="curve"/>
      <point x="670" y="580" type="line"/>
      <point x="627" y="598"/>
      <point x="572" y="609"/>
      <point x="522" y="609" type="curve" smooth="yes"/>
      <point x="360" y="609"/>
      <point x="254" y="507"/>
      <point x="254" y="350" type="curve" smooth="yes"/>
      <point x="254" y="194"/>
      <point x="360" y="91"/>
    </contour>
    <contour>
      <point x="980" y="350" type="curve" smooth="yes"/>
      <point x="980" y="638"/>
      <point x="759" y="830"/>
      <point x="500" y="830" type="curve" smooth="yes"/>
      <point x="241" y="830"/>
      <point x="20" y="638"/>
      <point x="20" y="350" type="curve" smooth="yes"/>
      <point x="20" y="62"/>
      <point x="241" y="-130"/>
      <point x="500" y="-130" type="curve" smooth="yes"/>
      <point x="759" y="-130"/>
      <point x="980" y="62"/>
    </contour>
    <contour>
      <point x="916" y="350" type="curve" smooth="yes"/>
      <point x="916" y="125"/>
      <point x="750" y="-66"/>
      <point x="500" y="-66" type="curve" smooth="yes"/>
      <point x="250" y="-66"/>
      <point x="84" y="125"/>
      <point x="84" y="350" type="curve" smooth="yes"/>
      <point x="84" y="575"/>
      <point x="250" y="766"/>
      <point x="500" y="766" type="curve" smooth="yes"/>
      <point x="750" y="766"/>
      <point x="916" y="575"/>
    </contour>
  </outline>
</glyph>
<glyph name="uni24B9" format="2">
  <advance height="1000" width="1000"/>
  <unicode hex="24B9"/>
  <outline>
    <contour>
      <point x="312" y="100" type="line"/>
      <point x="480" y="100" type="line" smooth="yes"/>
      <point x="656" y="100"/>
      <point x="765" y="192"/>
      <point x="765" y="351" type="curve" smooth="yes"/>
      <point x="765" y="501"/>
      <point x="658" y="600"/>
      <point x="484" y="600" type="curve" smooth="yes"/>
      <point x="312" y="600" type="line"/>
    </contour>
    <contour>
      <point x="390" y="172" type="line"/>
      <point x="390" y="528" type="line"/>
      <point x="479" y="528" type="line" smooth="yes"/>
      <point x="604" y="528"/>
      <point x="685" y="466"/>
      <point x="685" y="351" type="curve" smooth="yes"/>
      <point x="685" y="227"/>
      <point x="603" y="172"/>
      <point x="474" y="172" type="curve" smooth="yes"/>
    </contour>
    <contour>
      <point x="980" y="350" type="curve" smooth="yes"/>
      <point x="980" y="638"/>
      <point x="759" y="830"/>
      <point x="500" y="830" type="curve" smooth="yes"/>
      <point x="241" y="830"/>
      <point x="20" y="638"/>
      <point x="20" y="350" type="curve" smooth="yes"/>
      <point x="20" y="62"/>
      <point x="241" y="-130"/>
      <point x="500" y="-130" type="curve" smooth="yes"/>
      <point x="759" y="-130"/>
      <point x="980" y="62"/>
    </contour>
    <contour>
      <point x="916" y="350" type="curve" smooth="yes"/>
      <point x="916" y="125"/>
      <point x="750" y="-66"/>
      <point x="500" y="-66" type="curve" smooth="yes"/>
      <point x="250" y="-66"/>
      <point x="84" y="125"/>
      <point x="84" y="350" type="curve" smooth="yes"/>
      <point x="84" y="575"/>
      <point x="250" y="766"/>
      <point x="500" y="766" type="curve" smooth="yes"/>
      <point x="750" y="766"/>
      <point x="916" y="575"/>
    </contour>
  </outline>
</glyph>
<glyph name="uni2776" format="2">
  <advance height="1000" width="1000"/>
  <unicode hex="2776"/>
  <outline>
    <contour>
      <point x="360" y="124" type="line"/>
      <point x="360" y="192" type="line"/>
      <point x="476" y="192" type="line"/>
      <point x="476" y="527" type="line"/>
      <point x="346" y="506" type="line"/>
      <point x="346" y="573" type="line"/>
      <point x="552" y="607" type="line"/>
      <point x="552" y="192" type="line"/>
      <point x="668" y="192" type="line"/>
      <point x="668" y="124" type="line"/>
    </contour>
    <contour>
      <point x="988" y="360" type="curve" smooth="yes"/>
      <point x="988" y="653"/>
      <point x="764" y="848"/>
      <point x="500" y="848" type="curve" smooth="yes"/>
      <point x="236" y="848"/>
      <point x="12" y="653"/>
      <point x="12" y="360" type="curve" smooth="yes"/>
      <point x="12" y="67"/>
      <point x="236" y="-128"/>
      <point x="500" y="-128" type="curve" smooth="yes"/>
      <point x="764" y="-128"/>
      <point x="988" y="67"/>
    </contour>
  </outline>
</glyph>
<glyph name="uni2778" format="2">
  <advance height="1000" width="1000"/>
  <unicode hex="2778"/>
  <outline>
    <contour>
      <point x="495.0" y="117" type="curve" smooth="yes"/>
      <point x="442" y="117"/>
      <point x="387" y="131"/>
      <point x="341" y="156" type="curve"/>
      <point x="341" y="231.0" type="line"/>
      <point x="387" y="201.0"/>
      <point x="441" y="186.0"/>
      <point x="492" y="186" type="curve" smooth="yes"/>
      <point x="545" y="186.0"/>
      <point x="578.0" y="211"/>
      <point x="578" y="256" type="curve" smooth="yes"/>
      <point x="578.0" y="305"/>
      <point x="532.0" y="336.0"/>
      <point x="459" y="336" type="curve" smooth="yes"/>
      <point x="430" y="336" type="line"/>
      <point x="430" y="400" type="line"/>
      <point x="457" y="400" type="line" smooth="yes"/>
      <point x="528" y="400.0"/>
      <point x="570.0" y="428"/>
      <point x="570" y="475" type="curve" smooth="yes"/>
      <point x="570.0" y="517"/>
      <point x="536" y="539.0"/>
      <point x="487" y="539" type="curve" smooth="yes"/>
      <point x="442" y="539.0"/>
      <point x="397.0" y="528.0"/>
      <point x="358" y="502" type="curve"/>
      <point x="358" y="574" type="line"/>
      <point x="398.0" y="595.0"/>
      <point x="449" y="607.0"/>
      <point x="497" y="607.0" type="curve" smooth="yes"/>
      <point x="590" y="607.0"/>
      <point x="648.0" y="561.0"/>
      <point x="648" y="488" type="curve" smooth="yes"/>
      <point x="648.0" y="427.0"/>
      <point x="608" y="380.0"/>
      <point x="549" y="370" type="curve"/>
      <point x="615" y="358"/>
      <point x="656.0" y="311.0"/>
      <point x="656" y="251" type="curve" smooth="yes"/>
      <point x="656.0" y="169.0"/>
      <point x="595" y="117"/>
    </contour>
    <contour>
      <point x="988" y="360" type="curve" smooth="yes"/>
      <point x="988" y="653"/>
      <point x="764" y="848"/>
      <point x="500" y="848" type="curve" smooth="yes"/>
      <point x="236" y="848"/>
      <point x="12" y="653"/>
      <point x="12" y="360" type="curve" smooth="yes"/>
      <point x="12" y="67"/>
      <point x="236" y="-128"/>
      <point x="500" y="-128" type="curve" smooth="yes"/>
      <point x="764" y="-128"/>
      <point x="988" y="67"/>
    </contour>
  </outline>
</glyph>
<glyph name="uni2779" format="2">
  <advance height="1000" width="1000"/>
  <unicode hex="2779"/>
  <outline>
    <contour>
      <point x="523" y="125" type="line"/>
      <point x="523" y="240" type="line"/>
      <point x="302.0" y="240" type="line"/>
      <point x="302.0" y="305" type="line"/>
      <point x="502" y="603" type="line"/>
      <point x="595" y="603" type="line"/>
      <point x="595" y="307" type="line"/>
      <point x="663.0" y="307" type="line"/>
      <point x="663.0" y="240" type="line"/>
      <point x="595" y="240" type="line"/>
      <point x="595" y="125" type="line"/>
    </contour>
    <contour>
      <point x="523" y="307" type="line"/>
      <point x="523" y="525" type="line"/>
      <point x="378" y="307" type="line"/>
    </contour>
    <contour>
      <point x="988" y="360" type="curve" smooth="yes"/>
      <point x="988" y="653"/>
      <point x="764" y="848"/>
      <point x="500" y="848" type="curve" smooth="yes"/>
      <point x="236" y="848"/>
      <point x="12" y="653"/>
      <point x="12" y="360" type="curve" smooth="yes"/>
      <point x="12" y="67"/>
      <point x="236" y="-128"/>
      <point x="500" y="-128" type="curve" smooth="yes"/>
      <point x="764" y="-128"/>
      <point x="988" y="67"/>
    </contour>
  </outline>
</glyph>
<glyph name="uni277A" format="2">
  <advance height="1000" width="1000"/>
  <unicode hex="277A"/>
  <outline>
    <contour>
      <point x="484" y="113" type="curve" smooth="yes"/>
      <point x="435" y="113.0"/>
      <point x="391" y="127"/>
      <point x="350" y="149" type="curve"/>
      <point x="350" y="226" type="line"/>
      <point x="390" y="197.0"/>
      <point x="435" y="181.0"/>
      <point x="482" y="181" type="curve" smooth="yes"/>
      <point x="546" y="181.0"/>
      <point x="581.0" y="212"/>
      <point x="581" y="265" type="curve" smooth="yes"/>
      <point x="581.0" y="317"/>
      <point x="540.0" y="349.0"/>
      <point x="467" y="349" type="curve" smooth="yes"/>
      <point x="430" y="349"/>
      <point x="397" y="345"/>
      <point x="359" y="338" type="curve"/>
      <point x="377" y="595" type="line"/>
      <point x="637" y="595" type="line"/>
      <point x="637" y="523" type="line"/>
      <point x="436" y="523" type="line"/>
      <point x="428" y="409" type="line"/>
      <point x="446" y="412.0"/>
      <point x="469" y="413.0"/>
      <point x="487.0" y="413" type="curve" smooth="yes"/>
      <point x="602.0" y="413.0"/>
      <point x="659.0" y="358"/>
      <point x="659" y="269" type="curve" smooth="yes"/>
      <point x="659.0" y="176"/>
      <point x="593" y="113.0"/>
    </contour>
    <contour>
      <point x="988" y="360" type="curve" smooth="yes"/>
      <point x="988" y="653"/>
      <point x="764" y="848"/>
      <point x="500" y="848" type="curve" smooth="yes"/>
      <point x="236" y="848"/>
      <point x="12" y="653"/>
      <point x="12" y="360" type="curve" smooth="yes"/>
      <point x="12" y="67"/>
      <point x="236" y="-128"/>
      <point x="500" y="-128" type="curve" smooth="yes"/>
      <point x="764" y="-128"/>
      <point x="988" y="67"/>
    </contour>
  </outline>
</glyph>
<glyph name="uni277B" format="2">
  <advance height="1000" width="1000"/>
  <unicode hex="277B"/>
  <outline>
    <contour>
      <point x="492" y="113" type="curve" smooth="yes"/>
      <point x="393.0" y="113"/>
      <point x="310.0" y="183.0"/>
      <point x="310" y="323" type="curve" smooth="yes"/>
      <point x="310" y="522"/>
      <point x="403" y="603"/>
      <point x="527" y="603" type="curve" smooth="yes"/>
      <point x="568" y="603"/>
      <point x="602" y="596"/>
      <point x="638" y="584" type="curve"/>
      <point x="638" y="512" type="line"/>
      <point x="603" y="528"/>
      <point x="565" y="535"/>
      <point x="531" y="535" type="curve" smooth="yes"/>
      <point x="448" y="535"/>
      <point x="401" y="488"/>
      <point x="391" y="395" type="curve"/>
      <point x="416" y="418"/>
      <point x="454" y="437"/>
      <point x="510" y="437" type="curve" smooth="yes"/>
      <point x="601" y="437"/>
      <point x="666" y="374"/>
      <point x="666" y="281" type="curve" smooth="yes"/>
      <point x="666" y="183"/>
      <point x="596" y="113"/>
    </contour>
    <contour>
      <point x="494" y="181" type="curve" smooth="yes"/>
      <point x="553" y="181"/>
      <point x="590" y="221"/>
      <point x="590" y="278" type="curve" smooth="yes"/>
      <point x="590" y="336"/>
      <point x="551" y="374"/>
      <point x="492" y="374" type="curve" smooth="yes"/>
      <point x="440" y="374"/>
      <point x="394" y="340"/>
      <point x="387" y="309" type="curve"/>
      <point x="385" y="226"/>
      <point x="424" y="181"/>
    </contour>
    <contour>
      <point x="988" y="360" type="curve" smooth="yes"/>
      <point x="988" y="653"/>
      <point x="764" y="848"/>
      <point x="500" y="848" type="curve" smooth="yes"/>
      <point x="236" y="848"/>
      <point x="12" y="653"/>
      <point x="12" y="360" type="curve" smooth="yes"/>
      <point x="12" y="67"/>
      <point x="236" y="-128"/>
      <point x="500" y="-128" type="curve" smooth="yes"/>
      <point x="764" y="-128"/>
      <point x="988" y="67"/>
    </contour>
  </outline>
</glyph>
<glyph name="nine.tab" format="2">
  <advance width="630"/>
  <outline>
    <contour>
      <point x="255.0" y="-14" type="curve" smooth="yes"/>
      <point x="441.0" y="-14"/>
      <point x="561.0" y="133"/>
      <point x="561.0" y="436" type="curve" smooth="yes"/>
      <point x="561.0" y="655"/>
      <point x="458.0" y="754"/>
      <point x="316.0" y="754" type="curve" smooth="yes"/>
      <point x="175.0" y="754"/>
      <point x="67.0" y="660"/>
      <point x="67.0" y="499" type="curve" smooth="yes"/>
      <point x="67.0" y="357"/>
      <point x="162.0" y="260"/>
      <point x="297.0" y="260" type="curve" smooth="yes"/>
      <point x="369.0" y="260"/>
      <point x="438.0" y="293"/>
      <point x="476.0" y="357" type="curve"/>
      <point x="460.0" y="157"/>
      <point x="377.0" y="63"/>
      <point x="249.0" y="63" type="curve" smooth="yes"/>
      <point x="198.0" y="63"/>
      <point x="143.0" y="79"/>
      <point x="101.0" y="101" type="curve"/>
      <point x="101.0" y="15" type="line"/>
      <point x="146.0" y="-3"/>
      <point x="202.0" y="-14"/>
    </contour>
    <contour>
      <point x="309.0" y="334" type="curve" smooth="yes"/>
      <point x="215.0" y="334"/>
      <point x="150.0" y="410"/>
      <point x="150.0" y="503" type="curve" smooth="yes"/>
      <point x="150.0" y="605"/>
      <point x="217.0" y="678"/>
      <point x="315.0" y="678" type="curve" smooth="yes"/>
      <point x="414.0" y="678"/>
      <point x="475.0" y="597"/>
      <point x="476.0" y="474" type="curve"/>
      <point x="469.0" y="395"/>
      <point x="398.0" y="334"/>
    </contour>
    <component base="typetry.com" xOffset="15.0"/>
  </outline>
</glyph>
<glyph name="one.tab" format="2">
  <advance width="630"/>
  <outline>
    <contour>
      <point x="297.0" y="0" type="line"/>
      <point x="379.0" y="0" type="line"/>
      <point x="379.0" y="754" type="line"/>
      <point x="159.0" y="719" type="line"/>
      <point x="159.0" y="640" type="line"/>
      <point x="297.0" y="663" type="line"/>
    </contour>
  </outline>
</glyph>
<glyph name="three.tab" format="2">
  <advance width="630"/>
  <outline>
    <contour>
      <point x="301.0" y="-13" type="curve" smooth="yes"/>
      <point x="442.0" y="-13"/>
      <point x="531.0" y="67"/>
      <point x="531.0" y="192" type="curve" smooth="yes"/>
      <point x="531.0" y="289"/>
      <point x="480.0" y="353"/>
      <point x="382.0" y="382" type="curve"/>
      <point x="471.0" y="403"/>
      <point x="517.0" y="464"/>
      <point x="517.0" y="560" type="curve" smooth="yes"/>
      <point x="517.0" y="675"/>
      <point x="437.0" y="753.0"/>
      <point x="292.0" y="753" type="curve" smooth="yes"/>
      <point x="226.0" y="753"/>
      <point x="162.0" y="734"/>
      <point x="109.0" y="696" type="curve"/>
      <point x="109.0" y="611" type="line"/>
      <point x="160.0" y="653"/>
      <point x="224.0" y="677"/>
      <point x="292.0" y="677" type="curve" smooth="yes"/>
      <point x="372.0" y="677.0"/>
      <point x="434.0" y="631.9090909090909"/>
      <point x="434.0" y="553" type="curve" smooth="yes"/>
      <point x="434.0" y="463.93617021276594"/>
      <point x="361.0" y="415.0"/>
      <point x="243.0" y="415" type="curve" smooth="yes"/>
      <point x="209.0" y="415" type="line"/>
      <point x="209.0" y="339" type="line"/>
      <point x="248.0" y="339" type="line" smooth="yes"/>
      <point x="372.0" y="339"/>
      <point x="448.0" y="291"/>
      <point x="448.0" y="192" type="curve" smooth="yes"/>
      <point x="448.0" y="108"/>
      <point x="390.0" y="63"/>
      <point x="294.0" y="63" type="curve" smooth="yes"/>
      <point x="224.0" y="63"/>
      <point x="143.0" y="93"/>
      <point x="80.0" y="144" type="curve"/>
      <point x="80.0" y="53" type="line"/>
      <point x="145.0" y="11.264705882352942"/>
      <point x="222.0" y="-13.0"/>
    </contour>
  </outline>
</glyph>
<glyph name="two.tab" format="2">
  <advance width="630"/>
  <outline>
    <contour>
      <point x="91.0" y="0" type="line"/>
      <point x="528.0" y="0" type="line"/>
      <point x="528.0" y="84" type="line"/>
      <point x="162.0" y="84" type="line"/>
      <point x="271.0" y="167" type="line" smooth="yes"/>
      <point x="415.0" y="276"/>
      <point x="526.0" y="372"/>
      <point x="526.0" y="530" type="curve" smooth="yes"/>
      <point x="526.0" y="667"/>
      <point x="438.0" y="753"/>
      <point x="289.0" y="753" type="curve" smooth="yes"/>
      <point x="217.0" y="753"/>
      <point x="155.0" y="734"/>
      <point x="96.0" y="694" type="curve"/>
      <point x="96.0" y="607" type="line"/>
      <point x="152.0" y="655"/>
      <point x="213.0" y="677"/>
      <point x="288.0" y="677" type="curve" smooth="yes"/>
      <point x="379.0" y="677"/>
      <point x="443.0" y="617"/>
      <point x="443.0" y="521" type="curve" smooth="yes"/>
      <point x="443.0" y="399"/>
      <point x="341.0" y="317"/>
      <point x="199.0" y="204" type="curve" smooth="yes"/>
      <point x="91.0" y="118" type="line"/>
    </contour>
  </outline>
</glyph>
<glyph name="typetry.com" format="2">
  <advance width="600"/>
  <outline>
    <contour>
      <point x="59" y="362" type="line"/>
      <point x="82" y="362" type="line"/>
      <point x="82" y="477" type="line"/>
      <point x="125" y="477" type="line"/>
      <point x="125" y="500" type="line"/>
      <point x="15" y="500" type="line"/>
      <point x="15" y="477" type="line"/>
      <point x="59" y="477" type="line"/>
    </contour>
    <contour>
      <point x="182" y="362" type="line"/>
      <point x="205" y="362" type="line"/>
      <point x="205" y="418" type="line"/>
      <point x="254" y="500" type="line"/>
      <point x="231" y="500" type="line"/>
      <point x="203" y="454" type="line"/>
      <point x="195" y="440" type="line"/>
      <point x="187" y="454" type="line"/>
      <point x="159" y="500" type="line"/>
      <point x="132" y="500" type="line"/>
      <point x="182" y="418" type="line"/>
    </contour>
    <contour>
      <point x="273" y="362" type="line"/>
      <point x="297" y="362" type="line"/>
      <point x="297" y="410" type="line"/>
      <point x="307" y="410" type="line" smooth="yes"/>
      <point x="340" y="410"/>
      <point x="360" y="425"/>
      <point x="360" y="454" type="curve" smooth="yes"/>
      <point x="360" y="481"/>
      <point x="340" y="500"/>
      <point x="307" y="500" type="curve" smooth="yes"/>
      <point x="273" y="500" type="line"/>
    </contour>
    <contour>
      <point x="297" y="430" type="line"/>
      <point x="297" y="477" type="line"/>
      <point x="308" y="477" type="line" smooth="yes"/>
      <point x="325" y="477"/>
      <point x="336" y="469"/>
      <point x="336" y="454" type="curve" smooth="yes"/>
      <point x="336" y="438"/>
      <point x="325" y="430"/>
      <point x="308" y="430" type="curve" smooth="yes"/>
    </contour>
    <contour>
      <point x="386" y="362" type="line"/>
      <point x="468" y="362" type="line"/>
      <point x="468" y="386" type="line"/>
      <point x="410" y="386" type="line"/>
      <point x="410" y="421" type="line"/>
      <point x="464" y="421" type="line"/>
      <point x="464" y="443" type="line"/>
      <point x="410" y="443" type="line"/>
      <point x="410" y="477" type="line"/>
      <point x="466" y="477" type="line"/>
      <point x="466" y="500" type="line"/>
      <point x="386" y="500" type="line"/>
    </contour>
    <contour>
      <point x="120" y="181" type="line"/>
      <point x="144" y="181" type="line"/>
      <point x="144" y="296" type="line"/>
      <point x="188" y="296" type="line"/>
      <point x="188" y="319" type="line"/>
      <point x="78" y="319" type="line"/>
      <point x="78" y="296" type="line"/>
      <point x="120" y="296" type="line"/>
    </contour>
    <contour>
      <point x="349" y="181" type="line"/>
      <point x="373" y="181" type="line"/>
      <point x="373" y="239" type="line"/>
      <point x="423" y="319" type="line"/>
      <point x="399" y="319" type="line"/>
      <point x="370" y="272" type="line"/>
      <point x="362" y="258" type="line"/>
      <point x="354" y="272" type="line"/>
      <point x="326" y="319" type="line"/>
      <point x="298" y="319" type="line"/>
      <point x="349" y="238" type="line"/>
    </contour>
    <contour>
      <point x="276" y="181" type="line"/>
      <point x="301" y="181" type="line"/>
      <point x="283" y="228" type="line" smooth="yes"/>
      <point x="279" y="239"/>
      <point x="273" y="245"/>
      <point x="263" y="248" type="curve"/>
      <point x="281" y="252"/>
      <point x="290" y="265"/>
      <point x="290" y="281" type="curve" smooth="yes"/>
      <point x="290" y="304"/>
      <point x="273" y="319"/>
      <point x="246" y="319" type="curve" smooth="yes"/>
      <point x="206" y="319" type="line"/>
      <point x="206" y="181" type="line"/>
      <point x="229" y="181" type="line"/>
      <point x="229" y="239" type="line"/>
      <point x="243" y="239" type="line" smooth="yes"/>
      <point x="251" y="239"/>
      <point x="257" y="233"/>
      <point x="261" y="223" type="curve" smooth="yes"/>
    </contour>
    <contour>
      <point x="229" y="257" type="line"/>
      <point x="229" y="297" type="line"/>
      <point x="246" y="297" type="line" smooth="yes"/>
      <point x="257" y="297"/>
      <point x="266" y="290"/>
      <point x="266" y="277" type="curve" smooth="yes"/>
      <point x="266" y="265"/>
      <point x="258" y="257"/>
      <point x="246" y="257" type="curve" smooth="yes"/>
    </contour>
    <contour>
      <point x="111" y="-3" type="curve" smooth="yes"/>
      <point x="127" y="-3"/>
      <point x="142" y="0"/>
      <point x="156" y="9" type="curve"/>
      <point x="156" y="33" type="line"/>
      <point x="142" y="24"/>
      <point x="127" y="19"/>
      <point x="111" y="19" type="curve" smooth="yes"/>
      <point x="82" y="19"/>
      <point x="62" y="39"/>
      <point x="62" y="70" type="curve" smooth="yes"/>
      <point x="62" y="98"/>
      <point x="82" y="120"/>
      <point x="111" y="120" type="curve" smooth="yes"/>
      <point x="126" y="120"/>
      <point x="141" y="115"/>
      <point x="154" y="106" type="curve"/>
      <point x="154" y="131" type="line"/>
      <point x="141" y="138"/>
      <point x="126" y="141"/>
      <point x="111" y="141" type="curve" smooth="yes"/>
      <point x="67" y="141"/>
      <point x="38" y="112"/>
      <point x="38" y="70" type="curve" smooth="yes"/>
      <point x="38" y="25"/>
      <point x="67" y="-3"/>
    </contour>
    <contour>
      <point x="249" y="-3" type="curve" smooth="yes"/>
      <point x="292" y="-3"/>
      <point x="320" y="25"/>
      <point x="320" y="70" type="curve" smooth="yes"/>
      <point x="320" y="113"/>
      <point x="291" y="141"/>
      <point x="249" y="141" type="curve" smooth="yes"/>
      <point x="207" y="141"/>
      <point x="178" y="112"/>
      <point x="178" y="70" type="curve" smooth="yes"/>
      <point x="178" y="26"/>
      <point x="206" y="-3"/>
    </contour>
    <contour>
      <point x="249" y="19" type="curve" smooth="yes"/>
      <point x="221" y="19"/>
      <point x="202" y="39"/>
      <point x="202" y="70" type="curve" smooth="yes"/>
      <point x="202" y="98"/>
      <point x="221" y="120"/>
      <point x="249" y="120" type="curve" smooth="yes"/>
      <point x="277" y="120"/>
      <point x="297" y="98"/>
      <point x="297" y="70" type="curve" smooth="yes"/>
      <point x="297" y="39"/>
      <point x="277" y="19"/>
    </contour>
    <contour>
      <point x="349" y="0" type="line"/>
      <point x="371" y="0" type="line"/>
      <point x="371" y="89" type="line"/>
      <point x="371" y="115" type="line"/>
      <point x="381" y="89" type="line"/>
      <point x="409" y="28" type="line"/>
      <point x="430" y="28" type="line"/>
      <point x="458" y="89" type="line"/>
      <point x="468" y="115" type="line"/>
      <point x="467" y="89" type="line"/>
      <point x="467" y="0" type="line"/>
      <point x="490" y="0" type="line"/>
      <point x="490" y="138" type="line"/>
      <point x="454" y="138" type="line"/>
      <point x="428" y="76" type="line"/>
      <point x="419" y="52" type="line"/>
      <point x="413" y="76" type="line"/>
      <point x="385" y="138" type="line"/>
      <point x="349" y="138" type="line"/>
    </contour>
    <contour>
      <point x="0" y="0" type="line"/>
      <point x="23" y="0" type="line"/>
      <point x="23" y="24" type="line"/>
      <point x="0" y="24" type="line"/>
    </contour>
  </outline>
</glyph>
<glyph name="zero.tab" format="2">
  <advance width="630"/>
  <outline>
    <contour>
      <point x="314.0" y="-14" type="curve" smooth="yes"/>
      <point x="493.0" y="-14"/>
      <point x="584.0" y="134"/>
      <point x="584.0" y="369" type="curve" smooth="yes"/>
      <point x="584.0" y="604"/>
      <point x="494.0" y="754"/>
      <point x="315.0" y="754" type="curve" smooth="yes"/>
      <point x="137.0" y="754"/>
      <point x="46.0" y="604"/>
      <point x="46.0" y="368" type="curve" smooth="yes"/>
      <point x="46.0" y="134"/>
      <point x="136.0" y="-14"/>
    </contour>
    <contour>
      <point x="315.0" y="62" type="curve" smooth="yes"/>
      <point x="201.0" y="62"/>
      <point x="129.0" y="167"/>
      <point x="129.0" y="369" type="curve" smooth="yes"/>
      <point x="129.0" y="573"/>
      <point x="201.0" y="678"/>
      <point x="315.0" y="678" type="curve" smooth="yes"/>
      <point x="430.0" y="678"/>
      <point x="501.0" y="573"/>
      <point x="501.0" y="368" type="curve" smooth="yes"/>
      <point x="501.0" y="167"/>
      <point x="430.0" y="62"/>
    </contour>
  </outline>
</glyph>
